<svg width="24" height="21" viewBox="0 0 24 21" fill="none" xmlns="http://www.w3.org/2000/svg">
<path d="M23.1399 10.8536C22.9153 11.6464 22.4662 12.3335 21.8762 12.7877C21.4051 13.1509 20.8701 13.3409 20.3439 13.3409C20.1458 13.3409 19.9521 13.3145 19.7605 13.2603C19.0649 13.0613 18.5012 12.5087 18.2151 11.7439C17.9531 11.0467 17.9355 10.2263 18.16 9.43331C18.3868 8.64051 18.8359 7.95342 19.4237 7.49925C20.071 7.0004 20.8415 6.828 21.5394 7.02661C22.2351 7.22564 22.8009 7.7782 23.0871 8.54306C23.3468 9.24032 23.3666 10.0606 23.1399 10.8536ZM8.42025 8.84976C9.24806 8.84976 10.0384 8.38898 10.5888 7.58498C11.0885 6.85603 11.3637 5.90123 11.3637 4.896C11.3637 3.88987 11.0885 2.93508 10.5888 2.20612C10.0384 1.40236 9.24802 0.941528 8.42025 0.941528C7.59023 0.941528 6.79992 1.40231 6.24952 2.20612C5.75198 2.93508 5.47678 3.88987 5.47678 4.896C5.47678 5.90123 5.75198 6.85603 6.24952 7.58498C6.79992 8.38898 7.59028 8.84976 8.42025 8.84976ZM15.5798 8.84976C16.4098 8.84976 17.2001 8.38898 17.7505 7.58498C18.248 6.85603 18.5232 5.90123 18.5232 4.896C18.5232 3.88987 18.248 2.93508 17.7505 2.20612C17.2001 1.40236 16.4097 0.941528 15.5798 0.941528C14.7519 0.941528 13.9616 1.40231 13.4112 2.20612C12.9115 2.93508 12.6363 3.88987 12.6363 4.896C12.6363 5.90123 12.9115 6.85603 13.4112 7.58498C13.9616 8.38898 14.7519 8.84976 15.5798 8.84976ZM5.84002 9.43382C5.61328 8.64061 5.16417 7.95351 4.57631 7.49929C3.92906 7.00045 3.15853 6.82804 2.46061 7.02665C1.76274 7.22568 1.19911 7.77825 0.912891 8.54311C0.65311 9.24032 0.633329 10.0606 0.860063 10.8537C1.08464 11.6465 1.53375 12.3336 2.12372 12.7877C2.59486 13.151 3.12984 13.3409 3.65602 13.3409C3.85195 13.3409 4.04789 13.3145 4.23722 13.2604C4.93509 13.0613 5.49872 12.5088 5.78489 11.7439C6.04697 11.0467 6.06459 10.2264 5.84002 9.43382ZM16.3194 11.367C15.113 10.0989 13.5807 9.40106 12 9.40106C10.4193 9.40106 8.88478 10.0989 7.68272 11.367C6.53348 12.5764 5.73216 14.2544 5.42391 16.0929C5.22797 17.2657 5.58459 18.3944 6.4058 19.1894C7.26 20.0167 8.37619 20.2679 9.46819 19.8796C10.2762 19.5912 11.1282 19.445 12 19.445C12.8718 19.445 13.7238 19.5912 14.5318 19.8796C14.8687 19.9994 15.2077 20.0586 15.5401 20.0586C16.2864 20.0586 17.002 19.7618 17.592 19.1894C18.4154 18.3944 18.772 17.2657 18.576 16.0929C18.2678 14.2544 17.4665 12.5763 16.3194 11.367Z" fill="#FF9AF5"/>
</svg>
