<svg width="24" height="25" viewBox="0 0 24 25" fill="none" xmlns="http://www.w3.org/2000/svg">
<path d="M23.1399 12.8536C22.9153 13.6464 22.4662 14.3335 21.8762 14.7876C21.4051 15.1509 20.8701 15.3409 20.3439 15.3409C20.1458 15.3409 19.952 15.3144 19.7605 15.2603C19.0648 15.0612 18.5012 14.5087 18.215 13.7438C17.9531 13.0466 17.9354 12.2263 18.16 11.4333C18.3868 10.6405 18.8359 9.95337 19.4237 9.4992C20.071 9.00036 20.8415 8.82795 21.5394 9.02656C22.2351 9.22559 22.8009 9.77815 23.0871 10.543C23.3468 11.2403 23.3666 12.0605 23.1399 12.8536ZM8.42024 10.8497C9.24805 10.8497 10.0384 10.3889 10.5888 9.58493C11.0885 8.85598 11.3637 7.90119 11.3637 6.89595C11.3637 5.88983 11.0885 4.93503 10.5888 4.20608C10.0384 3.40231 9.248 2.94148 8.42024 2.94148C7.59022 2.94148 6.79991 3.40226 6.2495 4.20608C5.75197 4.93503 5.47677 5.88983 5.47677 6.89595C5.47677 7.90119 5.75197 8.85598 6.2495 9.58493C6.79991 10.3889 7.59027 10.8497 8.42024 10.8497ZM15.5797 10.8497C16.4098 10.8497 17.2001 10.3889 17.7505 9.58493C18.248 8.85598 18.5232 7.90119 18.5232 6.89595C18.5232 5.88983 18.248 4.93503 17.7505 4.20608C17.2001 3.40231 16.4097 2.94148 15.5797 2.94148C14.7519 2.94148 13.9616 3.40226 13.4112 4.20608C12.9115 4.93503 12.6363 5.88983 12.6363 6.89595C12.6363 7.90119 12.9115 8.85598 13.4112 9.58493C13.9616 10.3889 14.7519 10.8497 15.5797 10.8497ZM5.84 11.4338C5.61327 10.6406 5.16416 9.95347 4.5763 9.49925C3.92905 9.0004 3.15852 8.828 2.46059 9.02661C1.76272 9.22564 1.19909 9.7782 0.912876 10.5431C0.653095 11.2403 0.633313 12.0606 0.860048 12.8536C1.08463 13.6464 1.53374 14.3335 2.1237 14.7877C2.59484 15.1509 3.12983 15.3409 3.656 15.3409C3.85194 15.3409 4.04788 15.3145 4.2372 15.2603C4.93508 15.0613 5.4987 14.5087 5.78488 13.7439C6.04695 13.0467 6.06458 12.2263 5.84 11.4338ZM16.3194 13.367C15.113 12.0989 13.5807 11.401 12 11.401C10.4193 11.401 8.88477 12.0989 7.6827 13.367C6.53347 14.5763 5.73214 16.2544 5.42389 18.0928C5.22795 19.2656 5.58458 20.3944 6.40578 21.1894C7.25998 22.0167 8.37617 22.2679 9.46817 21.8795C10.2762 21.5911 11.1282 21.445 12 21.445C12.8718 21.445 13.7238 21.5912 14.5318 21.8795C14.8686 21.9993 15.2077 22.0585 15.5401 22.0585C16.2864 22.0585 17.002 21.7617 17.5919 21.1894C18.4153 20.3944 18.772 19.2657 18.576 18.0928C18.2678 16.2543 17.4665 14.5763 16.3194 13.367Z" fill="black"/>
</svg>
