<svg width="93" height="100" viewBox="0 0 93 100" fill="none" xmlns="http://www.w3.org/2000/svg">
<g clip-path="url(#clip0_1_283)">
<path d="M89.24 14.5299C88 12.4099 86.88 10.2699 84.95 8.62994C83.01 6.99994 80.84 5.74994 78.74 4.38994C74.18 1.42994 69.09 0.379942 64.45 -5.78444e-05C62.12 -0.0700578 60.5 0.259942 58.86 0.449942C57.79 0.579942 56.7 0.529942 55.66 0.939942C53.17 1.91994 51.14 3.55994 49.2 5.30994C47.02 7.26994 45.22 9.59994 43.75 12.1099C42.31 14.5599 41.07 17.1199 40.96 20.1099C40.91 21.4799 40.87 22.8299 40.93 24.1899C41.24 30.9599 43.22 37.0899 47.81 42.2099C49.82 44.4499 52.28 46.0899 55 47.3399C57.2 48.3499 59.52 48.8199 61.93 49.1299C64.86 49.5099 67.72 50.2099 70.74 49.8699C72.47 49.6699 74.14 49.4399 75.67 48.6299C79.18 46.7599 82.09 44.1799 84.81 41.2699C89.15 36.6399 90.53 30.9299 91 24.9599C91.28 21.4199 91.15 17.7999 89.24 14.5099V14.5299Z" fill="#FF9AF5"/>
<path d="M16.27 52.6399C19.02 51.3599 21.77 50.1199 24.7 49.2999C25.91 48.9599 27.03 48.4799 27.85 47.4399C23.68 48.6599 19.46 49.5899 15.53 51.5099C12.4 53.0299 10.51 55.3599 9.68997 58.6599C9.59997 59.0399 9.58997 59.4099 9.27997 59.7499C6.77997 62.5599 3.78997 64.8599 1.16997 67.5399C0.719973 67.9999 0.459973 68.5099 0.599973 69.0599C0.969973 70.5199 0.759973 72.0199 1.00997 73.4899C1.23997 74.7899 1.16997 76.0899 0.969973 77.3999C0.569973 80.0099 0.709973 82.5299 2.65997 84.6099C3.08997 85.0699 3.30997 85.6599 3.58997 86.2299C4.41997 87.9199 5.17997 89.6799 6.28997 91.1799C7.02997 92.1699 7.73997 93.2099 8.52997 94.1699C9.41997 95.2699 10.95 95.0899 12.06 95.7999C12.78 96.2599 13.58 96.7299 14.43 96.7499C16.65 96.7999 18.66 97.6499 20.76 98.1899C21.55 98.3899 22.49 98.6099 23.11 98.2199C24.02 97.6299 24.93 97.4399 25.95 97.3999C26.22 97.3899 26.56 97.3299 26.57 96.9499C26.59 96.5899 26.26 96.4499 26.01 96.4199C23.97 96.1899 22.69 94.7899 21.34 93.4599C20.13 92.2699 19.82 91.0099 20.62 89.4499C21.09 88.5399 21.46 87.4899 20.95 86.4899C19.98 84.5899 20.26 82.5799 20.36 80.6099C20.5 77.7799 20.3 75.0699 19.21 72.3799C17.51 68.2199 15.24 64.5499 11.43 62.0199C10.79 61.5999 10.61 61.1799 10.7 60.4899C11.19 56.8999 12.89 54.2099 16.28 52.6299L16.27 52.6399Z" fill="#FF9AF5"/>
<path d="M92.08 21.82C91.81 18.03 90.5 14.66 88.3 11.69C86.95 9.87998 85.23 8.28998 83.48 6.82998C79.43 3.45998 74.64 1.67998 69.49 0.779981C64.65 -0.0600192 59.82 -1.91927e-05 55.01 0.969981C54.38 1.09998 53.75 1.45998 53.22 1.85998C52.18 2.64998 51.14 3.46998 50.24 4.39998C49.05 5.62998 47.8 5.61998 46.21 5.30998C40.6 4.23998 35.54 5.30998 31.51 9.68998C31.28 9.93998 31 10.14 30.73 10.36C26.42 14.01 25.32 18.68 26.59 23.98C27 25.68 27.82 27.3 28.59 28.89C29.48 30.74 30.63 32.48 31.45 34.36C32.08 35.81 32.67 37.38 32.78 38.93C33.07 43.25 31.61 46.55 27.01 47.8C25.58 48.19 24.16 48.65 22.75 49.1C19.86 50.01 16.93 50.83 14.3 52.39C11.8 53.88 9.88997 55.82 9.34997 58.84C9.25997 59.37 8.99997 59.96 8.61997 60.33C7.44997 61.5 6.17997 62.56 4.97997 63.7C3.61997 64.99 2.20997 66.25 0.98997 67.67C0.10997 68.69 -0.29003 70.02 0.24997 71.37C1.21997 73.8 1.16997 76.25 0.70997 78.78C0.32997 80.89 0.18997 83.17 1.66997 84.87C3.78997 87.28 4.34997 90.49 6.30997 92.99C7.74997 94.81 9.18997 96.44 11.53 96.82C13.03 97.06 14.4 97.53 15.74 98.17C17.22 98.88 18.78 99.12 20.41 98.99C20.86 98.95 21.34 98.89 21.77 98.99C23.47 99.34 25.07 98.88 26.66 98.46C27.11 98.34 27.51 98 28.26 97.58C26.73 97.28 25.56 97.09 24.43 96.8C23.79 96.64 23.09 96.42 22.6 96C21.47 95.04 20.49 93.91 19.92 92.46C20.8 91.06 21.3 89.59 21 87.9C20.85 87.02 20.85 86.1 20.82 85.2C20.77 83.9 20.77 82.59 20.72 81.29C20.68 80.32 20.49 79.36 20.53 78.4C20.59 76.92 20.26 75.59 19.59 74.28C19.04 73.22 18.53 72.11 18.24 70.97C17.53 68.22 16.31 65.86 13.91 64.2C13.16 63.68 12.53 62.99 11.8 62.45C11.27 62.06 11.16 61.58 11.15 60.97C11.09 57.73 12.67 55.47 15.49 54.19C17.77 53.15 20.15 52.29 22.57 51.65C25.56 50.87 28.28 49.6 30.73 47.8C33.03 46.12 34.25 43.89 34.05 40.88C33.85 37.97 33.14 35.25 31.91 32.64C30.79 30.26 29.58 27.92 28.54 25.51C26.1 19.86 26.97 14.53 32.35 10.66C35.35 8.49998 38.84 7.59998 42.42 7.01998C43.76 6.79998 45.12 6.77998 46.48 6.65998C46.55 6.82998 46.63 6.99998 46.7 7.15998C46.28 7.52998 45.84 7.86998 45.46 8.26998C44.01 9.81998 42.59 11.37 42.3 13.63C42.21 14.29 41.85 14.92 41.6 15.56C40.05 19.51 39.39 23.57 39.99 27.82C40.45 31.08 41.55 34.15 42.9 37.1C45.41 42.55 49.35 46.62 54.98 48.91C57.85 50.08 60.83 50.89 63.9 51.26C65.93 51.5 68.02 51.71 70.03 51.46C74.44 50.92 78.28 48.95 81.77 46.2C86.88 42.17 90.07 36.98 91.5 30.69C92.16 27.78 92.29 24.84 92.08 21.84V21.82ZM0.96997 71.17C0.88997 71.17 0.80997 71.17 0.72997 71.17C0.72997 70.6 0.73997 70.04 0.74997 69.47C0.82997 69.47 0.90997 69.49 0.98997 69.5C0.98997 70.06 0.97997 70.61 0.96997 71.17ZM10.7 57.78C10.56 59.46 10.43 61.14 10.29 62.82C9.11997 61.04 10.11 59.4 10.7 57.78ZM8.79997 64.76C8.88997 64.53 9.23997 64.39 9.45997 64.21C9.60997 64.27 9.75997 64.32 9.90997 64.38C8.93997 67.07 10.38 69.21 11.4 71.39C12.17 73.03 12.42 74.57 11.84 76.33C11.12 78.53 11.04 80.81 11.52 83.1C11.98 85.31 13.06 87.2 14.77 88.61C15.81 89.47 16.24 90.96 17.72 91.36C17.9 91.41 17.92 92.06 18.09 92.68C17.59 92.47 17.3 92.39 17.06 92.24C14.03 90.34 12.13 87.55 10.74 84.33C10.1 82.86 10.06 81.34 10.26 79.79C10.35 79.11 10.46 78.43 10.55 77.75C10.89 75.18 10.68 72.72 9.03997 70.57C7.58997 68.68 8.06997 66.7 8.80997 64.74L8.79997 64.76ZM7.73997 75.14C7.80997 75.42 7.99997 75.68 8.14997 75.94C8.04997 74.67 7.93997 73.4 7.86997 72.13C7.82997 71.48 7.86997 70.83 7.88997 69.88C9.73997 72.38 10.58 74.75 10.05 77.62C9.66997 79.66 9.15997 81.8 10.04 83.87C10.66 85.34 11.39 86.77 12.09 88.2C12.39 88.81 12.76 89.39 13.09 89.99C14.21 90.87 15.3 91.77 16.45 92.6C16.89 92.92 17.44 93.14 17.97 93.26C18.59 93.39 18.63 93.74 18.54 94.44C16.23 93.8 14.08 93 12.38 91.33C10.48 89.47 9.13997 87.21 7.94997 84.85C7.83997 84.63 8.03997 84.24 8.13997 83.65C7.30997 82.77 7.14997 81.36 7.04997 79.84C6.89997 77.59 6.91997 75.27 5.80997 73.16C5.55997 72.68 5.46997 72.04 5.53997 71.5C5.78997 69.5 6.38997 67.62 7.83997 66.04C7.78997 66.31 7.75997 66.58 7.68997 66.85C6.93997 69.62 7.04997 72.39 7.73997 75.15V75.14ZM5.08997 73.65C6.20997 74.34 5.99997 75.61 5.94997 76.52C5.79997 79.43 6.48997 82.15 7.27997 84.88C7.30997 84.97 7.22997 85.09 7.11997 85.45C6.81997 84.79 6.54997 84.32 6.37997 83.82C5.65997 81.71 5.15997 79.58 5.28997 77.31C5.35997 76.09 5.15997 74.87 5.07997 73.64L5.08997 73.65ZM5.01997 73.44C3.89997 70.65 4.08997 69.36 6.10997 67.2C5.44997 69.4 4.72997 71.36 5.01997 73.44ZM4.39997 66.07C4.24997 66.85 3.54997 67.24 3.10997 67.82C2.67997 68.39 2.35997 69.03 1.98997 69.65C1.97997 67.86 3.02997 66.85 4.39997 66.08V66.07ZM1.61997 76.09L1.95997 76.05C2.03997 76.9 2.31997 77.79 2.14997 78.59C1.75997 80.44 2.01997 82.21 2.37997 84C2.43997 84.31 2.45997 84.62 2.49997 84.93C0.0499697 82.15 1.30997 79.08 1.60997 76.09H1.61997ZM2.28997 73.69C3.73997 75.91 3.90997 77.73 2.82997 79.74C2.64997 77.65 2.45997 75.54 2.28997 73.69ZM4.32997 81.54C4.36997 83.1 4.41997 84.66 4.38997 86.24C3.87997 85.27 2.92997 84.45 3.50997 83.17C2.89997 81.58 3.55997 80.17 4.08997 78.73C4.27997 78.21 4.36997 77.59 4.29997 77.05C4.02997 74.97 3.75997 72.89 3.33997 70.83C2.93997 68.86 2.95997 68.61 4.75997 67.3C5.02997 66.91 5.28997 66.52 5.55997 66.13C5.66997 66.77 5.37997 67.17 4.89997 67.43C3.57997 69.34 3.80997 71.36 4.36997 73.46C4.88997 75.39 5.07997 77.35 4.38997 79.33C4.15997 79.99 4.31997 80.8 4.32997 81.54ZM5.19997 81.53L5.64997 83.15C5.55997 83.17 5.46997 83.2 5.36997 83.22C5.22997 82.68 5.08997 82.13 4.94997 81.59C5.02997 81.57 5.11997 81.55 5.19997 81.52V81.53ZM5.31997 85.84C6.80997 87.24 6.78997 89.19 7.21997 90.97C6.27997 89.37 5.51997 87.71 5.31997 85.84ZM7.28997 91.12C7.33997 91.12 7.39997 91.1 7.40997 91.12C8.58997 92.67 9.75997 94.21 11.17 96.08C8.71997 94.99 7.65997 93.32 7.27997 91.12H7.28997ZM9.99997 90C9.89997 90.12 9.80997 90.24 9.70997 90.36C9.93997 90.9 10.18 91.45 10.49 92.18C8.38997 90.63 8.34997 89.45 8.12997 86.31C8.78997 87.34 9.31997 88.12 9.80997 88.93C11.38 91.52 13.53 93.37 16.44 94.32C16.99 94.5 17.87 94.43 17.76 95.49C17.75 95.62 18.42 95.81 18.77 95.98C19.36 96.25 19.95 96.53 20.54 96.8C15.48 96.97 12.22 94.3 9.98997 90.01L9.99997 90ZM26.44 97.75C22.6 98.76 19.2 98.87 15.84 97.7C15.84 97.52 15.82 97.35 15.82 97.17C16.28 97.17 16.74 97.1 17.19 97.16C17.98 97.26 18.75 97.53 19.54 97.57C20.34 97.61 21.31 98.26 21.91 97.13C23.31 97.14 24.74 96.87 26.45 97.76L26.44 97.75ZM22.21 96.69C21.66 96.57 21.31 96.5 20.9 96.41C21.32 96.1433 21.7566 96.2366 22.21 96.69ZM20.82 95.14C19.35 94.91 19.25 94.23 19.63 93.25C19.97 93.78 20.3 94.31 20.82 95.14ZM19.87 77.97C19.76 79.26 19.82 80.56 19.8 81.75C19.26 81.09 19.05 80.14 19.01 79.09C18.94 77.34 18.82 75.59 18.71 73.71C19.59 75.06 20 76.41 19.87 77.96V77.97ZM11.61 63.16C12.63 64.07 13.7 64.93 14.65 65.91C16.35 67.68 17.51 69.7 17.62 72.28C17.72 74.55 18.03 76.82 18.3 79.08C18.39 79.81 18.63 80.52 18.84 81.23C19.01 81.81 19.24 82.38 19.31 83C18.23 81.91 17.65 80.56 17.4 79.13C17.08 77.29 16.66 75.45 16.79 73.54C16.97 70.83 16.08 68.48 14.18 66.52C13.46 65.78 12.76 65.03 12.06 64.27C11.81 63.99 11.6 63.67 11.38 63.37C11.45 63.3 11.52 63.22 11.59 63.15L11.61 63.16ZM11.68 64.62C14.4 67.37 16.64 70.4 16.14 74.56C15.79 77.49 16.7 80.04 18.03 82.55C18.84 84.09 19.55 85.68 20.2 87.29C20.73 88.59 20.77 89.93 19.8 91.21C20.1 87.24 18.12 84.19 15.99 81.19C16.43 82.29 16.88 83.38 17.32 84.48C17.27 84.5 17.23 84.52 17.18 84.54C16.52 83.76 15.86 82.97 15.2 82.19C15.87 83.37 16.48 84.58 17.22 85.72C18.45 87.6 18.89 89.66 18.93 92.17C18.66 91.8 18.53 91.68 18.46 91.52C18.37 91.31 18.3 91.09 18.29 90.87C18.18 88.24 16.92 86.1 15.41 84.07C14.85 83.31 14.18 82.57 14.26 81.26C14.69 81.69 14.98 81.97 15.26 82.24C15.05 81.69 14.81 81.14 14.63 80.58C14.49 80.15 14.4 79.69 14.23 79.02C14.75 79.18 14.99 79.25 15.24 79.32C14.73 77.95 14.22 76.57 13.68 75.12C13.1 77.13 12.26 79.14 13.21 81.34C14.02 83.23 14.87 85.09 16.34 86.6C17.28 87.57 17.28 88.84 16.96 90.22C15.98 88.65 15 87.08 13.96 85.39C14.01 85.92 14.06 86.37 14.13 87.09C12.48 85.13 11.97 83 11.97 80.81C11.97 79.18 12.28 77.52 12.67 75.92C13.01 74.52 12.99 73.23 12.4 71.92C11.79 70.57 11.16 69.21 10.71 67.81C10.44 66.97 10.4 66.02 10.44 65.13C10.48 64.26 11.11 64.02 11.69 64.61L11.68 64.62ZM12.22 55.49C12.22 55.49 12.14 55.55 12.1 55.58C12.07 55.54 12.04 55.49 11.89 55.28C12.17 55.08 12.47 54.86 12.77 54.64C12.81 54.67 12.85 54.7 12.89 54.73C12.67 54.98 12.44 55.24 12.22 55.49ZM15.75 53.05C15.5 53.13 15.25 53.21 14.96 53.16C18.04 51.44 21.33 50.34 24.8 49.79C24.31 50.03 23.83 50.3 23.32 50.48C20.8 51.36 18.28 52.2 15.75 53.06V53.05ZM25.11 49.68C25.43 49.49 25.76 49.31 26.08 49.12C26.12 49.22 26.16 49.33 26.19 49.43C25.83 49.51 25.47 49.59 25.11 49.68ZM80.18 8.79998C80.1 13.39 78.67 17.55 76.27 21.41C72.75 27.07 67.94 31.29 61.78 33.8C57.66 35.48 53.39 36.85 48.9 37.22C48.62 37.24 48.34 37.22 47.69 37.21C48.37 36.96 48.71 36.77 49.07 36.71C51.54 36.33 53.81 35.42 55.91 34.09C59.34 31.93 62.76 29.74 66.17 27.54C70.63 24.67 73.58 20.65 75.26 15.64C76.32 12.49 77.36 9.34998 77.48 5.98998C77.5 5.54998 77.5 5.11998 77.51 4.67998C79.67 5.20998 80.23 6.78998 80.19 8.78998L80.18 8.79998ZM46.93 8.71998C47.41 8.16998 47.99 7.70998 48.59 7.13998C49.17 7.58998 49.66 7.96998 50.26 8.43998C50.56 8.20998 50.88 7.94998 51.29 7.62998C50.82 7.05998 50.44 6.58998 49.98 6.02998C50.86 5.14998 51.7 4.25998 53.1 4.24998C54.47 4.24998 55.39 5.23998 55.1 6.56998C54.97 7.16998 54.7 7.77998 54.35 8.27998C53.05 10.12 51.22 11.24 49.1 11.92C48.94 11.97 48.76 11.98 48.59 11.99C47.68 12.02 46.83 11.81 46.43 10.92C46.07 10.12 46.39 9.34998 46.93 8.72998V8.71998ZM45.33 10.81C46.09 11.37 46.76 12.17 47.58 12.39C48.38 12.61 49.39 12.38 50.23 12.11C51.83 11.59 53.16 10.58 54.35 9.38998C56.8 6.93998 56.67 4.90998 53.94 2.93998C55.06 1.71998 55.89 1.51998 58.85 1.78998C59.62 3.97998 59.85 6.14998 58.81 8.38998C57.6 11.01 55.73 13.07 53.51 14.81C52.87 15.31 51.96 15.67 51.15 15.73C48.76 15.89 46.36 15.87 43.97 15.89C43.65 15.89 43.33 15.7 42.9 15.57C43.19 13.71 44.08 12.03 45.33 10.8V10.81ZM42.57 16.26C44.77 17.23 47.11 17.13 49.43 16.96C51.82 16.78 53.98 16.05 55.69 14.19C57.29 12.45 58.72 10.66 59.65 8.44998C60.61 6.15998 60.23 3.91998 59.43 1.37998C61.54 2.80998 62.21 4.46998 61.73 6.44998C61.15 8.82998 60 10.94 58.37 12.73C55.09 16.32 51.1 18.6 46.13 18.79C45.12 18.83 44.07 18.64 43.1 18.36C41.88 18 41.85 17.72 42.56 16.27L42.57 16.26ZM40.91 22.99C41.13 21.71 41.26 20.41 41.45 18.93C43.22 19.82 44.82 20.23 46.57 20.18C48.93 20.11 51.07 19.38 53.11 18.32C57.6 15.99 60.92 12.56 62.58 7.70998C63.28 5.64998 63.51 3.56998 61.79 1.43998C63.09 1.45998 64.12 1.41998 65.14 1.49998C66.33 1.58998 67.51 1.77998 68.8 1.93998C68.85 2.37998 68.95 2.75998 68.92 3.12998C68.51 8.02998 67.11 12.56 63.68 16.24C61.55 18.53 58.97 20.28 56.09 21.45C53.02 22.7 49.86 23.71 46.7 24.71C45.16 25.2 43.55 25.16 41.98 24.62C41.17 24.34 40.75 23.91 40.91 22.97V22.99ZM42.39 25.64C43.69 25.74 45.06 26.06 46.27 25.76C50.98 24.59 55.62 23.19 59.84 20.68C65.31 17.42 68.27 12.5 69.5 6.39998C69.75 5.13998 69.89 3.86998 70.15 2.18998C70.84 3.66998 71.01 4.86998 70.89 6.09998C70.51 9.91998 69.42 13.55 67.08 16.6C62.66 22.36 56.88 26.2 49.76 27.82C47.95 28.23 46.03 28.34 44.16 28.3C42.19 28.26 41.29 27.23 41.12 25.21C41.58 25.38 41.97 25.62 42.38 25.65L42.39 25.64ZM43.83 36.14C42.98 33.83 42.11 31.45 41.13 28.78C45.61 30.55 49.62 29.5 53.54 28.11C58.64 26.3 62.94 23.23 66.61 19.26C69.54 16.09 71.08 12.26 71.84 8.07998C72.4 5.00998 72.35 4.99998 71.69 2.59998C73.77 3.09998 75.69 3.61998 77.44 4.65998H77.46C77.22 5.37998 76.9 6.08998 76.78 6.83998C76.1 10.81 74.83 14.59 73.17 18.24C71.58 21.75 69.17 24.62 65.89 26.7C62.27 28.99 58.67 31.31 55 33.51C51.44 35.64 48.68 36.23 43.82 36.12L43.83 36.14ZM47.48 41.8C46.58 40.65 45.79 39.41 44.82 38.01C53.5 39.81 68.51 33.92 74.79 26.01C78.52 21.31 80.91 16.15 81.45 10.16C81.53 9.27998 81.48 8.38998 81.5 7.13998C82.33 7.79998 82.9 8.23998 83.46 8.68998C83.99 9.11998 84.13 9.64998 84.12 10.34C84.08 14.65 82.7 18.47 80.24 22.01C77.28 26.27 73.96 30.16 69.67 33.12C68.03 34.25 66.29 35.26 64.52 36.18C61.28 37.86 58 39.47 54.69 41.02C52.81 41.9 50.77 42.26 48.69 42.21C48.28 42.2 47.71 42.08 47.49 41.8H47.48ZM48.97 43.24C49.08 43.11 49.14 42.96 49.21 42.96C52.03 43.01 54.63 42.18 57.1 40.93C61.43 38.74 65.97 36.93 69.95 34.11C75.51 30.17 79.77 25.07 82.82 18.99C84.16 16.32 84.87 13.45 84.82 10.42C84.97 10.42 85.12 10.42 85.27 10.42C85.38 11.01 85.53 11.6 85.6 12.19C86.02 15.8 85.39 19.22 83.84 22.52C80.94 28.7 76.54 33.49 70.81 37.16C66.29 40.05 61.39 42.01 56.34 43.69C54.45 44.32 52.51 44.24 50.57 44.27C49.81 44.28 49.31 43.88 48.99 43.23L48.97 43.24ZM57.72 48.45C55.97 47.76 54.27 46.96 52.56 46.18C52.45 46.13 52.4 45.92 52.38 45.87C62.83 43.87 71.95 39.46 79.26 31.6C82.88 27.71 85.52 23.28 86.55 18.04C86.9 16.23 86.81 14.32 86.93 12.38C88.2 13.76 88.88 15.5 89.61 17.21C89.65 17.31 89.65 17.44 89.61 17.54C88.59 20.85 88.12 24.34 86.02 27.28C84.46 29.46 83.06 31.77 81.66 34.06C79.43 37.69 76.26 40.35 72.93 42.92C68.9 46.02 64.16 47.24 59.39 48.44C58.86 48.57 58.2 48.64 57.72 48.45ZM76.53 47.84C77.29 47.12 77.82 46.65 78.32 46.14C80.49 43.95 82.65 41.75 84.83 39.57C86.85 37.55 88.22 35.14 89.11 32.44C89.34 31.74 89.61 31.06 89.91 30.23C90.58 35.34 82.86 45.59 76.53 47.83V47.84ZM89.86 27.96C89.21 29.22 88.81 30.61 88.35 31.96C87.46 34.55 86.01 36.75 84.03 38.65C81.97 40.62 80.07 42.77 78.04 44.77C76.82 45.97 75.5 47.07 74.17 48.14C72.08 49.81 69.7 50.56 67 50.36C65.02 50.21 63.08 49.98 61.16 49.12C62.35 48.79 63.54 48.46 64.72 48.13C72.42 46.01 78.16 41.3 82.48 34.71C84.2 32.08 85.88 29.43 87.49 26.73C88.87 24.43 90.22 22.08 90.13 19.15C90.25 19.46 90.44 19.76 90.49 20.08C90.84 22.74 91.21 25.38 89.88 27.95L89.86 27.96Z" fill="#332608"/>
<path d="M11.21 65.1799C12.24 67.4099 13.23 69.5499 14.22 71.6899C13.63 69.3599 13.19 66.9499 11.21 65.1799Z" fill="#332608"/>
<path d="M8.11994 80.6999C8.11994 81.0099 8.32994 81.3099 8.52994 81.8399C8.71994 79.2899 8.88994 77.0499 9.05994 74.8199C8.75994 75.2299 8.46994 75.6099 8.17994 75.9999C8.18994 76.6599 8.21994 77.3199 8.20994 77.9799C8.18994 78.8899 8.10994 79.7899 8.11994 80.6999Z" fill="#332608"/>
<path d="M8.17995 75.9999C8.17995 75.9999 8.15995 75.9599 8.13995 75.9399C8.13995 75.9699 8.13995 76.0099 8.13995 76.0399C8.13995 76.0299 8.15995 76.0199 8.16995 75.9999H8.17995Z" fill="#332608"/>
<path d="M11.58 88.49C11.06 87.8 10.68 87 10.24 86.25C10.13 86.31 10.03 86.38 9.91998 86.44C10.36 87.68 11.05 88.79 12.01 89.73C12.24 89.95 12.72 89.91 13.08 89.98C12.57 89.49 11.99 89.05 11.57 88.49H11.58Z" fill="#332608"/>
</g>
<defs>
<clipPath id="clip0_1_283">
<rect width="92.18" height="99.1" fill="white"/>
</clipPath>
</defs>
</svg>
