<svg width="120" height="91" viewBox="0 0 120 91" fill="none" xmlns="http://www.w3.org/2000/svg">
<g clip-path="url(#clip0_1_292)">
<path d="M117.58 48.04C116.79 47.2 115.14 47.12 114.36 48.04C104.5 59.68 90.47 66.76 75.21 67.51C72.93 67.62 72.43 70.22 73.7 71.44C72.8 72.22 71.9 73.01 70.99 73.78C69.69 73.9 68.38 74 67.06 74.05C65.01 74.14 64.4 76.4 65.23 77.7C64.53 78 63.81 78.26 63.06 78.46C59.41 79.47 54.91 78.93 52.05 76.41C51.93 75.72 51.46 75.07 50.58 74.69C50.32 74.29 50.08 73.87 49.89 73.4C49.15 71.59 46.89 71.52 45.86 72.54C45.66 71.8 45.17 71.11 44.4 70.79C40.87 69.31 37.52 67.36 34.57 64.91C33.46 63.98 32.5 62.85 31.55 61.71C31.4 61.19 31.07 60.75 30.55 60.51C29.76 59.58 28.95 58.69 28.04 57.97C26.28 56.57 23.28 56.62 21.08 56.41C17.87 56.11 14.66 56.06 11.45 56.17C11.7 55.47 11.59 54.67 10.84 54.01C7.41 51.01 3.07999 51.6 0.339995 55.15C-0.590005 56.35 0.439995 58.13 1.69999 58.49C3.51999 59.01 5.34999 59.5 7.17999 59.99C7.43999 60.32 7.81999 60.6 8.33 60.75C12.45 62.02 16.6 63 20.82 63.72C20.86 64.19 21.05 64.66 21.45 65.07C26.35 69.99 32.29 73.19 38.9 74.58C39.71 74.96 40.53 75.33 41.35 75.7C41.39 75.94 41.47 76.18 41.6 76.4C44.23 80.83 49.76 91.61 56.23 90.63C57.57 90.9 59 90.87 60.35 90.61C64.18 89.88 66.92 87.52 69.27 84.54C70.91 82.47 72.33 80.63 73.94 79.18C79.48 78.78 84.78 77.51 89.77 75.34C91.84 75.09 93.9 74.67 96 73.88C100.75 72.1 105.02 69.32 109.08 66.3C114.41 62.33 124.4 55.27 117.57 48.03L117.58 48.04ZM59.51 83.52C58.48 84.49 57.34 85.51 56.47 85.71C56.45 85.71 56.44 85.71 56.42 85.71C56.34 85.69 56.25 85.67 56.17 85.65C56.45 85.12 56.51 84.45 56.41 83.87C56.37 83.62 56.31 83.4 56.24 83.2C57.3 83.41 58.4 83.51 59.51 83.51V83.52Z" fill="#B404A2"/>
<path d="M113.69 38.7C112.07 35.65 111.95 32.34 112.5 28.98C112.87 26.71 113.05 24.43 112.73 22.12C112.48 20.34 111.84 18.78 110.88 17.27C109.92 15.76 109.29 14.07 107.8 12.87C105 10.63 101.96 8.80001 98.74 7.28001C95.98 5.98001 93.09 5.01001 90.16 4.17001C86.74 3.19001 83.29 2.35001 79.74 2.03001C77.87 1.86001 76.14 1.11001 74.29 0.840007C71.55 0.450007 68.81 0.300007 66.05 0.160007C63.11 0.0100072 60.18 -0.0799928 57.24 0.0700072C54.82 0.190007 52.41 0.370007 50 0.670007C46.73 1.09001 43.64 2.19001 40.58 3.32001C35.94 5.03001 31.82 7.59001 28.14 10.97C26.15 12.8 24.61 14.9 23.02 17.01C22.17 18.15 21.84 19.59 21.59 20.97C20.79 25.4 19.99 29.85 19.55 34.33C19.39 35.91 19.14 37.43 18.74 38.96C18.55 39.69 18.23 40.12 17.57 40.47C14.94 41.89 12.28 43.27 9.92001 45.15C8.42001 46.34 6.93001 47.56 5.46001 48.79C4.77001 49.37 4.20001 50.08 3.61001 50.77C1.96001 52.72 3.03001 54.51 5.02001 55.29C6.11001 55.72 7.29001 55.99 8.46001 56.17C10.25 56.45 11.99 56.89 13.76 57.23C16.02 57.66 18.35 57.87 20.66 57.69C21.55 57.62 22.08 57.87 22.67 58.55C24.75 60.96 27.26 62.8 30.11 64.31C33.61 66.17 37.22 67.73 40.88 69.23C42.14 69.75 43.43 70.12 44.78 70.31C45.59 70.42 46.16 70.84 46.77 71.43C48.38 72.99 49.39 74.92 50.55 76.78C51.94 79.01 53.81 80.79 56.04 82.18C56.67 82.57 57.45 82.78 58.15 82.69C60.26 82.44 62.45 82.52 64.36 81.3C65.59 80.52 67.01 80.13 68.28 79.36C70.29 78.16 71.98 76.58 73.86 75.25C75.84 73.85 77.73 72.34 79.64 70.85C80.75 69.98 82.11 70.08 83.36 69.93C85.88 69.64 88.42 69.38 90.92 69.03C93.26 68.7 95.59 68.03 97.84 67.02C101.41 65.41 104.4 63.07 107.22 60.47C109.76 58.13 111.85 55.37 113.57 52.4C114.43 50.91 114.82 49.14 115.43 47.51C115.65 46.93 115.89 46.36 116.12 45.78C116.12 45.33 116.12 44.87 116.13 44.42C115.48 42.43 114.66 40.53 113.68 38.67L113.69 38.7Z" fill="#FF9AF5"/>
<path d="M115.25 42.87C113.78 40.34 113.05 37.56 113.05 34.62C113.05 30.89 113.07 27.16 113.02 23.44C112.98 20 111.56 17.17 109.29 14.61C106.2 11.14 102.41 8.71995 98.17 7.07995C94.71 5.73995 91.11 4.71995 87.52 3.75995C78.5 1.34995 69.28 0.719953 58.34 0.809953C56.54 0.949953 53.09 1.09995 49.68 1.52995C39.72 2.76995 31.37 7.31995 24.3 14.32C22.18 16.42 20.57 18.92 19.98 21.87C19.61 23.73 19.55 25.68 19.54 27.59C19.52 31 19.03 34.34 18.37 37.67C18.03 39.4 17.16 40.66 15.36 41.42C11.28 43.14 7.51999 45.44 4.36999 48.62C3.24999 49.75 2.17999 50.91 1.69999 52.48C1.10999 54.4 1.58 55.51 3.37999 56.32C3.83999 56.53 4.33 56.69 4.8 56.86C9.05 58.35 13.44 59.2 17.93 59.13C19.84 59.1 21.2 59.81 22.41 61.05C25.39 64.08 28.99 66.16 32.74 68.04C36.8 70.07 41.15 71.33 45.44 72.69C46.39 72.99 46.96 73.49 47.43 74.32C49.14 77.27 51.11 79.98 53.82 82.15C55.25 83.29 56.72 83.83 58.49 83.67C59.22 83.6 59.96 83.54 60.67 83.39C64.38 82.59 67.65 80.86 70.74 78.72C73.31 76.94 75.58 74.84 77.74 72.59C78.17 72.14 78.56 71.74 79.28 71.7C81.87 71.5499 84.46 71.36 87.04 71.08C96.61 70.05 104.71 66.17 110.76 58.53C112.87 55.86 114.62 52.96 115.08 49.46C115.14 49.02 115.29 48.57 115.5 48.18C116.45 46.36 116.28 44.65 115.25 42.88V42.87ZM114.36 47.93C113.43 46.72 112.54 45.55 111.65 44.38C111.56 44.44 111.47 44.5 111.39 44.56C112.1 45.67 112.84 46.77 113.51 47.91C114.4 49.43 114.26 50.3 113.02 51.8C112.49 50.48 111.97 49.14 111.41 47.81C111.31 47.58 111.08 47.41 110.7 46.97C111.13 48.68 111.49 50.09 111.83 51.5C112.47 54.18 111.31 56.18 109.28 58.12C109.1 56.24 108.94 54.57 108.78 52.89C108.73 52.89 108.68 52.91 108.64 52.92C108.64 54.15 108.63 55.39 108.64 56.62C108.66 58.26 108.18 59.59 106.93 60.81C101.95 65.7 95.9 68.37 89.16 69.69C87.55 70 85.92 70.18 84.3 70.38C83.76 70.45 83.19 70.39 82.6 70.39C82.32 68.33 81.71 66.46 80.37 64.9C81 66.72 82.16 68.41 81.71 70.64H78.6C77.95 69.38 77.31 68.15 76.66 66.92C76.54 66.97 76.42 67.02 76.3 67.06C76.73 68.53 77.95 69.84 77.27 71.92C76.85 70.74 76.54 69.86 76.23 68.99C76.14 69 76.06 69.02 75.97 69.03C76.04 69.91 76.08 70.8 76.17 71.68C76.24 72.36 76.03 72.86 75.49 73.3C72.57 75.71 69.72 78.22 66.33 79.97C64.17 81.08 61.92 81.98 59.51 82.44C57.37 82.84 55.59 82.41 53.85 81.01C51.41 79.05 49.69 76.56 48.09 73.97C47.74 73.4 47.72 72.58 47.73 71.87C47.73 71.1 47.95 70.33 48.07 69.55C47.6367 69.9433 47.1967 70.8 46.75 72.12C45.67 71.68 44.6 71.24 43.45 70.77C44.4 68.0099 45.78 65.66 47.36 63.4C45 65.18 43.86 67.8 42.62 70.48C35.81 68.32 29.47 65.51 24.06 60.71C24.35 60.13 24.59 59.65 24.84 59.17C24.8 59.12 24.76 59.06 24.72 59.01C24.35 59.33 23.99 59.64 23.54 60.03C22.87 59.53 22.25 59.06 21.61 58.58C26.09 54.37 25.68 49.33 24.35 44.13C24.27 43.81 24.09 43.51 23.95 43.2C23.85 42.99 23.73 42.8 23.63 42.6C23.52 42.67 23.42 42.73 23.31 42.8C23.36 43.07 23.37 43.35 23.45 43.61C24.5 46.81 24.56 50.05 23.75 53.3C23.29 55.17 22.35 56.75 20.59 57.72C20.39 57.83 20.18 57.91 19.97 57.97C19.88 57.99 19.77 57.92 19.61 57.87C20.26 56.35 20.9 54.83 21.55 53.31C21.47 53.27 21.39 53.24 21.31 53.2C20.57 54.55 19.84 55.89 19.09 57.24C18.76 57.83 18.3 58.14 17.58 58.09C13.4 57.8 9.27 57.24 5.3 55.83C4.98 55.72 4.66 55.61 4.34 55.49C2.67 54.82 2.24999 53.94 3.10999 52.33C3.67999 51.25 4.49 50.27 5.32999 49.37C7.87999 46.65 11.1 44.87 14.36 43.16C16.14 42.22 17.93 41.29 19.8 40.31C19.43 40.2 19.12 40.12 18.81 40.03C19.34 37.27 20.6 36.8 23.4 38.3C22.77 37.02 22.19 36.8 19.63 36.95C19.78 35.88 19.98 34.85 20.06 33.8C20.31 30.59 20.55 27.39 20.73 24.17C20.9 21.22 22.15 18.77 24.17 16.64C24.05 16.99 23.96 17.35 23.81 17.68C22.63 20.36 23.01 22.86 24.65 25.22C26.16 27.4 28.17 29.07 30.38 30.45C34.24 32.86 38.43 34.54 42.83 35.67C42.99 35.71 43.16 35.67 43.6 35.67C41.64 34.9 39.87 34.29 38.19 33.52C36.09 32.55 34.07 31.42 31.99 30.4C31.01 29.92 30.76 29.21 30.9 28.2C31.24 25.84 32.18 23.76 33.77 21.99C35.79 19.74 38.37 18.35 41.11 17.26C46.49 15.12 52.09 13.74 57.77 12.76C62.05 12.03 66.38 11.41 70.7 11.19C79.79 10.73 88.5 12.25 96.38 17.14C98.86 18.68 100.72 20.81 101.32 23.74C101.56 24.92 101.37 26.19 101.27 27.41C101.25 27.72 100.91 28.13 100.6 28.29C97.97 29.7 95.31 31.06 92.66 32.44L92.7 32.41C92.7 32.41 92.7 32.41 92.69 32.41C92.69 32.41 92.69 32.42 92.68 32.43C89.3 34.03 85.71 34.95 82.09 35.78C77.51 36.83 72.86 37.31 68.16 37.61C62.21 37.99 56.31 37.65 50.42 36.87C49.48 36.75 48.53 36.73 47.58 36.66C47.55 36.66 47.52 36.73 47.36 36.94C47.92 37.11 48.4 37.32 48.91 37.4C51.26 37.74 53.6 38.12 55.96 38.34C65.84 39.27 75.6 38.54 85.21 36.06C90.99 34.56 96.45 32.28 101.48 29.05C103.15 27.98 104.68 26.74 105.89 25.13C107.11 23.49 107.42 21.64 107.26 19.67C107.24 19.42 107.07 19.17 106.92 18.78C106.62 20.13 106.44 21.32 106.08 22.45C105.73 23.56 105.16 24.58 104.01 25.55C105.41 20.99 103.73 17.82 100.37 15.28C97.3 12.95 93.77 11.58 90.16 10.43C84.11 8.48995 77.93 7.23995 71.54 7.14995C65.92 7.06995 60.37 7.64995 54.87 8.74995C49.15 9.88995 43.51 11.33 38.22 13.83C36.04 14.86 33.9 16.07 31.94 17.48C28.98 19.61 27 22.43 27.21 26.35C24.83 25.08 23.29 21.01 24.42 18.38C25.53 15.78 26.98 13.42 29.19 11.68C33.71 8.11995 38.7 5.41995 44.29 3.86995C48.9 2.59995 53.62 2.25995 58.37 2.08995C64.37 1.87995 70.33 2.33995 76.29 2.90995C77.74 3.04995 79.17 3.42995 80.6 3.78995C73.97 3.43995 67.34 2.90995 60.72 3.87995C62.01 3.87995 63.3 3.92995 64.59 3.87995C75.41 3.43995 86.03 4.72995 96.38 7.87995C101.73 9.50995 106.28 12.56 109.63 17.15C111.07 19.12 111.68 21.42 111.7 23.85C111.73 27.3 111.7 30.74 111.73 34.19C111.76 37.65 112.6 40.89 114.33 43.9C115.29 45.58 115.27 46.1 114.38 47.94L114.36 47.93ZM96.85 16.58C92.31 13.58 87.21 11.94 81.86 11.04C75.85 10.03 69.83 10.18 63.79 10.92C56.81 11.77 50.01 13.39 43.32 15.47C40.46 16.36 37.69 17.51 35.24 19.3C32.47 21.33 30.68 23.96 30.15 27.39C30.12 27.61 30.08 27.84 30.04 28.06C30.01 28.28 29.98 28.49 29.94 28.78C28.79 28.52 28.35 27.84 28.23 26.76C27.88 23.79 29.11 21.47 31.17 19.51C33.19 17.58 35.6 16.21 38.13 15.04C42.09 13.2 46.23 11.9 50.46 10.85C58.18 8.92995 66 7.92995 73.96 8.28995C79.53 8.53995 84.91 9.73995 90.19 11.5C93.8 12.7 97.3 14.08 100.32 16.48C102.03 17.84 103.11 19.56 103.48 21.72C103.79 23.55 103.18 25.13 102.17 26.62C102.62 22.06 100.37 18.91 96.85 16.58Z" fill="#332608"/>
<path d="M62.21 43.31C56.36 43.5 50.58 42.82 44.81 41.97C47.39 43.56 56.55 44.44 67.69 43.89C77.75 43.39 87.64 41.86 96.84 37.36C91.3 39.24 85.67 40.71 79.89 41.68C74.03 42.66 68.13 43.11 62.2 43.31H62.21Z" fill="#332608"/>
<path d="M58.06 29.67C63.79 28.96 69.55 28.88 75.31 29.02C76.49 29.05 77.67 29.02 78.85 29.02C78.71 28.8 78.56 28.72 78.41 28.7C69.02 27.83 59.7 28.06 50.48 30.22C47.9 30.82 45.3 31.41 42.96 32.73C42.36 33.07 41.85 33.55 41.3 33.96C41.37 34.01 41.44 34.06 41.51 34.11C43.05 33.44 44.56 32.64 46.15 32.13C50.03 30.89 54.02 30.16 58.06 29.66V29.67Z" fill="#332608"/>
<path d="M46.74 69.0499C48.93 66.0899 51.55 63.5899 54.68 61.6799C57.85 59.7399 61.35 58.7599 65.01 58.2599C59.37 56.8799 49.28 62.7699 46.74 69.0499Z" fill="#332608"/>
<path d="M22.22 28.7799C22.23 29.2499 22.3 29.6399 22.49 29.9599C23.96 32.3199 25.67 34.4699 27.89 36.1899C31.35 38.8899 35.45 40.1099 39.61 41.2899C32.7 38.6799 26.18 35.5399 22.22 28.7799Z" fill="#332608"/>
<path d="M57.2 3.7699C50.48 4.1999 38.94 7.0099 33.3 11.5999C40.72 7.3199 48.91 5.3799 57.2 3.7699Z" fill="#332608"/>
<path d="M68.09 59.2299C69.79 60.2699 71.57 61.2099 73.18 62.3699C74.84 63.5599 76.33 64.9799 78.04 66.4099C76.39 63.0199 70.59 58.8999 68.09 59.2299Z" fill="#332608"/>
<path d="M92.17 31.3299C90.27 30.2899 88.21 29.7499 86.11 29.3399C84.55 29.0299 83 28.5899 81.35 28.9299C85.18 29.9299 89.13 30.4799 92.66 32.4199C93.12 31.7999 92.63 31.5899 92.17 31.3399V31.3299Z" fill="#332608"/>
<path d="M100.84 33.79C104.58 32.23 108.38 28.89 109.02 26.98C106.52 29.07 103.77 31.35 100.84 33.79Z" fill="#332608"/>
<path d="M109.67 39.8799V31.3099C109.55 31.3099 109.44 31.3199 109.32 31.3299C108.65 34.1699 108.75 36.9799 109.67 39.8899V39.8799Z" fill="#332608"/>
<path d="M26.68 51.05C27.17 48.79 27.68 46.45 26.39 44.22C26.49 46.5 26.59 48.77 26.68 51.05Z" fill="#332608"/>
</g>
<defs>
<clipPath id="clip0_1_292">
<rect width="119.89" height="90.82" fill="white"/>
</clipPath>
</defs>
</svg>
