<svg width="35" height="56" viewBox="0 0 35 56" fill="none" xmlns="http://www.w3.org/2000/svg">
<g clip-path="url(#clip0_1_308)">
<path d="M28.5423 23.4958C27.7288 22.656 26.8752 21.6961 25.7504 21.2462C22.9483 20.1264 20.066 19.2766 17.023 19.2066C15.0947 19.1666 14.4218 18.5067 14.8436 16.677C15.3558 14.4774 15.9383 12.2878 16.6614 10.1582C17.1636 8.69846 17.1133 7.44868 16.2095 6.2089C15.8178 5.679 15.406 5.15909 15.2755 4.46921C14.8737 2.2796 13.6686 1.11981 11.3587 0.589907C7.33142 -0.319931 3.20373 2.36959 2.91248 6.46886C2.802 7.98859 2.85222 9.50832 2.99282 11.048C3.15351 12.7577 3.66571 14.2475 4.68005 15.6472C5.45337 16.727 6.13629 17.8768 7.09038 18.8167C8.0043 19.7165 8.35581 20.8863 8.35581 22.0661C8.35581 23.1159 7.4218 23.5758 6.54806 23.9957C6.26685 24.1357 6.08608 24.4656 5.85509 24.6956C4.3185 26.1953 3.13342 27.975 1.80774 29.6447C0.933999 30.7445 0.562406 32.0543 0.482062 33.524C0.341459 36.1236 0.823525 38.6831 0.652793 41.2826C0.582492 42.4224 1.01434 43.5022 1.59684 44.5021C3.3142 47.4415 5.08178 50.331 8.05452 52.2407C8.43615 52.4906 8.76757 52.8506 9.05882 53.2005C10.0832 54.4503 11.429 55.1202 12.9857 55.4001C15.5868 55.88 18.1679 55.7901 20.4476 55.1902C22.0846 54.5603 23.4304 53.9804 24.8264 53.5105C27.2267 52.7006 28.8737 50.9209 30.3099 49.0513C31.6356 47.3216 32.5696 45.2819 33.4433 43.2623C33.8953 42.2225 34.2367 41.1527 34.5983 40.0829C35.0402 38.8031 34.4376 37.5933 34.307 36.3535C34.1363 34.7038 34.2166 32.9841 33.7245 31.4344C32.7403 28.3549 30.7618 25.7954 28.5222 23.4858L28.5423 23.4958ZM12.0617 14.7874C12.0717 15.1773 12.142 15.6672 11.7805 15.8872C11.1076 16.2971 10.3945 16.657 9.6614 16.907C9.37015 17.007 9.11908 16.5771 8.95839 16.2871C7.98422 14.5574 7.09038 12.7877 6.3472 10.9381C6.11621 9.5683 5.80487 8.20855 5.91535 6.8088C6.05595 5.0891 7.47202 3.89932 9.16929 3.9893C9.5911 4.0093 9.94261 4.18926 10.2037 4.50921C10.9369 5.37905 11.6399 6.35888 11.7403 7.45868C11.9713 9.88825 11.9813 12.3378 12.0717 14.7874H12.0617Z" fill="#FF9AF5"/>
<path d="M18.5194 19.0067C17.6758 18.9667 16.5007 19.1866 16.089 18.7367C15.5667 18.1668 15.6671 17.027 15.5065 16.1372C15.5065 16.1372 15.4964 16.1572 15.4864 16.1672C17.726 11.9179 17.8364 7.5687 15.8479 3.23947C14.8034 0.959879 12.7848 -0.0299442 10.2941 5.04389e-05C6.30703 0.0400433 2.67145 3.73938 2.60115 7.07879C2.50072 11.608 3.98709 15.5673 6.8594 19.0067C7.60258 19.8965 8.32568 20.7164 8.31564 22.0261C7.55237 22.786 6.77906 23.6058 5.94548 24.3657C2.41033 27.5751 0.703015 31.6044 0.130562 36.2836C-1.27546 47.8015 9.13917 58.2996 21.8537 55.5601C28.7231 54.0804 32.4892 49.2812 34.3773 42.8724C35.4921 39.0731 34.9598 35.2738 34.0057 31.4544C32.3185 24.7156 25.6399 19.3766 18.5194 19.0067ZM30.9527 27.7051C24.1334 26.9552 17.8465 28.015 11.7905 30.8245C10.8063 28.495 11.3185 26.3953 12.0416 24.3357C12.142 24.0358 12.5839 23.7358 12.9154 23.6558C14.7834 23.2059 15.9283 22.0461 16.3702 20.2664C22.2453 19.2666 28.6428 23.2759 30.9527 27.7051ZM9.90244 3.90935C12.3228 3.92935 13.4878 4.90917 13.6987 6.96881C14 9.94827 13.5682 12.8977 12.9857 15.8372C12.7848 13.4277 12.5638 11.0281 12.3831 8.61851C12.2425 6.83883 11.7504 5.23912 9.90244 3.90935ZM10.726 5.83901C10.967 6.22894 11.1578 6.66886 11.2583 7.11878C11.8508 9.90828 12.1722 12.7278 11.8207 15.7472C11.1076 16.0672 10.5151 16.3271 9.85223 16.6271C8.20517 14.0975 7.35151 11.408 7.12052 8.54852C7.05022 7.67868 7.30129 6.67886 7.70302 5.889C8.52654 4.30928 9.81205 4.32928 10.726 5.83901ZM10.9268 19.6965C10.8565 18.8667 10.5352 18.0568 10.3343 17.257C12.0517 16.3371 12.0014 16.3871 13.0861 17.6169C13.5179 18.1068 14.2109 18.3568 15.0143 18.8567C15.4663 21.3862 14.8838 22.4061 12.6542 22.926C10.5251 23.4259 9.66141 23.0059 9.13917 21.1863C9.60115 20.5664 11.0172 20.8663 10.9268 19.6865V19.6965ZM3.71593 7.09878C3.73601 3.87936 6.7891 0.959879 10.0732 0.809906C12.7044 0.689927 14.6528 1.99969 15.627 4.53924C16.802 7.5787 16.7518 10.6481 15.9182 13.7476C15.7073 14.5475 15.5968 15.3873 15.4462 16.2072C15.0545 16.7471 14.6628 17.297 13.99 18.2268C13.9297 17.347 13.8393 16.937 13.8795 16.5471C14.1004 13.9676 14.3816 11.388 14.5725 8.79848C14.6829 7.31874 14.5122 5.889 13.5983 4.60923C12.3027 2.79955 10.3845 2.5296 8.56672 3.79937C6.15639 5.48907 5.58393 7.77866 6.22669 10.4682C6.90961 13.3377 7.87375 16.0872 9.83214 18.3968C10.1133 18.7367 10.1836 19.2466 10.3544 19.6765C10.2138 19.7965 10.0732 19.9165 9.94261 20.0365C9.31994 19.6365 8.52654 19.3766 8.09469 18.8267C5.4132 15.3873 3.69584 11.568 3.71593 7.08878V7.09878ZM1.41607 36.3736C1.81779 32.2043 3.35438 28.545 6.36729 25.5455C7.16069 24.7456 7.87375 23.8658 8.6571 22.966C9.58106 23.3659 10.3644 23.7058 11.3085 24.1157C10.2439 26.3953 10.3142 28.8049 10.9369 31.0145C7.68293 33.2541 4.62984 35.3537 1.47633 37.5134C1.45624 37.1934 1.3759 36.7735 1.40603 36.3636L1.41607 36.3736ZM33.9254 35.6137C34.8393 41.3927 33.1521 46.4118 29.3257 50.711C28.4319 51.7208 27.0961 52.3807 25.891 53.0906C25.0273 53.6005 23.1191 53.0006 22.396 51.8708C21.6227 50.651 21.0703 49.2812 20.538 47.9315C20.4075 47.5915 20.6485 47.0616 20.8192 46.6617C21.0402 46.1118 21.4319 45.6219 21.6227 45.062C22.175 43.3823 21.2611 41.6026 19.5237 40.8528C17.7661 40.1029 15.3759 40.7028 14.4821 42.1325C13.4778 43.7422 13.9397 46.0118 15.5265 47.3316C15.868 47.6115 16.3099 47.9315 16.4103 48.3014C17.0832 50.791 18.4792 52.8506 20.307 54.8503C18.1377 55.4402 16.1593 55.2002 14.2209 54.8003C9.59111 53.8404 6.18652 51.0909 3.57532 47.2616C2.95266 46.3518 3.06313 45.6219 3.6858 44.7421C6.55811 40.7028 10.3644 37.8633 14.9742 36.1536C18.911 34.6839 22.9584 33.5041 27.1966 33.1841C29.0646 33.0441 30.9225 33.0441 32.66 34.004C33.3529 34.3839 33.8049 34.8138 33.9354 35.6337L33.9254 35.6137ZM33.2023 32.8342C30.4304 31.9643 27.6485 32.0243 24.8766 32.4143C18.9814 33.2441 13.4175 35.0338 8.4462 38.3732C6.02583 39.9929 4.19799 42.1825 2.61119 44.832C1.49642 43.2023 1.48637 41.4726 1.40603 39.8129C1.38594 39.353 1.98852 38.7931 2.43042 38.4032C7.98422 33.4641 14.2812 30.0047 21.8235 29.2748C24.3343 29.0249 26.8852 28.9449 29.406 29.0149C32.4089 29.1049 32.7704 29.5648 33.2123 32.8342H33.2023Z" fill="#332608"/>
</g>
<defs>
<clipPath id="clip0_1_308">
<rect width="35" height="56" fill="white"/>
</clipPath>
</defs>
</svg>
