<svg width="117" height="152" viewBox="0 0 117 152" fill="none" xmlns="http://www.w3.org/2000/svg">
<g clip-path="url(#clip0_1_247)">
<path d="M114.354 122.389C113.984 121.936 114.159 121.399 114.138 120.898C113.768 119.114 113.076 117.456 112.274 115.825C111.352 113.958 109.886 112.69 107.973 112C107.066 111.673 106.039 111.652 105.069 111.499C102.081 111.025 99.058 111.115 96.056 110.865C94.0943 110.704 92.2093 109.959 90.2127 110.203C90.0172 110.21 89.9264 110.119 89.9334 109.924C89.7868 107.632 89.7938 105.333 89.8845 103.033C89.9125 102.316 89.9962 101.542 89.7868 100.88C88.9281 98.0865 89.4866 95.2508 89.3819 92.4359C89.4028 91.0703 89.2772 89.6978 89.5006 88.3322C89.7798 85.8518 89.4098 83.3575 89.6123 80.8771C89.3819 80.675 89.3819 80.473 89.6262 80.2779C89.6262 71.8404 89.4726 63.4099 89.6192 54.9724C89.2981 54.5614 89.3121 54.1503 89.6192 53.7392C89.6192 51.858 89.6332 49.9768 89.6402 48.0956C89.3958 47.9006 89.4028 47.6985 89.6262 47.4965C89.6262 47.176 89.6262 46.8624 89.6262 46.5419C89.34 46.1309 89.3191 45.7198 89.6332 45.3157C89.5355 40.557 89.8008 35.7843 89.3679 31.0326C89.333 30.6703 89.3889 30.308 89.5913 29.9875C89.3959 29.5764 89.3609 29.1653 89.6123 28.7682C89.5215 28.4477 89.5285 28.1342 89.6192 27.8206C89.3679 27.4235 89.3889 27.0124 89.5844 26.6013C89.2004 25.2427 89.2004 23.8771 89.6053 22.5185C89.3819 22.2258 89.3679 21.9193 89.5424 21.5988C89.2004 20.9647 89.2492 20.3307 89.5424 19.7036C89.3889 19.1811 89.333 18.6655 89.5913 18.1499C89.5913 17.9479 89.5843 17.7458 89.5774 17.5368C89.3191 17.1257 89.3679 16.7146 89.5634 16.2966C89.1724 14.2134 89.2143 12.1232 89.5844 10.0399C89.326 9.62187 89.333 9.20383 89.5913 8.78579C89.1724 7.74765 89.2143 6.70951 89.5774 5.67138C89.2841 5.26727 89.4587 5.06522 89.8776 4.97464C90.3802 4.60537 91.0015 4.84923 91.5391 4.65414C92.2931 4.38241 92.7888 3.8738 92.9354 3.11435C93.089 2.29917 92.6352 1.69998 91.965 1.31677C91.2878 0.933569 90.5338 0.766352 89.7589 0.627005C87.1828 0.167159 84.5787 0.334375 81.9887 0.139289C78.9308 -0.0906337 75.8451 0.0138767 72.7733 0.0905177C71.384 0.125355 69.9668 0.264702 68.6264 0.703646C67.3628 1.11472 66.6856 2.89837 67.4535 3.82502C67.9771 4.45209 68.5357 5.22546 69.2477 5.49022C70.5533 5.97794 70.4276 6.80009 70.3229 7.84519C70.1763 9.2735 69.8551 10.7366 70.5533 12.1301C70.7557 12.2834 70.7976 12.4367 70.5323 12.5691C70.0995 13.1613 69.7923 13.7884 69.8691 14.5617C69.9319 15.1609 69.6038 15.4117 69.0313 15.356C67.4466 15.2097 65.8409 15.4536 64.2701 15.0494C62.4968 15.154 60.7236 15.3699 58.9433 15.1261C58.1893 15.4257 57.4004 15.2724 56.6325 15.2933C54.3496 15.3421 52.0667 15.349 49.7768 15.363C49.0647 15.363 48.3038 15.4605 48.1292 16.2269C47.8849 17.3138 47.5917 18.5053 48.7366 19.3622L48.8064 19.3344L48.8413 19.418C51.1033 19.5852 53.3583 19.3065 55.6132 19.2508C57.8752 19.195 60.1441 19.1114 62.4061 19.1393C62.5945 18.9233 62.797 18.9024 63.0134 19.1114C63.8721 18.979 64.7378 18.993 65.6035 18.8815C66.7624 18.7282 67.9492 18.784 69.1221 18.7421C69.6178 18.7212 69.918 18.8885 69.8412 19.4389C70.2251 20.0311 70.1064 20.6442 69.9319 21.2643C70.1344 21.5779 70.1553 21.9053 69.9598 22.2328C70.0785 22.4349 70.0715 22.6369 69.9319 22.832C70.2182 23.3615 70.1693 23.9398 70.1623 24.5111C70.1274 26.4202 70.0576 28.3432 70.0436 30.2453C70.0297 32.0359 70.1553 33.8544 70.1832 35.6589C70.4555 35.9585 70.4834 36.2651 70.1902 36.5716C70.1902 36.9966 70.1902 37.4217 70.1902 37.8397C70.4206 38.0278 70.4695 38.2368 70.2461 38.4668C70.2461 38.6688 70.2461 38.8709 70.2461 39.0729C70.4625 39.3028 70.4206 39.5049 70.1902 39.693C70.1902 40.0135 70.1902 40.341 70.1832 40.6615C70.5602 41.2676 70.5183 41.8877 70.2251 42.5148C70.2251 43.1419 70.5183 43.762 70.281 44.396C70.4416 44.7025 70.4276 45.0091 70.26 45.3087C70.6789 45.9497 70.3997 46.5698 70.2182 47.1969C70.3997 47.385 70.4206 47.594 70.267 47.81C70.4416 48.0817 70.4974 48.3883 70.4974 48.7018C70.4974 50.4158 70.4625 52.1298 70.4974 53.8437C70.5812 57.9405 70.3229 62.0513 70.7487 66.1411C70.7906 66.5104 70.7418 66.8657 70.5463 67.1932C70.8325 68.3219 70.7487 69.4506 70.5672 70.5863C70.8535 71.0113 70.7557 71.4642 70.6999 71.938C70.63 72.5511 70.5533 73.1851 70.63 73.7913C70.9721 76.5782 70.8185 79.3791 70.8116 82.173C71.1467 82.7862 71.1257 83.3993 70.8116 84.0124C70.8884 87.0432 71.2374 90.0601 71.1327 93.0978C71.398 93.3974 71.391 93.704 71.1606 94.0175C71.1606 94.3311 71.1606 94.6446 71.1606 94.9581C71.3771 95.1602 71.3771 95.3692 71.1606 95.5782C71.1816 95.9893 71.2165 96.4073 71.2235 96.8184C71.2723 100.664 70.2461 104.448 70.4904 108.308C70.5533 109.234 69.8551 109.053 69.2896 109.004C69.0802 109.22 68.8638 109.213 68.6613 108.997C66.0782 109.032 63.4882 108.963 60.912 109.123C56.6465 109.381 52.3809 109.262 48.1153 109.255C45.7207 109.255 43.354 109.527 40.9804 109.722C37.6782 109.994 34.376 110.224 31.0599 109.952C30.5433 109.91 30.0127 109.952 29.5519 109.638C29.2378 109.826 28.9306 109.84 28.6444 109.583C26.3336 109.241 24.0158 109.158 21.691 109.346C19.2056 109.548 16.9646 110.461 15.2402 112.216C14.3396 113.129 13.5089 114.042 12.35 114.613C12.2522 114.683 12.1475 114.745 12.0498 114.815C10.8978 115.888 9.80178 117.038 8.56608 118.006C7.95871 118.487 7.72134 118.919 7.72134 119.664C7.72134 121.894 7.65153 124.124 7.64455 126.353C7.64455 127.398 7.2536 128.492 8.05645 129.454C8.17513 129.6 8.04248 129.955 8.02154 130.213C8.21702 130.52 8.19607 130.84 8.04947 131.154C8.4474 131.697 8.81741 132.24 9.3829 132.659C11.0933 133.927 12.2732 135.634 12.9573 137.605C13.2785 138.532 13.816 139.082 14.6329 139.194C15.4566 139.312 16.2386 139.619 17.0763 139.626C18.0886 139.138 19.1358 139.459 20.169 139.507C21.5025 139.075 22.8918 138.915 24.2741 138.706C24.6511 138.393 25.063 138.441 25.4888 138.595C27.1434 138.184 28.784 137.668 30.5223 137.752C30.6969 137.571 30.8924 137.501 31.1227 137.668C31.4997 137.445 31.9186 137.466 32.3375 137.445C34.774 137.355 37.2105 137.327 39.64 137.257C42.5442 137.18 45.4484 137.062 48.3596 137.132C48.5551 136.895 48.7506 136.888 48.9391 137.146C51.7665 137.139 54.5939 137.125 57.4214 137.118C58.5454 136.651 59.6903 136.916 60.8283 137.034C61.7777 136.741 62.7272 136.707 63.6697 137.034C63.9768 136.86 64.277 136.86 64.5842 137.034C65.7222 136.644 66.8881 136.755 68.0539 136.811C68.4519 136.511 68.8638 136.47 69.2966 136.748C70.0506 136.511 70.8255 136.428 71.6144 136.47C75.6776 136.693 79.7197 136.121 83.7829 136.17C85.0255 136.184 86.2752 136.184 87.5109 135.926C87.9577 135.836 88.4604 135.843 88.9072 135.947C90.6944 136.365 92.5025 136.505 94.3247 136.505C94.7226 136.184 95.1345 136.191 95.5534 136.463C97.3196 136.135 99.0999 135.898 100.894 135.884C101.501 135.487 102.123 135.536 102.751 135.829C103.407 135.654 104.064 135.543 104.741 135.536C106.556 135.515 108.364 135.334 110.109 134.881C112.399 134.289 114.096 133 114.605 130.52C114.759 129.76 114.899 129.008 114.906 128.227C114.927 126.262 114.564 124.333 114.368 122.389H114.354Z" fill="#FF9AF5"/>
<path d="M62.9925 51.6768C61.4287 49.7817 60.0882 47.7124 57.8333 46.4095C55.6202 45.1275 53.5118 45.2599 51.5152 46.4513C50.1468 47.2665 48.6109 48.0817 47.9896 49.7678C47.9477 49.8723 47.7383 49.921 47.6056 49.9907C47.5288 50.0883 47.452 50.1788 47.3683 50.2764C47.1519 51.1194 46.5724 51.7953 46.4607 52.708C46.2513 54.3871 46.6562 55.9966 46.8935 57.62C46.9773 58.1983 47.2426 58.7905 47.6894 59.2573C48.5481 60.1352 49.2462 61.2709 50.2655 61.8701C51.2918 62.4693 52.6182 62.5738 53.819 62.8385C54.4753 62.9848 55.1524 63.0197 55.8157 63.1033C56.0112 62.9291 56.2136 62.9082 56.43 63.0754C57.177 62.727 58.0567 62.7549 58.7269 62.2045C60.7585 60.5323 62.1687 58.4979 62.3711 55.8015C62.413 55.2232 62.4828 54.7146 62.9017 54.2408C63.6068 53.4465 63.6487 52.4711 62.9925 51.6768Z" fill="#B404A2"/>
<path d="M114.906 125.406C114.892 123.385 114.166 121.539 113.209 119.79C113.07 119.532 112.832 119.337 112.637 119.107C112.602 119.546 112.7 119.894 112.825 120.222C113.544 122.033 113.817 123.928 113.977 125.851C114.103 127.377 113.558 128.499 112.141 129.126C111.331 129.481 110.521 129.906 109.67 130.067C107.575 130.457 105.467 130.889 103.345 130.993C97.6269 131.272 91.9091 131.432 86.1845 131.551C83.008 131.613 79.8315 131.404 76.6619 131.46C66.1411 131.648 55.6202 131.92 45.0994 131.349C42.244 131.195 39.3747 131.167 36.5263 130.896C33.5453 130.617 30.5992 130.533 27.66 131.167C25.426 131.648 23.2199 132.303 20.9649 132.693C17.3905 133.313 14.2908 132.296 12.1894 129.258C11.0933 127.677 10.0811 126.06 8.83838 124.576C7.12097 122.528 7.3723 119.623 9.39688 117.86C10.2137 117.149 11.205 116.627 12.0568 115.958C13.1109 115.129 14.1651 114.286 15.1216 113.345C15.9174 112.565 16.7622 111.938 17.8303 111.575C20.8881 110.523 24.0158 110.21 27.2202 110.537C32.4702 111.081 37.7131 111.018 42.9701 110.537C46.5445 110.217 50.1399 110.105 53.7283 110.042C58.6222 109.959 63.5231 110.015 68.417 110.015C68.9196 110.015 69.4223 110.084 69.9808 110.119V112.133C68.9476 112.279 67.9702 112.397 67.0068 112.565C64.689 112.969 62.42 113.533 60.3815 114.773C57.2957 116.648 56.9676 119.664 59.5717 122.145C60.9191 123.427 62.5108 124.291 64.2142 124.96C67.656 126.318 71.3003 126.681 74.9306 126.834C78.2467 126.973 81.5908 126.75 84.9139 126.548C87.6645 126.381 90.4082 126.074 93.1379 125.691C95.2741 125.392 97.2429 124.507 98.9882 123.239C99.6444 122.758 100.21 122.103 100.678 121.434C101.313 120.521 101.334 119.49 100.894 118.459C100.489 117.511 99.8679 116.717 98.9463 116.306C97.3895 115.609 95.8047 114.941 94.1711 114.446C92.7469 114.021 91.2459 113.861 89.738 113.575V111.596C90.2197 111.596 90.6246 111.582 91.0225 111.596C93.3613 111.715 95.707 111.833 98.0457 111.965C99.9167 112.07 101.788 112.216 103.666 112.286C105.9 112.37 107.813 113.171 109.425 114.711C110.047 115.303 110.71 115.839 111.603 116.62C111.457 116.069 111.45 115.791 111.317 115.609C109.865 113.617 108.078 111.945 105.558 111.659C101.892 111.248 98.1923 111.101 94.5062 110.865C92.9214 110.76 91.3297 110.704 89.6402 110.628V5.84554C90.0451 5.7898 90.3523 5.748 90.6595 5.69922C91.6508 5.53201 92.4467 5.10003 92.712 4.05493C92.9564 3.08646 92.6073 2.14587 91.4903 1.60938C90.3872 1.07986 89.1655 0.68969 87.9507 0.536408C86.1007 0.29255 84.2087 0.201974 82.3378 0.222876C78.4841 0.257713 74.6374 0.369191 70.7906 0.522473C69.8133 0.564277 68.8429 0.842972 67.8864 1.07289C66.7275 1.35159 65.9177 2.02046 65.7781 3.28155C65.6314 4.53567 66.4901 5.1697 67.4117 5.69922C67.9911 6.03366 68.6404 6.23571 69.3525 6.54228C69.3036 9.47554 69.4502 12.4158 69.3246 15.4396C63.8791 15.5302 58.6431 15.6207 53.4071 15.7044C53.3373 15.1748 53.3303 14.7498 53.1977 14.3666C53.1279 14.1646 52.8347 13.8859 52.6532 13.8998C52.3949 13.9207 52.0388 14.1088 51.9341 14.3318C51.7386 14.7359 51.6967 15.2097 51.585 15.6974C50.6076 15.774 49.6233 15.8507 48.6459 15.9273C47.7872 15.99 47.3125 16.5265 47.1658 17.2929C47.0472 17.8921 47.0332 18.5401 47.11 19.1462C47.2077 19.8917 47.6964 20.3655 48.4923 20.3725C49.2742 20.3795 50.0561 20.3307 50.831 20.3307C51.222 20.3307 51.6129 20.3725 51.7665 20.3864C52.1156 21.6893 52.2413 22.8598 52.73 23.8492C53.6585 25.7374 53.7772 27.6185 53.2536 29.5973C52.8068 31.2903 52.7928 32.9974 53.3234 34.6765C53.7143 35.9236 53.6724 37.1638 53.1907 38.3413C52.1645 40.8356 51.962 43.3509 52.7579 45.88C52.204 46.4467 52.2692 46.9158 52.9534 47.2874C53.079 46.521 53.3234 45.8103 53.2885 45.1206C53.1837 43.0164 53.3234 40.982 54.1192 38.9963C54.6917 37.5679 54.7894 36.07 54.3217 34.565C53.8749 33.1437 53.8609 31.7014 54.196 30.2522C54.7127 28.0087 54.6638 25.8279 53.5538 23.7377C53.3373 23.3267 53.1698 22.8668 53.1069 22.4139C53.0092 21.7311 53.0162 21.0274 52.9743 20.2749C58.5384 20.0729 63.8861 19.8778 69.2198 19.6827C69.6527 21.543 70.1833 107.743 69.8063 109.227C67.5024 109.227 65.2126 109.262 62.9297 109.22C56.7233 109.102 50.5308 109.346 44.3594 109.889C38.6835 110.391 33.0356 110.502 27.3668 109.938C24.0297 109.604 20.6927 109.82 17.5092 110.997C16.6086 111.331 15.6521 111.84 15.0518 112.551C13.8789 113.93 12.4547 114.934 10.9747 115.902C10.3254 116.327 9.70406 116.801 9.08272 117.275C7.90288 118.173 7.33041 119.393 7.05116 120.835C6.42982 124.103 6.66718 127.356 7.09305 130.61C7.30947 132.24 7.99364 133.669 9.22235 134.846C10.1578 135.745 10.9816 136.762 11.8054 137.766C13.0132 139.236 14.5142 140.121 16.4201 140.427C18.1584 140.706 19.8689 140.573 21.5374 140.211C25.3771 139.368 29.2518 139.068 33.1683 139.062C34.2085 139.062 35.2417 138.936 36.282 138.873C38.0971 138.762 39.9053 138.623 41.7204 138.553C42.6001 138.518 43.4937 138.657 44.3733 138.637C49.4767 138.518 54.573 138.365 59.6764 138.239C68.2145 138.023 76.7527 137.8 85.2978 137.626C91.232 137.501 97.1731 137.654 103.058 136.595C105.46 136.163 107.924 136.086 110.34 135.717C112.797 135.341 114.34 133.913 114.682 131.481C114.961 129.488 114.927 127.44 114.913 125.419L114.906 125.406ZM48.0944 19.7803C47.2845 18.6725 47.3753 17.7388 47.9128 16.7564C48.7995 17.3696 48.8763 18.3868 48.0944 19.7803ZM89.8287 114.348C93.0471 114.766 96.1468 115.379 98.8486 117.184C100.775 118.473 100.81 120.654 98.9812 122.18C97.0963 123.754 94.8553 124.583 92.4677 125.001C86.7499 125.984 80.9694 126.186 75.1959 125.907C72.4033 125.775 69.6108 125.294 66.8462 124.82C64.675 124.451 62.6644 123.552 60.8911 122.221C60.2698 121.762 59.6764 121.225 59.2016 120.619C58.1894 119.337 58.2452 117.686 59.3343 116.487C59.816 115.958 60.4024 115.484 61.0308 115.15C63.4393 113.854 66.0643 113.22 68.7591 112.843C69.15 112.788 69.5549 112.836 70.1833 112.836C70.1833 114.306 70.2601 115.651 70.1623 116.982C70.0506 118.473 70.8674 119.595 72.5918 119.901C74.3232 120.208 76.1104 120.431 77.8627 120.389C80.4528 120.319 83.0429 120.041 85.619 119.734C86.4637 119.63 87.3154 119.232 88.0834 118.821C89.0538 118.306 89.5983 117.442 89.6332 116.292C89.6542 115.693 89.7519 115.087 89.8287 114.348ZM82.8334 41.1143C80.1875 41.0307 77.5346 40.9959 74.8887 40.8008C73.9253 40.7311 72.9688 40.327 72.0543 39.9717C70.3438 39.3028 70.3438 39.2471 70.5952 37.2405C76.1383 40.8217 82.0236 41.2815 88.3347 39.2122V41.9713C84.5997 43.3996 80.753 44.1521 76.7387 43.8107C75.1889 43.6783 73.639 43.4066 72.1101 43.107C70.4765 42.7795 70.4695 42.7099 70.4835 41.0307C70.4835 40.6893 70.5254 40.3479 70.5603 39.8672C75.2517 42.3058 80.0828 41.9225 84.9488 41.1213C84.2437 41.1213 83.5316 41.1422 82.8264 41.1213L82.8334 41.1143ZM70.6301 64.03V62.0025C76.8155 64.0718 82.6938 64.1275 88.5442 61.1455V68.1407C85.256 70.2379 74.8328 70.7605 70.6371 68.9977V64.6222C75.0632 66.6706 79.6499 66.9075 84.2995 66.5731C85.4793 66.4895 86.6173 66.0714 87.5807 65.2214C81.7443 66.8378 76.1244 66.2456 70.6371 64.037L70.6301 64.03ZM70.7488 73.1294C78.5469 75.0454 80.006 74.9618 88.614 72.0285V75.3311C86.6522 76.5294 84.4671 77.2122 82.2121 77.5188C79.7407 77.8532 77.2274 77.8881 74.763 77.3586C73.9602 77.1844 73.1573 76.9196 72.4033 76.5921C70.3787 75.7143 70.295 75.4983 70.7557 73.1294H70.7488ZM83.8318 85.3292C80.1875 85.5034 76.5572 85.2874 72.9339 84.8415C72.522 84.7927 72.1101 84.7091 71.7192 84.5907C70.5114 84.2214 70.4695 84.1099 70.8744 82.591C76.8365 84.1378 82.7496 84.319 88.607 81.5529V84.5071C87.0571 85.2944 85.4165 85.2526 83.8318 85.3292ZM88.5651 85.169V86.7784C84.9069 88.0883 81.1719 87.8444 77.4578 87.4473C75.51 87.2383 73.5902 86.7227 71.6773 86.2768C71.1048 86.1444 70.4206 85.9005 70.8325 85.0157C75.4891 86.1932 85.2071 86.4022 88.5651 85.169ZM88.607 80.884C82.7915 83.7407 76.7946 83.7685 70.651 82.0197V79.4557C76.7736 80.9468 82.7217 81.0861 88.607 77.8393V80.884ZM70.651 78.5221V76.5852C76.6968 79.5254 82.5891 78.9401 88.4883 76.3065C88.7885 77.1356 88.2998 77.3516 87.8879 77.5118C86.2962 78.1319 84.7323 78.8983 83.0848 79.2607C79.1752 80.1246 75.2517 80.0549 71.391 78.8287C71.1467 78.752 70.9233 78.6336 70.651 78.5151V78.5221ZM70.6371 88.2067C70.7069 87.6981 70.651 87.1825 70.651 86.5485C76.627 88.2834 82.5193 88.8477 88.607 87.6006V90.0322C85.5282 91.8646 82.2261 92.213 78.7773 91.8367C76.3757 91.5789 74.0579 91.0982 71.8518 90.081C70.9722 89.6768 70.5044 89.2031 70.6371 88.2067ZM88.614 104.476C82.7008 106.322 76.8295 106.315 70.8465 104.831V99.6472C76.7736 102.274 82.617 102.392 88.614 99.8213V104.476ZM87.1269 108.119C84.5788 108.956 81.9328 109.227 79.273 109.151C76.5293 109.067 73.7856 108.809 70.8744 108.614V105.59C76.8365 107.102 82.6938 107.088 88.4883 105.277C88.984 107.158 88.8164 107.576 87.1339 108.126L87.1269 108.119ZM88.6559 108.266V110.99C83.7619 112.871 73.8554 111.819 70.7278 108.956C76.8993 110.203 82.7846 110.328 88.6559 108.259V108.266ZM70.8884 110.391C76.6689 112.599 82.4844 113.652 88.593 111.833C88.956 112.718 88.614 113.136 87.8739 113.282C86.6033 113.533 85.3397 113.84 84.0552 113.972C80.1526 114.376 76.278 114.216 72.5011 113.031C71.9635 112.864 71.4469 112.641 70.9093 112.432C70.8744 112.098 70.8186 111.847 70.8186 111.589C70.8186 111.227 70.8605 110.872 70.8884 110.391ZM70.8884 115.972V113.24C76.7597 115.129 82.5961 115.31 88.6489 113.749C88.7117 114.223 88.7676 114.69 88.8443 115.268C82.8963 118.069 76.9552 117.24 70.8884 115.972ZM88.4743 117.4C87.3992 118.257 86.1775 118.856 84.8301 119.072C81.2277 119.643 77.6114 119.964 73.9811 119.393C73.4156 119.302 72.8501 119.205 72.3126 119.03C71.1118 118.633 70.8046 118.076 70.9023 116.731C76.9342 118.048 82.8474 118.682 88.6768 116.209C89.0747 116.724 88.8862 117.073 88.4743 117.407V117.4ZM88.2858 99.0758C83.4967 101.291 78.5888 101.591 73.5692 99.9258C72.9269 99.7099 72.2986 99.4521 71.6493 99.2639C70.8325 99.0271 70.5254 98.5742 70.9582 97.6475C76.6968 100.525 82.5751 100.281 88.8094 98.1631C88.5721 98.6021 88.4953 98.9783 88.2928 99.0689L88.2858 99.0758ZM87.5528 97.9889C86.1007 98.3721 84.6486 98.8111 83.1616 98.9853C78.5748 99.5426 74.7281 99.1594 70.7906 96.6721V94.7282C76.0965 97.8078 82.3866 97.6684 88.6419 94.122C88.6628 95.1114 88.7117 96.0102 88.7047 96.909C88.7047 97.6405 88.0764 97.8426 87.5458 97.9889H87.5528ZM87.9996 93.6204C82.5821 96.7836 77.0599 97.3967 71.3771 94.345C71.2025 94.2475 71.0001 94.1987 70.7906 94.122V92.7216C75.3774 94.9442 82.8963 95.404 88.5232 92.422C88.9281 93.0769 88.4813 93.3347 87.9996 93.6204ZM87.3643 92.1712C84.104 93.5925 80.732 94.1569 77.1716 93.6413C75.2098 93.3626 73.283 93.1048 71.4888 92.1363C70.7139 91.7183 70.5672 91.2724 70.8814 90.3597C73.632 91.7949 76.5642 92.4359 79.629 92.6519C82.7357 92.8679 85.6888 92.3872 88.5092 91.0076C88.5581 91.14 88.607 91.2794 88.6559 91.4117C88.223 91.6626 87.8181 91.9691 87.3643 92.1642V92.1712ZM87.0641 71.8683C83.0917 73.8122 78.9099 74.0909 74.6094 73.4011C73.2341 73.1781 71.8448 72.9761 70.6371 72.1748V69.8617C76.6061 71.1367 82.3168 70.8859 88.5023 68.9908C88.7396 71.0252 88.7536 71.0461 87.0641 71.8683ZM87.3224 61.1525C82.7846 63.2218 78.1001 63.3751 73.3179 62.1836C72.5639 61.9955 71.8239 61.7586 71.0769 61.5287C70.9303 61.4869 70.8046 61.3824 70.6161 61.2849C70.5952 61.0619 70.5463 60.8041 70.5463 60.5533C70.5463 60.3582 70.5952 60.1561 70.6371 59.8496C76.6759 60.9713 82.617 61.3058 88.3277 58.6512C88.8234 60.2885 88.7466 60.5045 87.3294 61.1525H87.3224ZM70.6091 51.224V47.0296C73.7019 47.6567 76.7318 47.594 79.7756 47.1759C82.7915 46.7649 85.5701 45.7337 88.3975 43.8943V48.6182C83.6782 51.2309 74.2953 52.6244 70.6091 51.217V51.224ZM88.4464 52.4502V57.6131C86.5126 58.9369 84.2437 59.4664 81.9189 59.759C78.5748 60.177 74.0858 59.8705 70.6371 59.0274V52.1646C76.7318 52.9937 82.5961 52.1437 88.3487 49.8723C88.7257 50.8199 88.5581 51.6281 87.6645 52.1297C86.5894 52.7429 85.4933 53.3839 84.3274 53.7601C80.5226 54.9933 76.648 55.5925 72.6686 54.5683C72.3684 54.4917 72.0473 54.4917 71.7401 54.4847C71.6005 54.4847 71.4539 54.5474 71.2933 54.5822C73.9322 56.1569 82.9172 56.0315 88.4464 52.4502ZM88.1741 43.525C85.0186 44.6816 82.0166 46.3399 78.5818 46.6116C75.9429 46.8206 73.2969 46.9809 70.5742 46.3608V43.3509C76.5712 45.03 82.4564 45.1833 88.5232 42.5496C88.3626 43.0164 88.3347 43.4623 88.1672 43.5181L88.1741 43.525ZM88.4394 37.6655C88.4394 38.4807 87.7832 38.6758 87.1968 38.8569C84.7393 39.6372 82.2191 39.9159 79.6569 39.6791C76.8295 39.4143 74.1487 38.6618 71.7122 37.1429C71.3631 36.9269 70.9652 36.7946 70.5114 36.5855V33.283C76.7736 35.6241 82.6729 35.1085 88.4394 31.158C88.4394 33.5547 88.4394 35.6101 88.4394 37.6655ZM70.4904 32.3285V30.0293C76.4804 32.5654 82.3517 32.6002 88.3975 29.6042C88.2998 30.1129 88.3417 30.5657 88.1672 30.6772C83.2383 33.8683 75.8032 35.1224 70.4904 32.3215V32.3285ZM88.3975 29.0538C82.3866 31.7641 76.4874 31.8965 70.4555 29.0956V26.0927C71.9146 26.462 73.3179 26.9148 74.763 27.1517C77.8627 27.6673 80.9764 27.8276 84.0621 27.0124C85.4863 26.6362 86.743 25.9742 87.7204 24.741C87.2317 24.95 86.729 25.1242 86.2613 25.3681C84.5229 26.2808 82.6659 26.7198 80.7111 26.7755C77.9465 26.8521 75.1889 26.8521 72.4941 26.0927C72.0961 25.9812 71.7052 25.8279 71.3142 25.6816C70.5114 25.3751 70.1204 24.8664 70.5184 23.9955C76.4316 25.6189 82.3238 26.1206 88.3207 23.5705C88.4953 25.4099 88.3766 27.1866 88.4045 29.0538H88.3975ZM70.5114 21.9889C76.5363 23.2221 82.4704 23.4172 88.3487 20.4352V22.6648C86.7988 23.675 85.0675 24.1488 83.2453 24.3369C79.2311 24.741 75.2377 24.755 71.3352 23.5008C70.3089 23.1734 70.3159 23.1455 70.5114 21.9889ZM84.2786 21.2434C80.013 22.2049 75.7264 22.3512 71.4399 21.3828C70.267 21.118 70.2531 20.9926 70.5323 19.4876C76.4734 20.0799 82.4215 20.2959 88.3138 18.3102C88.3347 18.7909 88.3557 19.2438 88.3836 19.7315C87.0781 20.5118 85.6958 20.9229 84.2855 21.2364L84.2786 21.2434ZM88.2928 5.72013C86.4637 5.72013 84.6556 5.7689 82.8544 5.71316C79.0007 5.59471 75.1749 5.76193 71.412 6.67465C71.0769 6.75826 70.7208 6.76523 70.295 6.814V4.90494C76.2361 4.27788 82.1981 5.26028 88.0904 4.45903C88.23 4.73773 88.3347 4.86314 88.3487 4.99552C88.3696 5.19061 88.3207 5.39963 88.2858 5.72709L88.2928 5.72013ZM88.2998 6.35416V9.85177C87.0781 10.1514 85.8494 10.5903 84.5857 10.7366C81.3185 11.0989 78.0303 10.9596 74.763 10.6739C73.3179 10.5485 71.8797 10.3952 70.3438 10.2489V7.66402C76.1872 5.8316 82.2051 6.14514 88.3068 6.36112L88.2998 6.35416ZM70.4206 10.8899C76.3687 11.51 82.3378 12.6108 88.3068 10.4788V12.2137C86.729 12.5272 85.1792 12.9732 83.5944 13.1195C79.4335 13.4957 75.3006 13.21 71.2025 12.367C70.3438 12.1928 70.0367 11.8026 70.4137 10.8899H70.4206ZM70.267 13.5584C70.267 13.3633 70.3578 13.1752 70.4206 12.9174C76.3687 13.9346 82.2679 14.8543 88.3417 12.6875V17.3905C87.4132 18.1011 86.2892 18.345 85.1792 18.5052C80.9485 19.1044 76.7038 19.4876 72.4313 18.9093C71.768 18.8188 71.1048 18.6794 70.2601 18.5261C70.2601 16.8609 70.2601 15.2097 70.2601 13.5654L70.267 13.5584ZM69.3315 16.9724C69.1989 17.0839 69.1012 17.2511 68.9895 17.2581C62.4759 17.5019 55.9623 17.7319 49.4418 17.8642C50.7124 17.2441 67.9981 16.5544 69.3246 16.9794L69.3315 16.9724ZM49.365 16.6031C52.1226 16.2896 54.8942 16.4917 57.6588 16.5892L49.358 17.1118C49.358 16.9445 49.358 16.7704 49.358 16.6031H49.365ZM51.3616 19.5225C50.7054 19.5364 50.0491 19.5225 49.3929 19.5225C49.3929 19.4389 49.3929 19.3483 49.3929 19.2647H53.3583C53.3583 19.3204 53.3653 19.3762 53.3722 19.4319C52.702 19.4598 52.0318 19.5085 51.3616 19.5225ZM49.7838 18.5052C56.3393 18.2614 62.7132 18.0245 69.0802 17.7946C69.1361 17.7946 69.1919 17.9409 69.4432 18.2614C62.8529 19.3204 56.4091 18.7073 49.7838 18.4983V18.5052ZM69.527 5.73406C68.2774 5.55988 67.5094 5.05126 66.8532 4.40329C66.162 3.72049 66.2039 3.00285 67.0137 2.43153C67.5024 2.08316 68.1098 1.83234 68.6962 1.70692C71.9775 1.00322 75.3145 1.05896 78.6446 1.07986C81.4023 1.0938 84.1599 1.07986 86.9175 1.16347C87.9438 1.19134 88.97 1.4561 89.9893 1.62332C90.1429 1.65119 90.2895 1.71389 90.4291 1.7766C91.588 2.27128 92.2233 3.01679 92.1326 3.76926C92.0278 4.59838 91.2948 5.02339 89.5844 5.1488C89.6263 4.06189 88.991 3.90164 88.1672 3.90861C82.4425 3.93648 76.7178 3.93648 71.0001 3.96435C70.3438 3.96435 69.6806 4.11067 68.9685 4.19427C69.164 4.73076 69.3036 5.12093 69.527 5.74103V5.73406ZM8.54516 132.784C8.35666 132.477 8.18911 132.143 8.10534 131.795C7.51192 129.321 7.34437 126.806 7.47004 124.235C8.27289 126.2 7.71438 128.374 8.59403 130.617C8.48233 128.847 8.39157 127.335 8.29383 125.824C8.39157 125.817 8.48233 125.81 8.58007 125.803C8.82441 128.269 9.07574 130.742 9.35499 133.55C8.90819 133.146 8.67082 133 8.53818 132.791L8.54516 132.784ZM10.3812 134.818C10.2207 134.63 9.94143 134.456 9.92048 134.261C9.73199 132.004 9.58538 129.739 9.43179 127.475C9.52953 127.468 9.63425 127.461 9.73199 127.447C10.0531 129.865 10.3743 132.275 10.6954 134.693C10.5907 134.735 10.486 134.777 10.3812 134.818ZM16.5178 139.473C14.0744 139.166 12.5524 137.577 11.2749 135.668C11.1701 135.508 11.1492 135.278 11.1352 135.076C10.9677 133.021 10.8141 130.958 10.6326 128.673C12.4826 130.896 11.6169 133.564 12.6432 135.94C12.5106 134.352 12.3919 132.93 12.2592 131.3C12.6711 131.509 12.9085 131.593 13.097 131.732C16.099 133.927 19.3941 134.254 22.8988 133.258C23.6946 133.028 24.4975 132.819 25.5168 132.54C25.7751 134.498 26.0194 136.372 26.2847 138.407C22.9756 138.859 19.8409 139.891 16.5178 139.48V139.473ZM27.4995 138.344C27.304 138.365 27.1015 138.323 26.7525 138.295C26.5779 136.546 26.4104 134.818 26.2428 133.097C26.173 132.373 26.6128 132.227 27.3389 132.268C27.5623 134.219 27.7857 136.184 28.0091 138.142C27.7717 138.239 27.6391 138.33 27.4925 138.344H27.4995ZM28.421 138.121C28.2814 136.114 28.1487 134.129 28.0021 132.045C28.6723 131.948 29.168 131.878 29.7684 131.788C30.0127 133.425 30.2222 134.958 30.4805 136.477C30.5573 136.909 30.7737 137.313 30.9343 137.724C30.2222 138.309 29.3984 138.191 28.421 138.114V138.121ZM67.6979 137.146C65.5547 137.187 63.4812 137.201 61.4077 137.278C57.4005 137.424 53.3932 137.647 49.3859 137.745C46.733 137.807 44.0731 137.661 41.4202 137.696C39.0815 137.731 36.7427 137.891 34.404 137.996C33.5243 138.03 32.6377 138.072 31.7511 138.058C31.4788 138.058 31.2065 137.849 30.9412 137.738C30.7597 135.801 30.5782 133.85 30.3758 131.725C30.9762 131.669 31.4509 131.627 32.0373 131.572C32.3026 133.146 32.547 134.616 32.7913 136.079C32.8681 136.073 32.9519 136.066 33.0287 136.059C32.903 134.644 32.7843 133.237 32.6447 131.655C33.1823 131.634 33.664 131.606 34.2713 131.586C34.5296 133.348 34.767 135.02 35.0114 136.693C35.0882 136.693 35.1649 136.679 35.2417 136.679C35.144 135.076 35.0463 133.467 34.9485 131.795C41.8112 132.087 48.59 132.38 55.4527 132.679C55.5853 133.968 55.704 135.181 55.8297 136.4C55.9134 136.4 55.9902 136.4 56.074 136.393V132.868H58.5035C58.6292 134.122 58.7479 135.327 58.8735 136.532C58.9503 136.525 59.0271 136.511 59.1039 136.505V132.833H67.6421C67.9004 134.212 67.8236 135.627 67.7119 137.173L67.6979 137.146ZM68.7661 137.243C68.6334 137.18 68.5008 137.111 68.3681 137.048C68.1028 135.599 68.0819 134.163 68.396 132.735C68.5008 132.714 68.6125 132.7 68.7172 132.679C68.8149 132.868 68.9895 133.056 69.0034 133.251C69.0942 134.331 69.171 135.418 69.1849 136.505C69.1849 136.748 68.9127 136.999 68.7661 137.243ZM69.6597 137.048V132.7C70.0785 132.728 70.4206 132.749 70.8674 132.777C71.0001 133.934 71.1327 135.041 71.2584 136.142C71.3212 136.142 71.3841 136.142 71.4469 136.135V132.7H73.5343C73.5971 134.108 73.66 135.522 73.7298 137.048H69.6527H69.6597ZM113.195 130.889C111.345 131.572 109.474 132.213 107.61 132.847C107.087 133.028 106.542 133.146 106.025 133.369C108.657 133.118 111.108 132.185 113.635 131.265C113.81 132.324 113.363 132.826 112.49 133.056C110.486 133.585 108.483 134.115 106.521 134.637C108.483 134.909 110.34 133.906 112.511 133.738C111.673 134.707 110.703 134.881 109.739 134.993C105.188 135.515 100.643 136.1 96.084 136.491C93.4939 136.714 90.8759 136.574 88.2789 136.644C84.2716 136.748 80.2713 136.881 76.264 136.999C75.6427 137.02 75.0213 136.999 74.4209 136.999C73.9183 135.829 73.8624 134.958 74.1417 132.742H76.3268C76.4316 133.913 76.5293 135.055 76.627 136.198C76.7248 136.191 76.8155 136.184 76.9133 136.177V132.742C77.8139 132.7 78.6377 132.603 79.4475 132.645C85.228 132.944 90.9946 132.645 96.7612 132.31C99.3094 132.164 101.865 132.143 104.399 131.934C108.308 131.606 109.425 131.718 113.928 129.321C114.319 130.15 113.9 130.624 113.195 130.889Z" fill="#675221"/>
<path d="M23.8412 121.232C24.3998 120.793 25.1398 120.354 24.9932 119.525C24.8256 118.591 23.9879 118.278 23.1641 118.055C22.9127 117.985 22.6614 117.909 22.4101 117.874C20.6159 117.63 18.8217 117.4 17.0205 117.17C15.2193 117.233 13.474 117.386 11.8962 118.334C10.8071 118.989 9.64124 119.692 9.87162 121.162C10.102 122.619 11.3866 123.002 12.6502 123.26C15.9663 123.928 19.1568 123.406 22.2635 122.221C22.829 122.005 23.3456 121.615 23.8343 121.232H23.8412ZM15.9942 122.681C14.5491 122.437 13.2436 122.347 12.0149 121.984C10.472 121.525 10.2975 120.514 11.582 119.539C12.343 118.961 13.2855 118.466 14.214 118.285C17.202 117.714 20.197 117.929 23.1501 118.612C23.548 118.703 24.0786 119.065 24.1554 119.393C24.2252 119.692 23.8343 120.215 23.5061 120.459C22.8918 120.912 22.2146 121.399 21.4955 121.58C19.6455 122.04 17.7535 122.333 15.9942 122.674V122.681Z" fill="#332608"/>
<path d="M46.5515 59.9332C46.6842 60.2816 47.0332 60.5533 47.2845 60.8599C47.3055 60.6578 47.3264 60.4627 47.3474 60.2607C47.5289 60.4209 47.7174 60.5742 47.8989 60.7275C47.7104 60.7972 47.5219 60.8599 47.3334 60.9296C47.7244 61.3337 48.2549 61.6751 48.4644 62.1558C48.8135 62.978 49.4278 63.1452 50.1818 63.2288C50.6426 63.2845 51.1452 63.3054 51.5432 63.5075C52.8277 64.1694 54.0774 63.8071 55.334 63.5075C55.5853 63.4448 55.8157 63.3054 56.067 63.2567C58.4826 62.8107 58.7758 62.5669 59.7183 59.9402C59.3622 60.3582 59.1249 60.5464 58.9992 60.7902C58.2732 62.1976 58.2313 62.2116 56.6884 62.0861C56.3603 62.0583 55.7529 62.1558 55.725 62.2882C55.4667 63.4796 54.3427 63.0616 53.9447 63.389C53.2326 62.6923 52.2902 62.8735 51.5082 61.9677C51.9271 63.2427 51.3267 63.0546 51.0126 62.8456C50.475 62.4902 49.9584 62.0583 49.5465 61.5636C48.4853 60.2886 47.103 59.118 47.7732 57.1393C47.8221 57.0069 47.8431 56.7561 47.7732 56.7073C46.9774 56.143 47.473 54.9725 46.6702 54.4081C46.4607 54.2618 46.363 53.9483 46.1885 53.6626C45.0924 54.4778 45.1064 55.4671 45.4275 56.5123C45.7836 57.6549 46.1396 58.8045 46.5585 59.9263L46.5515 59.9332ZM47.3195 60.1353C47.1379 59.8287 46.9425 59.5291 46.8028 59.2017C46.6702 58.9021 46.6143 58.5676 46.5166 58.2193C47.4381 58.6512 47.48 58.7139 47.3195 60.1283V60.1353Z" fill="#332608"/>
<path d="M16.5597 129.447C17.3975 129.802 18.3469 129.906 19.2405 130.122C20.944 129.858 22.6195 129.718 24.2182 129.3C25.3492 129.001 26.4173 128.381 27.4506 127.795C28.0859 127.433 28.6653 126.841 28.4698 126.019C28.2814 125.203 27.4226 125.259 26.8013 125.127C24.0367 124.535 21.293 124.869 18.6262 125.628C17.7186 125.886 16.825 126.458 16.1129 127.099C15.1984 127.921 15.4078 128.966 16.5597 129.454V129.447ZM16.6714 127.405C16.9158 127.147 17.216 126.903 17.5371 126.757C20.8323 125.308 24.2252 125.399 28.0719 126.046C27.3738 126.701 27.0038 127.21 26.5011 127.489C23.7854 129.015 20.8253 129.356 17.7745 129.07C17.4743 129.042 17.1671 128.917 16.8948 128.771C16.2595 128.436 16.1688 127.935 16.6714 127.398V127.405Z" fill="#332608"/>
<path d="M29.4472 113.24C29.0633 112.983 28.6304 112.767 28.1906 112.655C25.9636 112.07 23.6876 111.826 21.3838 112.007C20.6298 112.07 19.834 112.286 19.1707 112.641C18.7379 112.871 18.312 113.456 18.2422 113.937C18.1515 114.585 18.8147 114.892 19.3872 115.003C21.2651 115.366 23.1571 115.672 25.049 116.007C25.063 115.944 25.0769 115.881 25.0839 115.818C25.8658 115.77 26.6477 115.77 27.4157 115.644C28.0719 115.54 28.7561 115.379 29.3425 115.073C30.4107 114.522 30.4246 113.902 29.4472 113.247V113.24ZM19.2196 114.097C19.1428 114.07 19.1079 113.944 18.9822 113.756C20.93 112.286 27.5344 112.439 29.5589 114.077C29.1331 114.334 28.791 114.669 28.3931 114.759C25.2724 115.477 22.2146 115.177 19.2266 114.097H19.2196Z" fill="#332608"/>
<path d="M61.7428 57.1324C61.7428 56.2545 62.0291 55.5229 62.3642 54.7635C62.9995 53.3282 62.79 52.4503 61.6102 51.3913C61.4566 51.2519 61.2332 51.1195 61.1843 50.9453C60.7934 49.4056 59.5996 48.6113 58.3709 47.8379C58.0777 47.6567 57.8612 47.3502 57.6169 47.1063C57.7705 48.1236 58.6292 48.5625 59.2994 49.1547C59.5228 49.3498 59.9417 49.4265 60.0185 49.6494C60.4304 50.8548 61.2751 51.7466 62.064 52.6872C62.2455 52.9032 62.3014 53.2306 62.3921 53.4536C62.2944 53.6347 62.2385 53.7184 62.1966 53.8089C61.7917 54.6798 61.3868 55.5577 60.9889 56.4287C61.7498 57.1672 61.0238 57.7176 60.7585 58.3377C60.6677 58.5467 60.6328 58.7767 60.4932 59.2644C61.4077 58.6094 61.7568 57.8848 61.7568 57.1463L61.7428 57.1324Z" fill="#332608"/>
<path d="M104.804 113.575C100.824 112.425 96.7612 112.99 92.719 112.99C97.3895 113.345 102.165 112.683 106.71 114.453C106.612 114.362 106.521 114.23 106.402 114.181C105.872 113.965 105.348 113.728 104.804 113.575Z" fill="#332608"/>
<path d="M96.1259 129.363C99.6933 128.966 103.261 128.569 106.835 128.165C103.254 128.116 99.6654 128.52 96.084 128.959C96.0979 129.091 96.1119 129.231 96.1259 129.363Z" fill="#332608"/>
<path d="M54.4683 112.62C57.8543 112.342 61.2472 112.07 64.6401 111.791C61.2053 111.422 57.8403 112.084 54.4683 112.62Z" fill="#332608"/>
<path d="M57.6099 47.1062V47.0923C57.6029 47.0923 57.5959 47.0923 57.5889 47.0993C57.5959 47.0993 57.6029 47.0993 57.6099 47.1062Z" fill="#332608"/>
<path d="M54.0704 46.5628C55.1106 46.4652 56.0321 46.7648 56.9048 47.2734C57.0444 47.3571 57.3516 47.1689 57.582 47.0923C57.4075 47.0226 57.219 46.9669 57.0723 46.8624C55.9344 46.0402 55.5644 45.9775 54.0704 46.5628Z" fill="#332608"/>
<path d="M51.6129 60.6926C52.7718 61.1106 53.3094 61.1454 54.7755 60.7553C53.5049 60.595 52.5973 60.4835 51.6897 60.3721C51.6618 60.4766 51.6408 60.5881 51.6129 60.6926Z" fill="#332608"/>
<path d="M57.3865 57.195C56.2764 56.8048 55.3479 56.4774 54.4264 56.1499C55.2711 56.6934 55.9832 57.6061 57.3865 57.195Z" fill="#332608"/>
<path d="M53.1209 59.4245C53.5817 60.3721 54.2798 60.1073 55.0408 60.0864C54.4823 59.5081 54.1262 58.7417 53.1209 59.4245Z" fill="#332608"/>
<path d="M54.2309 58.2749C53.3304 57.9474 52.4228 57.6269 51.4384 57.2716C52.0458 58.5118 53.2396 58.1425 54.2309 58.2749Z" fill="#332608"/>
<path d="M59.0132 57.8011C58.3011 58.1565 57.7984 58.4073 57.0863 58.7626C58.1056 58.9856 58.5943 58.6999 59.0132 57.8011Z" fill="#332608"/>
<path d="M51.3756 58.3516C50.9497 57.8429 50.468 57.2716 50.0002 56.7142C50.105 57.8987 50.2865 58.1007 51.3756 58.3516Z" fill="#332608"/>
<path d="M58.706 52.506C58.2801 52.715 57.8612 52.9171 57.4354 53.1261C57.5052 53.2515 57.575 53.3839 57.6378 53.5093C58.0497 53.2724 58.4546 53.0425 58.8665 52.8056C58.8107 52.708 58.7548 52.6035 58.706 52.506Z" fill="#332608"/>
<path d="M50.112 54.192C50.084 54.2478 50.0631 54.2965 50.0352 54.3523L50.9986 55.2441C51.1661 55.0908 51.3337 54.9375 51.5641 54.7215C51.0405 54.5265 50.5727 54.3592 50.112 54.192Z" fill="#332608"/>
<path d="M50.9288 51.3982C51.1871 51.8092 51.4454 52.2203 51.7037 52.6314C51.7945 52.5617 51.8852 52.492 51.976 52.4224C51.7107 52.0252 51.4454 51.6281 51.1801 51.231C51.0963 51.2867 51.0125 51.3424 50.9288 51.3982Z" fill="#332608"/>
<path d="M48.4365 59.2503C48.8693 59.4733 49.3091 59.7032 49.742 59.9262C49.8048 59.8356 49.8676 59.7381 49.9305 59.6475C49.4767 59.4315 49.0159 59.2085 48.5621 58.9926C48.5202 59.0831 48.4784 59.1667 48.4365 59.2573V59.2503Z" fill="#332608"/>
<path d="M50.9916 55.2511C50.4121 55.07 49.8327 54.8818 49.2323 54.6937C49.5395 55.7667 50.3144 55.3487 50.9916 55.2581V55.2511Z" fill="#332608"/>
<path d="M57.3376 54.7843C57.7007 54.7077 58.0567 54.631 58.4197 54.5614C58.4058 54.4499 58.3988 54.3384 58.3848 54.22C58.0148 54.3245 57.6448 54.429 57.2678 54.5335C57.2888 54.6171 57.3097 54.7007 57.3307 54.7843H57.3376Z" fill="#332608"/>
<path d="M57.5261 56.1359C57.8822 56.0454 58.2452 55.9548 58.6013 55.8642C58.5803 55.7806 58.5594 55.697 58.5384 55.6204C58.1824 55.69 57.8263 55.7667 57.4703 55.8363C57.4912 55.9409 57.5122 56.0384 57.5261 56.1429V56.1359Z" fill="#332608"/>
<path d="M47.7104 53.6068C47.4451 53.2863 47.1868 52.9658 46.8098 52.506C46.6423 53.363 47.1449 53.5441 47.7104 53.6068Z" fill="#332608"/>
<path d="M50.0282 48.026C50.0282 48.026 49.8607 48.0608 49.7699 48.0817L49.9444 48.8063C50.0492 48.7645 50.1539 48.7297 50.2516 48.6949C50.1818 48.4719 50.112 48.249 50.0282 48.033V48.026Z" fill="#332608"/>
<path d="M47.3474 50.8687C47.2496 50.9035 47.1449 50.9383 47.0472 50.9732C47.1449 51.3146 47.2496 51.6629 47.3474 52.0043C47.473 51.9556 47.5987 51.9068 47.7244 51.865C47.5987 51.5375 47.473 51.2031 47.3474 50.8756V50.8687Z" fill="#332608"/>
<path d="M61.1564 52.91C60.9609 52.6104 60.7724 52.3108 60.5769 52.0112C60.4792 52.067 60.3884 52.1297 60.2907 52.1854C60.5141 52.4711 60.7375 52.7567 60.9609 53.0424C61.0237 53.0006 61.0866 52.9518 61.1494 52.91H61.1564Z" fill="#332608"/>
<path d="M63.8372 122.187C67.1184 124.548 77.9953 125.935 81.3952 124.43C75.2517 124.785 69.4572 124.235 63.8372 122.187Z" fill="#332608"/>
<path d="M61.3519 120.765C60.7934 119.985 60.2419 119.204 59.6484 118.375C59.3552 119.776 60.3675 120.277 61.3519 120.765Z" fill="#332608"/>
</g>
<defs>
<clipPath id="clip0_1_247">
<rect width="117" height="152" fill="white"/>
</clipPath>
</defs>
</svg>
