<svg width="426" height="188" viewBox="0 0 426 188" fill="none" xmlns="http://www.w3.org/2000/svg">
<g clip-path="url(#clip0_1_230)">
<path d="M58.7003 126.817C44.6144 121.986 30.5469 116.312 21.3098 107.593C11.7041 98.5347 8.34854 87.1109 6.46796 76.0016C5.39862 69.7109 4.77176 63.2315 7.4267 57.1673C10.8376 49.4047 19.3924 43.0889 29.1641 38.4589C47.3799 29.8156 73.2288 26.5948 91.5738 35.1123C95.6299 36.9995 100.295 39.5283 104.867 38.2954C106.618 37.8299 107.964 36.8611 109.255 35.9175C122.179 26.3683 134.477 15.8126 151.587 10.1258C167.59 4.80392 186.967 4.42649 203.395 9.11931C213.204 11.9124 221.851 16.492 228.451 22.1661C235.476 28.2177 247.663 30.1175 258.153 27.2112C272.829 23.1601 289.257 22.2165 304.172 25.6637C320.618 29.4633 334.17 39.1132 338.889 50.3231C342.079 57.9222 352.717 62.8038 364.296 62.6528C364.37 62.6528 364.462 62.6528 364.535 62.6528C379.635 62.5144 394.828 67.1695 404.157 75.2844C413.486 83.3868 416.473 94.8232 411.2 104.486C406.627 112.852 393.426 118.979 396.118 128.415C399.732 141.185 418.372 170.525 423.276 183.119C415.33 183.974 406.922 187.875 399.658 185.509C386.218 181.131 361.327 153.88 347.887 149.489C336.751 145.866 332.363 145.413 320.692 146.495C305.537 147.891 290.215 148.621 274.949 149.137C233.54 150.533 191.706 149.715 150.683 145.4C134.256 143.676 117.939 141.361 101.991 138.191C94.2471 136.656 86.5773 134.92 79.055 132.932C73.8004 131.548 64.084 126.805 58.7003 126.805V126.817Z" fill="#B404A2"/>
<path d="M57.2992 128.44C31.985 119.646 13.382 108.511 6.78146 88.9849C0.900024 71.5472 -0.538055 53.3421 20.6831 40.5972C37.719 30.356 63.955 24.468 85.7477 30.8341C94.3763 33.3504 99.8521 38.9239 109.31 33.0736C114.86 29.6515 119.451 25.3361 124.724 21.7001C133.887 15.3968 144.23 9.68494 156.602 6.64026C182.1 0.349603 210.622 5.58343 228.525 19.3222C233.982 23.4992 239.477 26.6823 248.16 26.6697C256.015 26.6697 263.353 23.6628 270.986 22.6437C283.338 20.983 296.392 21.4233 308.118 24.6944C318.738 27.651 327.938 32.8723 334.336 39.3642C342.743 47.8944 343.278 59.5572 361.807 60.7399C373.035 61.457 382.917 61.9477 392.892 66.0744C402.866 70.201 410.426 76.5672 414.095 84.1285C418.243 92.6838 417.118 102.195 410.26 109.945C406.646 114.022 401.428 117.746 399.363 122.376C397.483 126.565 399.64 130.843 401.41 134.869C408.508 151.011 419.368 166.347 425.913 182.615C426.282 183.559 425.452 184.729 423.977 184.943C414.795 186.264 405.687 190.101 396.635 186.528C390.016 183.911 384.743 179.294 379.838 175.406C367.67 165.731 356.147 152.055 336.99 148.545C323.863 146.142 307.639 149.551 294.345 150.231C278.434 151.049 262.468 151.501 246.52 151.627C215.416 151.866 184.276 150.671 153.486 147.589C135.307 145.764 117.238 143.248 99.6124 139.688C92.256 138.19 84.7337 136.656 77.6723 134.58C71.4774 132.768 65.5222 129.233 58.7189 128.717C55.2158 128.453 55.1789 124.666 58.7189 124.942C68.8961 125.722 78.336 130.881 87.9233 133.158C102.36 136.593 117.183 139.222 132.154 141.26C164.493 145.689 197.55 147.564 230.498 147.84C261.785 148.105 292.631 146.494 323.716 144.355C342.595 143.059 355.317 149.841 366.969 159.038C374.307 164.825 381.129 170.914 388.707 176.551C391.693 178.778 394.975 181.52 398.902 183.03C406.498 185.962 414.814 182.414 422.539 181.307C421.893 182.087 421.248 182.854 420.603 183.634C415.44 170.814 407.494 158.509 401.004 145.991C398.146 140.468 394.828 134.731 393.445 128.931C391.915 122.476 396.137 117.469 401.318 112.298C409.412 104.221 413.56 95.8669 409.209 86.0535C404.765 76.0262 392.56 68.4145 377.792 65.7221C368.131 63.9607 358.009 65.4076 349.03 61.8974C340.512 58.5633 337.986 53.4301 334.501 47.5924C322.333 27.1604 288.704 21.763 260.347 28.6576C251.368 30.8467 242.187 31.1864 233.706 27.7517C229.152 25.9022 226.257 23.0966 222.662 20.5174C217.85 17.0702 212.171 14.1136 205.903 11.9999C191.651 7.19384 174.615 6.36347 159.552 9.93656C145.502 13.258 134.459 20.0645 124.429 27.3491C118.824 31.4129 111.007 40.7859 101.714 40.484C96.8284 40.333 92.9197 37.9174 88.9742 36.2567C82.3553 33.4762 74.9067 32.1174 67.1631 32.0293C51.639 31.8658 36.1703 36.3447 24.5733 43.2645C11.3539 51.1529 7.22397 61.1425 8.73581 72.8431C10.137 83.7888 12.9948 95.5524 21.9553 104.913C31.0079 114.387 45.6469 120.174 60.0832 125.181C63.2544 126.289 60.452 129.547 57.2992 128.44Z" fill="#333333"/>
<path d="M54.9136 144.834C41.1175 139.898 27.3394 134.1 18.2925 125.192C8.88446 115.936 5.59793 104.264 3.75604 92.9137C2.70871 86.4863 2.09476 79.8661 4.69507 73.6702C8.03574 65.7388 16.4145 59.2858 25.9851 54.5552C43.8261 45.724 69.1431 42.4332 87.1106 51.1359C91.0833 53.0641 95.6519 55.6479 100.13 54.3881C101.846 53.9125 103.164 52.9227 104.428 51.9586C117.086 42.2019 129.131 31.4168 145.888 25.6064C161.563 20.1689 180.541 19.7833 196.631 24.5781C206.237 27.4318 214.706 32.1109 221.171 37.9084C228.051 44.0915 239.987 46.0326 250.262 43.0631C264.636 38.9239 280.726 37.9598 295.334 41.482C311.442 45.3641 324.714 55.2237 329.337 66.6772C332.461 74.4415 342.88 79.4291 354.221 79.2748C354.293 79.2748 354.383 79.2748 354.455 79.2748C369.245 79.1334 384.124 83.8897 393.261 92.1809C402.399 100.459 405.324 112.144 400.159 122.017C395.681 130.565 382.752 136.825 385.388 146.466C388.928 159.514 395.392 172.574 400.196 185.455C392.413 186.329 384.756 183.848 377.641 181.431C364.477 176.958 351.313 172.484 338.149 168.011C327.242 164.309 322.945 163.846 311.532 164.951C296.689 166.378 281.683 167.124 266.731 167.651C226.173 169.078 185.2 168.242 145.022 163.833C128.932 162.072 112.951 159.707 97.3312 156.467C89.747 154.899 82.235 153.125 74.8674 151.094C69.7209 149.68 60.2045 144.834 54.9317 144.834H54.9136Z" fill="white"/>
<path d="M53.5412 146.492C31.0955 138.355 12.821 128.2 5.56183 110.345C-0.631989 95.099 -4.58661 75.8426 10.0221 62.4866C23.3126 50.3261 46.8599 42.5618 68.5291 44.3872C72.9533 44.76 77.2871 45.5055 81.3863 46.7653C89.7831 49.3362 95.2365 54.9923 104.464 49.0534C113.98 42.9217 121.312 35.4146 131.587 29.7585C150.457 19.3848 175.702 16.1325 197.967 22.907C203.312 24.5267 208.278 26.6605 212.81 29.2443C217.849 32.1238 221.46 35.9673 226.372 38.8597C239.121 46.4054 253.549 39.1682 267.381 37.8313C289.339 35.7231 311.153 41.6748 324.1 54.6709C331.414 62.011 332.19 72.9632 345.571 76.3311C350.681 77.6166 356.062 77.1667 361.353 77.6294C366.446 78.0793 371.357 79.0306 376.052 80.496C398.588 87.4761 411.951 106.553 402.29 123.289C400.177 126.953 396.837 130.064 393.767 133.342C388.729 138.715 387.122 143.021 388.982 149.384C392.521 161.404 398.281 173.063 402.778 184.915C403.265 186.213 401.893 187.254 400.159 187.357C387.176 188.141 375.384 182.781 364.08 178.937C356.983 176.533 349.905 174.117 342.808 171.713C336.109 169.438 329.319 166.674 321.771 166.353C314.945 166.057 307.92 167.227 301.185 167.741C293.149 168.358 285.096 168.795 277.042 169.155C261.422 169.836 245.766 170.209 230.11 170.196C199.068 170.158 167.991 168.589 137.383 164.874C121.402 162.933 105.547 160.388 90.0901 156.904C83.9504 155.529 77.6302 154.166 71.7976 152.225C66.3442 150.4 61.0352 147.238 54.8956 146.749C51.4646 146.479 51.4285 142.61 54.8956 142.893C65.4052 143.741 75.1202 149.256 85.0881 151.685C100.365 155.4 116.075 158.177 131.948 160.285C164.271 164.591 197.245 166.301 230.11 166.34C245.766 166.365 261.422 165.98 277.042 165.298C291.687 164.656 307.162 161.969 321.771 162.496C333.4 162.92 344.415 168.011 354.654 171.482C368.089 176.045 384.828 184.426 400.141 183.501C399.275 184.311 398.408 185.133 397.523 185.943C394.038 176.752 389.903 167.677 386.49 158.473C383.98 151.724 380.314 144.538 384.088 137.712C387.681 131.195 395.573 126.426 398.372 119.613C402.272 110.126 398.697 99.4053 389.523 92.0138C381.289 85.3937 369.425 81.7944 357.182 81.2159C348.857 80.8303 341.562 80.3932 334.917 76.2925C328.019 72.0505 327.062 66.1373 322.945 60.6484C316.949 52.6528 306.62 46.264 294.576 43.3202C281.231 40.0551 267.002 40.9293 253.838 44.1172C245.477 46.1354 238.073 47.3309 229.568 44.76C219.961 41.8677 214.779 34.7847 206.382 30.5941C194.807 24.8223 180.523 22.3028 166.474 23.3697C152.931 24.3981 141.085 28.8458 130.901 35.0932C121.33 40.9678 114.233 49.2334 104.338 54.6967C97.6382 58.3988 91.9681 55.5322 85.7201 52.7813C74.5063 47.8451 61.8297 46.9067 49.1351 49.1306C35.1223 51.5858 21.254 57.6275 12.8932 66.1245C3.91858 75.2513 5.02008 86.1135 7.11478 96.6287C9.04697 106.27 12.4057 116.181 20.6039 124.176C29.5244 132.879 43.0316 138.329 56.2499 143.124C59.3558 144.255 56.611 147.585 53.5232 146.454L53.5412 146.492Z" fill="#333333"/>
<path d="M35.1076 83.8068C34.7374 83.781 34.304 83.8193 33.8074 83.9218C33.3121 84.0047 32.7954 84.1155 32.2571 84.2542C31.7201 84.3734 31.1839 84.4829 30.6483 84.5826C30.1336 84.6642 29.6716 84.6908 29.2625 84.6623C28.8338 84.6324 28.4976 84.5404 28.2538 84.3864C28.0309 84.2142 27.8691 84.0071 27.7685 83.7652C27.6679 83.5232 27.6173 83.2652 27.6169 82.9911C27.6164 82.7169 27.625 82.4532 27.6426 82.1999C27.6943 81.4595 27.9507 80.8705 28.4119 80.4327C28.8926 79.9963 29.553 79.6508 30.3931 79.3961C31.2345 79.1219 32.2374 78.9177 33.4019 78.7835C34.5873 78.6312 35.9201 78.4695 37.4004 78.2986C39.7294 78.0302 41.847 77.8449 43.7532 77.7429C45.679 77.6421 47.5025 77.6028 49.2239 77.6249C50.9661 77.6288 52.666 77.6788 54.3235 77.7747C55.981 77.8707 57.7255 77.9825 59.557 78.1101C60.1025 78.1481 60.5264 78.2462 60.8287 78.4043C61.1309 78.5624 61.3427 78.7534 61.4642 78.9772C61.6051 79.2024 61.6758 79.4521 61.6763 79.7262C61.6963 80.0017 61.6967 80.2759 61.6777 80.5486C61.656 80.8604 61.5835 81.1979 61.4603 81.5614C61.3579 81.9066 61.1887 82.2277 60.9526 82.5245C60.7374 82.8032 60.4477 83.0277 60.0834 83.1981C59.7386 83.3699 59.3226 83.4388 58.8355 83.4048L56.4975 83.2418C55.5622 83.1767 54.5679 83.1172 53.5144 83.0633C52.4622 82.99 51.4185 82.9368 50.3831 82.9038C49.3491 82.8513 48.3527 82.821 47.3939 82.8129C46.4546 82.8062 45.6107 82.8355 44.8621 82.9008C44.1345 82.948 43.5508 83.0346 43.1113 83.1606C42.6718 83.2866 42.4439 83.4665 42.4276 83.7003C42.4113 83.9341 42.4718 84.3299 42.6092 84.8876C42.7465 85.4454 42.9194 86.0546 43.1279 86.7152C43.3377 87.3564 43.5476 87.9975 43.7574 88.6387C43.9881 89.2617 44.1769 89.7839 44.3237 90.2053C44.4565 90.5473 44.6162 90.7836 44.8029 90.9141C44.9896 91.0446 45.2486 91.1214 45.5798 91.1445C46.3786 91.2001 47.2004 91.2085 48.045 91.1694C48.8896 91.1304 49.7348 91.0816 50.5808 91.0231C51.4476 90.9465 52.3033 90.8887 53.1479 90.8496C54.012 90.812 54.8629 90.8223 55.7007 90.8807C56.1684 90.9133 56.5422 91.0275 56.8222 91.2232C57.1231 91.4008 57.3524 91.6224 57.5101 91.8879C57.6692 92.1339 57.7684 92.3953 57.8078 92.6722C57.8668 92.9504 57.8894 93.1869 57.8759 93.3818C57.8148 94.2585 57.4958 94.902 56.919 95.3121C56.3436 95.7027 55.5808 95.9726 54.6306 96.1217C53.6805 96.2709 52.5792 96.341 51.3268 96.332C50.0938 96.3244 48.781 96.3406 47.3881 96.3805L46.6826 96.3901C46.4266 96.4114 46.2256 96.4855 46.0797 96.6124C45.9338 96.7393 45.8534 96.9099 45.8385 97.1242C45.8344 97.1826 45.8408 97.232 45.8575 97.2724C45.8743 97.3127 45.8806 97.3621 45.8766 97.4205C46.0071 98.0757 46.1614 98.8109 46.3396 99.626C46.5191 100.422 46.6791 101.216 46.8196 102.009C46.9796 102.803 47.1034 103.556 47.1909 104.267C47.2784 104.978 47.3065 105.557 47.2753 106.005C47.2128 106.902 46.8243 107.56 46.1098 107.98C45.4147 108.401 44.4534 108.569 43.226 108.484C42.7778 108.452 42.3469 108.315 41.9332 108.071C41.5376 107.847 41.3101 107.459 41.2507 106.907C41.0503 105.288 40.8083 103.704 40.5245 102.158C40.2421 100.591 39.9395 99.0331 39.6168 97.4835C39.4781 96.9452 39.1555 96.6584 38.6489 96.6231C38.0644 96.5824 37.4033 96.5167 36.6656 96.4261C35.9474 96.3369 35.2125 96.2074 34.4607 96.0375C33.709 95.8677 32.9788 95.6699 32.2701 95.4443C31.5823 95.2006 30.9667 94.9032 30.4234 94.5521C29.8996 94.2023 29.4772 93.8009 29.1564 93.3478C28.855 92.896 28.7247 92.3779 28.7655 91.7934C28.7913 91.4232 28.9041 91.0689 29.1039 90.7304C29.305 90.3724 29.5515 90.0665 29.8433 89.8128C30.1364 89.5395 30.445 89.3261 30.7689 89.1724C31.1124 89.0202 31.4303 88.9542 31.7225 88.9746C32.0732 88.999 32.447 89.1132 32.844 89.3171C33.2409 89.5209 33.6657 89.7463 34.1184 89.9932C34.5711 90.2402 35.0544 90.4696 35.5682 90.6816C36.1015 90.895 36.6799 91.0234 37.3034 91.0669C37.6152 91.0886 37.7826 90.9339 37.8057 90.6026C37.8274 90.2909 37.7975 89.8777 37.7159 89.3629C37.6538 88.8496 37.554 88.314 37.4167 87.7562C37.2807 87.179 37.1142 86.6191 36.917 86.0768C36.7407 85.5163 36.5388 85.0421 36.3113 84.6543C36.1718 84.4096 36.019 84.213 35.8532 84.0644C35.7068 83.9171 35.4583 83.8313 35.1076 83.8068ZM85.0348 102.323C85.6338 101.875 86.206 101.67 86.7516 101.708C87.0633 101.73 87.3404 101.828 87.5828 102.001C87.8253 102.175 88.0908 102.438 88.3795 102.791C88.6405 103.259 88.8193 103.644 88.9158 103.944C89.0332 104.227 89.0824 104.504 89.0634 104.777C89.0226 105.361 88.6917 105.896 88.0705 106.382C87.0809 107.096 86.0189 107.727 84.8843 108.274C83.7511 108.802 82.5753 109.239 81.3569 109.585C80.1385 109.931 78.8886 110.167 77.6072 110.293C76.3245 110.438 75.0596 110.467 73.8126 110.381C72.2344 110.271 70.7679 109.963 69.4131 109.457C68.0568 108.971 66.859 108.32 65.8195 107.503C64.7995 106.688 63.9553 105.739 63.2868 104.654C62.6198 103.551 62.1759 102.335 61.9551 101.008C61.8178 100.45 61.6766 100.088 61.5316 99.9213C61.4074 99.7364 61.1797 99.6325 60.8485 99.6094C60.1276 99.5591 59.5845 99.3451 59.2193 98.9672C58.8541 98.5893 58.6945 98.0692 58.7407 97.4067C58.7597 97.1339 58.7914 96.9599 58.8358 96.8847L58.935 96.3043C59.0813 95.6096 59.3017 95.1159 59.5962 94.8232C59.9102 94.5318 60.3692 94.4072 60.9732 94.4493L61.4116 94.4799C62.2299 94.5369 62.8312 94.197 63.2154 93.4602C63.9131 92.1579 64.7682 90.9841 65.7809 89.9387C66.7935 88.8933 67.9115 88.0216 69.1349 87.3237C70.3596 86.6064 71.6493 86.0795 73.0041 85.7432C74.3797 85.3888 75.7592 85.2598 77.1426 85.3562C78.5844 85.4567 79.9139 85.7647 81.131 86.2803C82.3689 86.7777 83.4297 87.4292 84.3133 88.2348C85.197 89.0403 85.8672 89.9583 86.324 90.9887C86.8003 92.0204 86.9984 93.111 86.9182 94.2606C86.8626 95.0594 86.6558 95.7792 86.2979 96.4199C85.9399 97.0606 85.4511 97.6139 84.8313 98.0798C84.2128 98.5261 83.4738 98.876 82.6142 99.1293C81.7742 99.384 80.8247 99.5234 79.7658 99.5475L69.5531 99.8636C69.1634 99.8365 68.8351 99.9115 68.5682 100.089C68.3208 100.267 68.1856 100.522 68.1625 100.853C68.1272 101.36 68.2784 101.86 68.616 102.353C68.9731 102.848 69.4505 103.302 70.0481 103.716C70.6667 104.111 71.3776 104.445 72.181 104.716C73.0039 104.989 73.8537 105.156 74.7305 105.217C75.5683 105.275 76.431 105.257 77.3187 105.162C78.2272 105.05 79.1209 104.867 79.9999 104.615C80.8984 104.365 81.7718 104.053 82.62 103.682C83.4696 103.291 84.2745 102.838 85.0348 102.323ZM79.0429 94.3284C79.3392 94.2903 79.602 94.1716 79.8313 93.9722C80.0619 93.7533 80.1888 93.4783 80.2119 93.147C80.2322 92.8548 80.1441 92.5745 79.9474 92.3063C79.7507 92.0381 79.4741 91.7936 79.1175 91.573C78.7622 91.3329 78.3451 91.1374 77.8662 90.9865C77.3872 90.8357 76.875 90.7412 76.3294 90.7032C75.5306 90.6475 74.7041 90.7074 73.85 90.8828C72.9959 91.0583 72.2143 91.317 71.5052 91.6592C70.7974 91.9819 70.2129 92.3621 69.7517 92.7998C69.2918 93.2181 69.0463 93.6512 69.015 94.0994C68.9838 94.5475 69.241 94.7906 69.7865 94.8286C70.1177 94.8517 70.6563 94.8501 71.4021 94.8237C72.1479 94.7974 72.9724 94.7668 73.8754 94.7318C74.7798 94.6774 75.6946 94.6139 76.6199 94.5413C77.5452 94.4687 78.3528 94.3978 79.0429 94.3284ZM115.956 104.478C116.555 104.03 117.127 103.825 117.673 103.863C117.984 103.885 118.261 103.983 118.504 104.156C118.746 104.33 119.012 104.593 119.301 104.946C119.562 105.415 119.74 105.799 119.837 106.099C119.954 106.382 120.003 106.659 119.984 106.932C119.944 107.517 119.613 108.051 118.992 108.537C118.002 109.251 116.94 109.882 115.805 110.429C114.672 110.957 113.496 111.394 112.278 111.74C111.06 112.086 109.81 112.322 108.528 112.448C107.246 112.593 105.981 112.623 104.734 112.536C103.156 112.426 101.689 112.118 100.334 111.612C98.9779 111.126 97.7801 110.475 96.7406 109.658C95.7206 108.843 94.8763 107.894 94.2079 106.809C93.5409 105.706 93.097 104.49 92.8762 103.163C92.7389 102.605 92.5977 102.243 92.4527 102.076C92.3285 101.892 92.1008 101.788 91.7696 101.764C91.0487 101.714 90.5056 101.5 90.1404 101.122C89.7751 100.744 89.6156 100.224 89.6618 99.5618C89.6808 99.289 89.7125 99.115 89.7569 99.0398L89.8561 98.4593C90.0024 97.7647 90.2228 97.271 90.5173 96.9783C90.8313 96.6869 91.2903 96.5623 91.8943 96.6044L92.3327 96.6349C93.151 96.692 93.7523 96.3521 94.1364 95.6153C94.8341 94.313 95.6893 93.1392 96.702 92.0937C97.7146 91.0483 98.8326 90.1767 100.056 89.4788C101.281 88.7615 102.57 88.2346 103.925 87.8983C105.301 87.5439 106.68 87.4149 108.064 87.5113C109.505 87.6118 110.835 87.9198 112.052 88.4354C113.29 88.9328 114.351 89.5843 115.234 90.3899C116.118 91.1954 116.788 92.1134 117.245 93.1437C117.721 94.1754 117.919 95.2661 117.839 96.4156C117.784 97.2145 117.577 97.9343 117.219 98.575C116.861 99.2157 116.372 99.769 115.752 100.235C115.134 100.681 114.395 101.031 113.535 101.284C112.695 101.539 111.746 101.679 110.687 101.703L100.474 102.019C100.084 101.992 99.7562 102.067 99.4893 102.244C99.2419 102.422 99.1067 102.677 99.0836 103.008C99.0483 103.515 99.1995 104.015 99.5371 104.508C99.8941 105.003 100.372 105.457 100.969 105.871C101.588 106.267 102.299 106.6 103.102 106.871C103.925 107.144 104.775 107.311 105.652 107.372C106.489 107.43 107.352 107.412 108.24 107.318C109.148 107.205 110.042 107.022 110.921 106.77C111.82 106.52 112.693 106.208 113.541 105.837C114.391 105.446 115.196 104.993 115.956 104.478ZM109.964 96.4835C110.26 96.4454 110.523 96.3267 110.752 96.1273C110.983 95.9084 111.11 95.6334 111.133 95.3021C111.153 95.0099 111.065 94.7296 110.868 94.4614C110.672 94.1932 110.395 93.9487 110.039 93.7281C109.683 93.488 109.266 93.2925 108.787 93.1416C108.308 92.9908 107.796 92.8963 107.25 92.8583C106.452 92.8026 105.625 92.8625 104.771 93.0379C103.917 93.2133 103.135 93.4721 102.426 93.8143C101.719 94.1369 101.134 94.5171 100.673 94.9549C100.213 95.3731 99.9674 95.8063 99.9361 96.2545C99.9049 96.7026 100.162 96.9457 100.708 96.9837C101.039 97.0068 101.577 97.0052 102.323 96.9788C103.069 96.9525 103.893 96.9218 104.796 96.8869C105.701 96.8325 106.616 96.769 107.541 96.6964C108.466 96.6238 109.274 96.5529 109.964 96.4835ZM142.601 91.2987C142.676 91.3431 142.791 91.3707 142.947 91.3816C143.376 91.4114 143.61 91.1439 143.649 90.5788L144.283 81.4896C144.363 80.34 144.673 79.5393 145.214 79.0875C145.774 78.6371 146.658 78.454 147.866 78.5382C149.093 78.6237 149.943 78.9374 150.414 79.4793C150.885 80.0212 151.078 80.9059 150.993 82.1334C150.96 82.601 150.883 83.2907 150.76 84.2023C150.639 85.0945 150.5 86.1127 150.342 87.2568C150.203 88.4023 150.059 89.6354 149.908 90.9563C149.758 92.2576 149.639 93.5513 149.549 94.8372C149.411 96.8246 149.428 98.5487 149.6 100.01C149.772 101.47 150.078 102.696 150.518 103.686C150.96 104.656 151.515 105.4 152.184 105.916C152.854 106.413 153.627 106.692 154.504 106.754C154.991 106.787 155.434 106.76 155.832 106.67C156.25 106.562 156.732 106.527 157.278 106.565C157.668 106.592 157.975 106.819 158.2 107.246C158.445 107.655 158.548 108.142 158.509 108.707C158.474 109.213 158.285 109.68 157.942 110.106C157.618 110.534 157.182 110.895 156.633 111.19C156.103 111.486 155.49 111.707 154.795 111.854C154.101 111.982 153.383 112.02 152.643 111.969C151.045 111.857 149.618 111.268 148.361 110.202C147.105 109.116 146.217 107.537 145.696 105.464C145.659 105.148 145.572 104.986 145.436 104.976C145.28 104.965 145.143 105.112 145.023 105.417C144.398 106.803 143.617 108.041 142.679 109.131C141.763 110.202 140.711 111.108 139.524 111.847C138.358 112.569 137.087 113.097 135.713 113.432C134.358 113.768 132.941 113.885 131.46 113.782C129.901 113.673 128.487 113.31 127.219 112.693C125.968 112.097 124.907 111.308 124.036 110.327C123.165 109.327 122.511 108.185 122.072 106.901C121.634 105.598 121.466 104.216 121.568 102.755C121.698 100.884 122.211 99.1481 123.105 97.5462C124 95.9444 125.153 94.5759 126.563 93.4408C127.995 92.2875 129.622 91.4122 131.445 90.8149C133.269 90.2175 135.184 89.9888 137.19 90.1287C138.009 90.1857 138.871 90.3143 139.777 90.5145C140.685 90.6953 141.626 90.9566 142.601 91.2987ZM132.966 108.6C134.077 108.678 135.078 108.503 135.969 108.075C136.88 107.649 137.692 107.089 138.406 106.395C139.141 105.683 139.774 104.895 140.304 104.031C140.835 103.148 141.277 102.288 141.629 101.451C141.981 100.614 142.249 99.8594 142.433 99.1869C142.617 98.5145 142.719 98.0322 142.739 97.7399C142.754 97.5256 142.709 97.3364 142.602 97.1724C142.498 96.9889 142.332 96.8403 142.105 96.7266C141.588 96.5535 141.051 96.3986 140.493 96.2618C139.936 96.1055 139.387 95.9694 138.847 95.8534C138.307 95.7375 137.785 95.6423 137.281 95.5681C136.797 95.4951 136.35 95.4444 135.941 95.4159C134.772 95.3344 133.698 95.4358 132.719 95.72C131.739 96.0041 130.887 96.4439 130.16 97.0394C129.452 97.6362 128.883 98.3698 128.45 99.2403C128.019 100.091 127.766 101.043 127.693 102.095C127.628 103.03 127.705 103.887 127.925 104.666C128.166 105.427 128.511 106.087 128.962 106.647C129.431 107.209 130.007 107.66 130.688 108.001C131.369 108.342 132.128 108.542 132.966 108.6ZM173.348 116.172C173.392 113.572 173.335 111.169 173.175 108.965C173.036 106.743 172.858 104.802 172.641 103.143C172.443 101.484 172.253 100.14 172.07 99.1087C171.907 98.0793 171.834 97.4379 171.852 97.1846C171.878 96.8144 172.039 96.4634 172.337 96.1317C172.653 95.8014 173.035 95.5245 173.481 95.3011C173.929 95.0582 174.402 94.8758 174.9 94.7539C175.417 94.6333 175.88 94.5873 176.29 94.6158C176.621 94.6389 176.899 94.717 177.125 94.8502C177.37 94.9848 177.532 95.1918 177.61 95.4714C177.685 95.8094 177.748 96.1663 177.8 96.5419C177.873 96.8994 177.94 97.3348 178.003 97.8482C178.069 98.5772 178.2 98.9486 178.395 98.9621C178.609 98.9771 178.875 98.6726 179.193 98.0486C179.645 97.1795 180.115 96.4683 180.604 95.915C181.093 95.3617 181.602 94.9371 182.132 94.6412C182.682 94.3272 183.235 94.121 183.79 94.0226C184.365 93.9256 184.954 93.8981 185.558 93.9402C187.39 94.0679 188.888 94.8967 190.054 96.4268C191.24 97.9583 192.098 100.113 192.629 102.891C192.704 103.21 192.778 103.42 192.849 103.523C192.921 103.606 193.006 103.652 193.104 103.658C193.201 103.665 193.301 103.633 193.404 103.562C193.528 103.472 193.648 103.295 193.764 103.029C194.32 101.795 194.941 100.761 195.625 99.9281C196.311 99.0753 197.004 98.3992 197.705 97.8998C198.426 97.3823 199.146 97.0213 199.865 96.8169C200.584 96.6125 201.265 96.5327 201.908 96.5776C203.097 96.6604 204.138 97.1735 205.032 98.1168C205.946 99.042 206.71 100.436 207.324 102.3C207.959 104.145 208.453 106.471 208.806 109.275C209.18 112.062 209.42 115.358 209.526 119.164C209.453 120.216 209.081 120.924 208.409 121.289C207.736 121.672 206.845 121.826 205.734 121.748C205.013 121.698 204.459 121.503 204.072 121.162C203.684 120.822 203.479 120.397 203.456 119.886C203.391 117.16 203.276 114.734 203.111 112.608C202.967 110.464 202.77 108.659 202.52 107.193C202.271 105.707 201.958 104.569 201.583 103.779C201.227 102.991 200.795 102.579 200.289 102.544C200.035 102.526 199.701 102.689 199.285 103.032C198.889 103.376 198.442 104.03 197.945 104.994C197.448 105.939 196.906 107.252 196.319 108.934C195.733 110.596 195.134 112.737 194.52 115.357C194.352 116.09 193.952 116.63 193.321 116.977C192.709 117.326 191.975 117.471 191.117 117.411C190.124 117.342 189.443 117.138 189.075 116.799C188.727 116.461 188.559 115.921 188.571 115.178C188.583 113.886 188.536 112.601 188.429 111.321C188.343 110.022 188.204 108.789 188.011 107.62C187.82 106.432 187.593 105.34 187.329 104.342C187.067 103.326 186.776 102.444 186.457 101.697C186.138 100.931 185.798 100.33 185.437 99.8935C185.076 99.4571 184.71 99.2261 184.34 99.2003C183.853 99.1663 183.352 99.474 182.836 100.123C182.341 100.774 181.864 101.71 181.407 102.931C180.97 104.154 180.583 105.634 180.246 107.373C179.91 109.112 179.666 111.062 179.515 113.225C179.489 113.595 179.473 113.966 179.467 114.338C179.462 114.69 179.446 115.061 179.419 115.45C179.378 116.035 179.247 116.505 179.027 116.862C178.826 117.22 178.542 117.494 178.177 117.684C177.83 117.875 177.431 117.994 176.977 118.041C176.523 118.087 176.034 118.092 175.508 118.056C175.02 118.022 174.633 117.956 174.347 117.857C174.058 117.778 173.841 117.665 173.695 117.518C173.548 117.371 173.454 117.178 173.412 116.94C173.368 116.722 173.347 116.466 173.348 116.172ZM238.647 113.029C239.245 112.581 239.818 112.377 240.363 112.415C240.675 112.436 240.952 112.534 241.195 112.707C241.437 112.881 241.703 113.144 241.991 113.497C242.252 113.966 242.431 114.35 242.528 114.651C242.645 114.933 242.694 115.21 242.675 115.483C242.634 116.068 242.303 116.603 241.682 117.088C240.693 117.802 239.631 118.433 238.496 118.98C237.363 119.508 236.187 119.945 234.969 120.291C233.75 120.637 232.5 120.873 231.219 120.999C229.936 121.144 228.671 121.174 227.424 121.087C225.846 120.977 224.38 120.669 223.025 120.163C221.669 119.677 220.471 119.026 219.431 118.21C218.411 117.394 217.567 116.445 216.899 115.361C216.232 114.257 215.788 113.041 215.567 111.714C215.43 111.156 215.288 110.794 215.143 110.627C215.019 110.443 214.791 110.339 214.46 110.316C213.739 110.265 213.196 110.051 212.831 109.673C212.466 109.295 212.306 108.775 212.352 108.113C212.371 107.84 212.403 107.666 212.448 107.591L212.547 107.01C212.693 106.316 212.913 105.822 213.208 105.529C213.522 105.238 213.981 105.113 214.585 105.155L215.023 105.186C215.842 105.243 216.443 104.903 216.827 104.166C217.525 102.864 218.38 101.69 219.393 100.645C220.405 99.5994 221.523 98.7278 222.747 98.0299C223.971 97.3125 225.261 96.7857 226.616 96.4494C227.991 96.0949 229.371 95.9659 230.754 96.0624C232.196 96.1628 233.526 96.4709 234.743 96.9864C235.981 97.4839 237.041 98.1354 237.925 98.9409C238.809 99.7465 239.479 100.664 239.936 101.695C240.412 102.727 240.61 103.817 240.53 104.967C240.474 105.766 240.268 106.485 239.91 107.126C239.552 107.767 239.063 108.32 238.443 108.786C237.825 109.232 237.086 109.582 236.226 109.835C235.386 110.09 234.436 110.23 233.378 110.254L223.165 110.57C222.775 110.543 222.447 110.618 222.18 110.795C221.933 110.973 221.797 111.228 221.774 111.559C221.739 112.066 221.89 112.566 222.228 113.059C222.585 113.554 223.062 114.008 223.66 114.422C224.278 114.818 224.989 115.151 225.793 115.422C226.616 115.695 227.465 115.862 228.342 115.923C229.18 115.982 230.043 115.963 230.93 115.869C231.839 115.756 232.733 115.573 233.612 115.321C234.51 115.071 235.384 114.76 236.232 114.388C237.081 113.997 237.886 113.544 238.647 113.029ZM232.655 105.035C232.951 104.996 233.214 104.878 233.443 104.678C233.674 104.459 233.801 104.184 233.824 103.853C233.844 103.561 233.756 103.281 233.559 103.012C233.362 102.744 233.086 102.5 232.729 102.279C232.374 102.039 231.957 101.844 231.478 101.693C230.999 101.542 230.487 101.447 229.941 101.409C229.142 101.354 228.316 101.414 227.462 101.589C226.608 101.764 225.826 102.023 225.117 102.365C224.409 102.688 223.825 103.068 223.363 103.506C222.904 103.924 222.658 104.357 222.627 104.806C222.596 105.254 222.853 105.497 223.398 105.535C223.729 105.558 224.268 105.556 225.014 105.53C225.76 105.504 226.584 105.473 227.487 105.438C228.392 105.384 229.306 105.32 230.232 105.247C231.157 105.175 231.965 105.104 232.655 105.035ZM271.887 87.3875C271.927 87.0966 272.004 86.8279 272.119 86.5814C272.234 86.3349 272.415 86.1224 272.663 85.9438C272.931 85.7472 273.274 85.6046 273.691 85.5163C274.108 85.4279 274.629 85.4054 275.252 85.4489C275.759 85.4842 276.156 85.6783 276.445 86.0313C276.735 86.3647 276.858 86.8432 276.815 87.4667L276.288 91.6589C277.543 91.9031 278.531 92.1971 279.251 92.5409C279.971 92.8848 280.316 93.2808 280.284 93.7289C280.272 93.9043 280.228 94.1166 280.152 94.3658C280.077 94.5955 279.894 94.9743 279.603 95.5022C279.295 95.9898 278.976 96.3494 278.647 96.5809C278.338 96.7944 277.931 96.8834 277.424 96.8481L275.67 96.7259L274.857 103.336C275.862 104.091 276.891 104.917 277.945 105.812C279.019 106.69 279.972 107.628 280.803 108.625C281.653 109.624 282.334 110.67 282.845 111.763C283.358 112.837 283.575 113.938 283.496 115.068C283.408 116.335 283.037 117.435 282.385 118.368C281.734 119.282 280.928 120.029 279.968 120.608C279.027 121.188 277.989 121.606 276.855 121.859C275.741 122.115 274.658 122.205 273.606 122.132C273.431 122.12 273.255 122.108 273.08 122.095C272.905 122.083 272.721 122.051 272.529 121.998L271.936 127.126C271.897 127.417 271.819 127.685 271.704 127.932C271.589 128.178 271.408 128.391 271.16 128.569C270.912 128.768 270.569 128.91 270.132 128.997C269.715 129.085 269.185 129.107 268.542 129.062C268.035 129.027 267.637 128.833 267.349 128.48C267.08 128.128 266.967 127.641 267.01 127.017L267.815 120.524C266.775 120.002 265.8 119.376 264.892 118.647C263.983 117.918 263.198 117.109 262.535 116.221C261.893 115.315 261.403 114.351 261.063 113.329C260.723 112.306 260.591 111.25 260.667 110.159C260.697 109.73 260.756 109.303 260.844 108.879C260.934 108.435 261.069 108.043 261.249 107.703C261.449 107.364 261.693 107.098 261.981 106.902C262.268 106.707 262.636 106.625 263.084 106.656C263.24 106.667 263.375 106.696 263.489 106.743C263.624 106.772 263.768 106.811 263.922 106.861L264.435 107.073C264.647 107.127 264.865 107.231 265.089 107.383C265.315 107.516 265.519 107.677 265.702 107.866C265.884 108.055 266.026 108.271 266.127 108.513C266.247 108.756 266.297 109.014 266.278 109.287C266.206 110.32 266.374 111.291 266.78 112.2C267.188 113.09 267.778 113.895 268.55 114.614L269.546 106.225C268.41 105.383 267.33 104.583 266.306 103.826C265.282 103.07 264.384 102.332 263.612 101.612C262.841 100.873 262.236 100.146 261.796 99.43C261.357 98.7141 261.165 97.9567 261.221 97.1579C261.286 96.2226 261.636 95.4052 262.273 94.7055C262.93 93.9878 263.745 93.3887 264.718 92.9083C265.693 92.4085 266.767 92.0232 267.941 91.7526C269.115 91.4821 270.262 91.3173 271.382 91.2583L271.887 87.3875ZM273.163 117.109C273.433 117.167 273.704 117.215 273.975 117.253C274.247 117.292 274.519 117.321 274.792 117.34C275.142 117.364 275.495 117.359 275.85 117.325C276.226 117.273 276.564 117.189 276.866 117.073C277.189 116.939 277.456 116.752 277.669 116.512C277.881 116.273 278 115.968 278.026 115.597C278.053 115.208 277.957 114.761 277.738 114.256C277.539 113.733 277.253 113.204 276.879 112.669C276.526 112.116 276.104 111.577 275.612 111.053C275.119 110.53 274.604 110.063 274.065 109.653L273.163 117.109ZM267.7 97.3158C267.682 97.5691 267.752 97.8285 267.91 98.094C268.069 98.34 268.277 98.5894 268.533 98.8422C268.791 99.0756 269.079 99.3012 269.397 99.5191C269.714 99.7371 270.023 99.9446 270.322 100.142L270.795 95.8869C270.422 95.9 270.048 95.9327 269.672 95.9848C269.317 96.0188 268.999 96.0945 268.717 96.2119C268.436 96.3098 268.201 96.4501 268.012 96.6327C267.824 96.7958 267.72 97.0235 267.7 97.3158ZM292.022 111.14C291.941 112.309 292.147 113.42 292.642 114.472C293.157 115.507 293.856 116.436 294.738 117.261C295.622 118.067 296.652 118.726 297.831 119.239C299.01 119.732 300.233 120.023 301.5 120.112C301.889 120.139 302.291 120.137 302.704 120.107C303.119 120.058 303.498 119.957 303.841 119.805C304.184 119.653 304.473 119.448 304.706 119.19C304.941 118.912 305.073 118.559 305.103 118.131C305.16 117.312 304.924 116.483 304.395 115.644C303.886 114.806 303.191 113.964 302.31 113.12C301.43 112.256 300.414 111.392 299.26 110.528C298.108 109.645 296.935 108.771 295.743 107.904C294.55 107.038 293.377 106.173 292.223 105.31C291.071 104.427 290.054 103.563 289.173 102.718C288.294 101.854 287.589 101.002 287.061 100.163C286.553 99.3052 286.327 98.4672 286.384 97.6488C286.438 96.8695 286.684 96.1622 287.119 95.5269C287.576 94.8734 288.155 94.297 288.855 93.7976C289.556 93.2983 290.359 92.8648 291.266 92.4973C292.172 92.1297 293.113 91.8331 294.088 91.6074C295.064 91.3817 296.033 91.2339 296.997 91.164C297.982 91.0761 298.913 91.0626 299.79 91.1237C300.433 91.1685 301.133 91.2369 301.89 91.3288C302.668 91.4026 303.383 91.5406 304.035 91.7426C304.707 91.9265 305.257 92.1802 305.685 92.5037C306.113 92.8272 306.308 93.2617 306.27 93.8073C306.257 93.9826 306.213 94.2047 306.135 94.4734C306.059 94.7226 305.864 95.1397 305.549 95.7247C305.236 96.2707 304.885 96.677 304.495 96.9434C304.125 97.1917 303.657 97.2962 303.092 97.2568C302.294 97.2012 301.452 97.0544 300.568 96.8166C299.705 96.5606 298.825 96.4014 297.929 96.339C297.442 96.305 296.943 96.2996 296.432 96.3228C295.942 96.3278 295.488 96.3842 295.07 96.4921C294.652 96.5805 294.308 96.7425 294.037 96.9781C293.768 97.1943 293.62 97.4875 293.594 97.8577C293.568 98.2279 293.802 98.6651 294.296 99.1694C294.809 99.675 295.484 100.241 296.321 100.867C297.178 101.495 298.148 102.189 299.23 102.949C300.314 103.691 301.413 104.492 302.528 105.352C303.664 106.195 304.766 107.094 305.835 108.05C306.905 108.986 307.845 109.972 308.654 111.007C309.484 112.024 310.124 113.087 310.575 114.195C311.046 115.305 311.242 116.434 311.162 117.584C311.064 118.987 310.656 120.202 309.938 121.228C309.221 122.255 308.33 123.094 307.267 123.744C306.203 124.394 305.046 124.852 303.794 125.117C302.54 125.402 301.329 125.503 300.16 125.422C298.972 125.339 297.774 125.109 296.567 124.731C295.378 124.374 294.237 123.893 293.143 123.288C292.048 122.703 291.029 122.015 290.086 121.225C289.163 120.417 288.373 119.539 287.714 118.593C287.057 117.627 286.551 116.603 286.196 115.521C285.86 114.44 285.732 113.325 285.812 112.175C285.846 111.688 285.909 111.203 286.002 110.72C286.115 110.219 286.272 109.79 286.473 109.432C286.676 109.054 286.941 108.759 287.269 108.547C287.599 108.316 288.007 108.217 288.494 108.251C288.65 108.262 288.824 108.293 289.016 108.346C289.209 108.379 289.544 108.49 290.02 108.68C290.573 108.895 291.05 109.212 291.452 109.632C291.874 110.033 292.064 110.536 292.022 111.14ZM326.647 129.265C324.523 129.117 322.59 128.62 320.848 127.774C319.125 126.93 317.665 125.82 316.469 124.444C315.274 123.049 314.378 121.43 313.783 119.587C313.187 117.745 312.964 115.742 313.115 113.579C313.196 112.41 313.372 111.297 313.641 110.238C313.932 109.162 314.285 108.169 314.701 107.258C314.882 106.899 314.978 106.641 314.989 106.485C315.003 106.29 314.967 106.102 314.882 105.92C314.797 105.738 314.702 105.545 314.599 105.342C314.496 105.139 314.403 104.927 314.32 104.706C314.238 104.485 314.206 104.238 314.225 103.965C314.282 103.147 314.806 102.381 315.795 101.666C316.786 100.933 318.072 100.317 319.653 99.8207C321.236 99.3045 323.015 98.9292 324.989 98.6948C326.964 98.4409 328.975 98.3853 331.021 98.5279C333.534 98.7031 335.772 99.1821 337.734 99.9649C339.716 100.749 341.366 101.794 342.684 103.1C344.024 104.388 345.014 105.915 345.654 107.683C346.295 109.45 346.54 111.406 346.391 113.549C346.224 115.945 345.59 118.153 344.49 120.171C343.391 122.17 341.951 123.871 340.17 125.274C338.408 126.678 336.366 127.74 334.045 128.459C331.724 129.178 329.257 129.447 326.647 129.265ZM340.437 114.279C340.543 112.76 340.375 111.377 339.933 110.133C339.491 108.888 338.802 107.822 337.865 106.934C336.93 106.027 335.746 105.308 334.315 104.778C332.904 104.229 331.283 103.891 329.452 103.763C326.237 103.539 323.754 104.189 322.003 105.711C320.274 107.216 319.297 109.575 319.073 112.79C318.964 114.349 319.108 115.798 319.504 117.137C319.901 118.457 320.506 119.615 321.317 120.612C322.13 121.589 323.123 122.382 324.294 122.992C325.486 123.585 326.813 123.932 328.274 124.033C329.95 124.15 331.507 124.004 332.945 123.595C334.384 123.167 335.633 122.52 336.692 121.654C337.771 120.789 338.637 119.734 339.292 118.487C339.948 117.221 340.329 115.818 340.437 114.279ZM356.602 129.679C356.031 129.737 355.517 129.809 355.06 129.894C354.603 129.999 354.043 130.029 353.38 129.983C352.659 129.933 352.118 129.689 351.757 129.253C351.396 128.817 351.233 128.345 351.268 127.839C351.297 127.429 351.402 126.908 351.583 126.275C351.765 125.622 351.88 124.964 351.926 124.302C351.965 121.779 351.953 119.281 351.89 116.81C351.848 114.321 351.791 112.046 351.72 109.985C351.648 107.924 351.584 106.168 351.529 104.715C351.475 103.243 351.466 102.244 351.503 101.717C351.527 101.367 351.637 101.051 351.833 100.771C352.03 100.472 352.293 100.216 352.621 100.004C352.949 99.7919 353.322 99.6416 353.739 99.5533C354.177 99.4467 354.63 99.4098 355.098 99.4424C356.013 99.5062 356.675 99.6992 357.084 100.021C357.493 100.324 357.725 100.79 357.779 101.421C358.033 105.648 358.154 109.523 358.143 113.046C358.154 116.552 358.101 119.837 357.985 122.903C357.954 123.351 358.047 123.7 358.265 123.95C358.502 124.202 358.815 124.341 359.205 124.368C359.984 124.423 360.776 124.439 361.58 124.416C362.386 124.375 363.191 124.333 363.997 124.291C364.803 124.249 365.598 124.217 366.383 124.193C367.188 124.151 367.961 124.156 368.702 124.208C369.189 124.242 369.574 124.327 369.858 124.465C370.162 124.603 370.385 124.776 370.527 124.981C370.689 125.188 370.781 125.42 370.802 125.676C370.844 125.914 370.857 126.15 370.841 126.383C370.815 126.754 370.75 127.121 370.646 127.486C370.543 127.851 370.382 128.182 370.166 128.48C369.951 128.759 369.671 128.984 369.326 129.156C368.98 129.347 368.552 129.445 368.043 129.448C365.63 129.515 363.426 129.538 361.43 129.516C359.454 129.496 357.845 129.55 356.602 129.679Z" fill="black"/>
</g>
<defs>
<clipPath id="clip0_1_230">
<rect width="426" height="188" fill="white" transform="matrix(-1 0 0 1 426 0)"/>
</clipPath>
</defs>
</svg>
