<svg width="24" height="24" viewBox="0 0 24 24" fill="none" xmlns="http://www.w3.org/2000/svg">
<path d="M19.6392 0.333252H9.02746C6.80694 0.333252 5.00001 2.14018 5.00001 4.3607V4.99992H4.36079C2.14028 4.99992 0.333344 6.80685 0.333344 9.02737V19.639C0.333344 21.8597 2.14028 23.6666 4.36079 23.6666H14.9724C17.0124 23.6666 18.685 22.1362 18.9466 20.1666H19.6391C21.8597 20.1666 23.6667 18.3597 23.6667 16.1391V4.3607C23.6667 2.14018 21.8597 0.333252 19.6392 0.333252ZM21.3333 16.1391C21.3333 17.0733 20.5734 17.8333 19.6392 17.8333H19V9.02737C19 6.80685 17.1931 4.99992 14.9726 4.99992H7.33334V4.3607C7.33334 3.42655 8.09331 2.66659 9.02746 2.66659H19.6391C20.5734 2.66659 21.3333 3.42655 21.3333 4.3607V16.1391Z" fill="black"/>
</svg>
