<svg width="140" height="140" viewBox="0 0 140 140" fill="none" xmlns="http://www.w3.org/2000/svg">
<path d="M105.314 74.8107C104.217 74.3093 103.736 73.0142 104.238 71.9175C104.739 70.8208 106.034 70.3404 107.131 70.8417C113.126 73.5886 118.965 77.4114 122.902 81.8504C125.66 84.9629 127.519 88.4096 127.905 92.0339C128.302 95.7626 127.185 99.5749 123.968 103.293C121.043 106.677 116.312 110.009 109.314 113.122C96.749 118.709 76.4968 118.469 57.7904 115.336C57.4875 116.14 57.1011 116.934 56.652 117.717C55.2002 120.276 53.0381 122.741 50.3643 125.039C46.3013 128.527 40.9955 131.692 35.2091 134.209V129.447C39.8883 127.253 44.1602 124.611 47.5129 121.728C49.8212 119.744 51.6699 117.665 52.8606 115.566C53.059 115.221 53.2366 114.876 53.3932 114.532C46.9176 113.278 40.7239 111.691 35.2091 109.905V105.299C40.9328 107.241 47.492 108.954 54.3437 110.291C54.3437 110.124 54.3333 109.946 54.3124 109.779C54.1453 108.108 53.4037 106.427 51.9728 104.766C48.0978 100.264 41.7057 95.9402 35.1987 93.1723V88.4618C42.8442 91.4176 50.6463 96.5355 55.2733 101.925C57.3204 104.306 58.3858 106.803 58.6365 109.362C58.6887 109.936 58.7096 110.521 58.6782 111.095C76.549 114.103 95.7358 114.375 107.507 109.142C113.878 106.312 118.098 103.377 120.636 100.442C122.986 97.7262 123.811 95.0419 123.539 92.4934C123.257 89.8405 121.795 87.2085 119.612 84.7435C116.113 80.7954 110.807 77.3383 105.293 74.8211L105.314 74.8107ZM35.2196 134.209C28.3365 137.217 20.7851 139.306 13.8916 139.985C12.6905 140.1 11.6251 139.223 11.5102 138.032C11.3953 136.831 12.2622 135.766 13.4634 135.651C20.5344 134.961 28.3157 132.674 35.2091 129.447V134.209H35.2196ZM35.2196 109.905C34.3735 109.633 33.538 109.351 32.7233 109.069C26.8743 107.022 21.8922 104.745 18.3097 102.405C14.2989 99.7838 11.8967 96.922 11.7296 93.9975C11.6042 92.013 12.4502 90.1538 14.3929 88.4931C18.6648 84.8584 26.0805 85.2449 33.6842 87.8978C34.196 88.0754 34.7078 88.2634 35.2196 88.4618V93.1723C34.2273 92.7546 33.2351 92.3681 32.2533 92.0234C25.9969 89.8405 20.1479 89.3183 17.213 91.8041C16.3983 92.4934 16.0432 93.141 16.0745 93.7364C16.1581 95.1568 17.8397 96.8802 20.6911 98.7393C23.9602 100.88 28.6185 103.001 34.1438 104.933C34.4989 105.058 34.854 105.184 35.2091 105.299V109.905H35.2196Z" fill="#B707A5"/>
<path fill-rule="evenodd" clip-rule="evenodd" d="M79.651 2.63819C104.864 7.32783 121.513 31.5699 116.824 56.7937C112.134 82.007 87.8919 98.6558 62.668 93.9662C37.4547 89.2765 20.8059 65.0345 25.4956 39.8107C30.1956 14.5869 54.4377 -2.05146 79.651 2.63819Z" fill="#F34AE2"/>
<path d="M53.905 3.52595C54.3959 2.42926 55.691 1.93836 56.7877 2.43971C57.8844 2.94105 58.3753 4.22574 57.8739 5.32243C55.5761 10.409 52.4427 28.5095 59.9106 50.0255C64.4332 63.0604 72.8829 77.2965 87.7978 90.5507C88.6961 91.3549 88.7796 92.7337 87.9859 93.6319C87.1816 94.5301 85.8029 94.6137 84.9047 93.8094C69.363 79.9912 60.5373 65.1076 55.7955 51.4355C47.8889 28.6453 51.3878 9.07205 53.905 3.50506V3.52595Z" fill="#B707A5"/>
<path d="M48.8602 5.54175C49.2467 4.40329 50.4896 3.78705 51.628 4.18395C52.7665 4.5704 53.3827 5.81331 52.9858 6.96222C50.03 15.5373 45.685 34.9956 51.9518 55.676C55.879 68.6274 63.984 82.0697 79.2437 93.6423C80.2046 94.363 80.3926 95.7313 79.6719 96.6922C78.9408 97.6531 77.583 97.8411 76.6221 97.1204C60.5164 84.9106 51.9414 70.6641 47.774 56.9294C41.1625 35.1001 45.7373 14.5868 48.8602 5.54175Z" fill="#B707A5"/>
<path d="M57.5606 2.98282C57.7173 1.79213 58.814 0.946114 60.0151 1.11323C61.2058 1.2699 62.0518 2.36659 61.8847 3.56772C60.8402 11.5892 59.9002 23.2872 64.1407 37.3353C68.4022 51.446 77.9172 67.9903 97.8247 85.6835C98.723 86.4877 98.8065 87.8664 98.0023 88.7647C97.198 89.6629 95.8193 89.7465 94.9211 88.9422C74.3138 70.6328 64.4332 53.3782 59.9629 38.5886C55.4821 23.7363 56.4639 11.4221 57.5606 2.98282Z" fill="#B707A5"/>
<path d="M24.6809 56.4908C23.7409 55.7492 23.5737 54.3705 24.3258 53.4305C25.0673 52.48 26.446 52.3233 27.386 53.0754C31.7623 56.543 48.5678 63.9482 71.2535 61.9115C85.0091 60.6686 100.864 55.9163 117.335 44.657C118.328 43.9781 119.685 44.2392 120.364 45.2314C121.043 46.2237 120.782 47.5815 119.79 48.2604C102.619 60.0106 86.0432 64.9718 71.6504 66.2669C47.6173 68.429 29.475 60.303 24.6809 56.5116V56.4908Z" fill="#B707A5"/>
<path d="M25.412 61.8593C24.3989 61.2013 24.1064 59.8539 24.7644 58.8408C25.4225 57.8276 26.7698 57.5352 27.7829 58.1932C35.3866 63.1335 53.2052 72.0532 74.8047 70.967C88.3201 70.2881 103.329 65.6716 118.244 53.6707C119.184 52.9187 120.552 53.0649 121.315 53.9945C122.067 54.9345 121.921 56.3027 120.991 57.0652C105.24 69.745 89.3541 74.6226 75.0241 75.3433C52.2547 76.4818 33.4439 67.0712 25.4225 61.8593H25.412Z" fill="#B707A5"/>
<path d="M25.0465 52.8142C23.9289 52.3755 23.3649 51.1117 23.814 49.9837C24.2527 48.8557 25.5165 48.3021 26.6445 48.7408C34.1751 51.6966 45.3091 55.4358 59.963 54.7151C74.7004 53.9945 93.0516 48.7617 115.027 33.7319C116.019 33.053 117.377 33.3141 118.056 34.3063C118.735 35.2986 118.474 36.6564 117.482 37.3353C94.7227 52.9082 75.5986 58.329 60.1719 59.081C44.672 59.8435 32.9636 55.9058 25.0465 52.8038V52.8142Z" fill="#B707A5"/>
<path d="M35.5015 18.514C34.3944 18.044 33.8826 16.7697 34.3421 15.6626C34.8121 14.5555 36.0864 14.0332 37.1935 14.5033C44.4108 17.574 56.5266 20.2583 69.645 18.6602C79.0452 17.5113 88.9363 14.1481 97.8769 7.11889C98.8169 6.37732 100.196 6.53399 100.937 7.48446C101.679 8.42447 101.522 9.80317 100.582 10.5447C90.9312 18.138 80.2777 21.7623 70.1673 22.9948C56.2028 24.6972 43.2514 21.8145 35.5015 18.514Z" fill="#B707A5"/>
<path d="M31.6892 24.3943C30.5821 23.9243 30.0703 22.6501 30.5299 21.543C30.9999 20.4358 32.2846 19.9136 33.3917 20.3836C40.6507 23.4752 55.5448 25.8984 71.0133 23.705C81.9384 22.1592 93.0828 18.2842 101.909 10.6805C102.817 9.89718 104.196 10.0016 104.99 10.9103C105.773 11.819 105.669 13.1977 104.76 13.9915C95.2344 22.201 83.2858 26.3684 71.6296 28.0186C55.3359 30.3373 39.4914 27.7157 31.6997 24.3943H31.6892Z" fill="#B707A5"/>
<path d="M27.5845 30.7029C26.4982 30.1807 26.0387 28.8751 26.5505 27.7889C27.0727 26.7026 28.3783 26.2431 29.4645 26.7549C38.52 31.0685 53.4245 32.5307 68.6528 30.0762C81.6355 27.9873 94.7644 23.0366 104.593 14.5764C105.502 13.7931 106.88 13.8975 107.674 14.8062C108.457 15.7149 108.353 17.0936 107.444 17.8873C96.9474 26.9324 83.0455 32.1861 69.3526 34.4003C53.2783 36.9906 37.3816 35.3717 27.5949 30.7029H27.5845Z" fill="#B707A5"/>
<path d="M52.2861 92.859C51.1999 93.3917 49.8943 92.9425 49.3616 91.8667C48.829 90.7805 49.2781 89.4749 50.3539 88.9422C55.3673 86.4669 69.7182 73.9228 77.9173 52.0831C82.8785 38.8915 85.5314 22.3681 82.4294 2.69036C82.2414 1.49967 83.0561 0.382096 84.2467 0.194093C85.4374 0.00608917 86.555 0.820771 86.743 2.01146C89.9704 22.5352 87.1921 39.8106 82.0116 53.5976C73.3425 76.6698 57.7591 90.1538 52.2757 92.8485L52.2861 92.859Z" fill="#B707A5"/>
<path d="M60.151 95.0001C59.1274 95.6268 57.7905 95.3135 57.1533 94.2899C56.5267 93.2663 56.84 91.9294 57.8636 91.2923C65.4673 86.6235 79.7242 73.8079 87.1817 53.5976C91.9967 40.5522 93.9603 24.4361 89.4377 5.45819C89.1662 4.28839 89.8869 3.11859 91.0567 2.83658C92.2265 2.55458 93.3963 3.2857 93.6783 4.4555C98.4306 24.4048 96.3625 41.3669 91.2864 55.1016C83.4112 76.4296 68.256 90.018 60.151 95.0001Z" fill="#B707A5"/>
<path d="M48.1813 89.5689C47.304 90.394 45.9253 90.3522 45.1001 89.4749C44.275 88.5975 44.3168 87.2189 45.1941 86.3937C46.1028 85.5477 46.9384 84.7748 47.8366 83.9601C60.5582 72.3561 83.6304 51.3206 75.9432 2.52325C75.7552 1.33256 76.5699 0.214982 77.7605 0.0269785C78.9512 -0.161025 80.0688 0.653657 80.2568 1.84435C88.2992 52.9604 64.1094 75.0195 50.782 87.1875C49.8107 88.0753 48.8915 88.9109 48.1813 89.5793V89.5689Z" fill="#B707A5"/>
</svg>
