<svg width="140" height="140" viewBox="0 0 140 140" fill="none" xmlns="http://www.w3.org/2000/svg">
<path d="M34.1 119.335C52.9329 119.335 68.2 118.032 68.2 116.424C68.2 114.817 52.9329 113.514 34.1 113.514C15.2671 113.514 0 114.817 0 116.424C0 118.032 15.2671 119.335 34.1 119.335Z" fill="#C09D3E"/>
<path d="M83.5257 119.335C102.359 119.335 117.626 118.032 117.626 116.424C117.626 114.817 102.359 113.514 83.5257 113.514C64.6928 113.514 49.4257 114.817 49.4257 116.424C49.4257 118.032 64.6928 119.335 83.5257 119.335Z" fill="#C09D3E"/>
<path d="M80.0363 49.5259C80.1359 50.0091 80.2502 50.4849 80.372 50.9571C81.2056 55.0107 82.6514 58.8689 84.6063 62.2291C85.2113 63.2729 85.8678 64.2688 86.5686 65.2094C87.1883 66.0429 87.926 67.1495 88.8555 67.286C89.3128 67.3524 89.7296 67.1311 90.0985 66.8138C90.5632 66.4155 90.9874 65.9249 91.4227 65.4749C92.3522 64.5122 93.2853 63.5532 94.2148 62.5905C94.5062 62.2881 94.8013 61.9856 95.0927 61.6832C95.1222 61.6905 95.1517 61.6832 95.1812 61.65C95.4837 61.3254 95.7898 61.0045 96.0923 60.6799C96.1439 60.6283 96.1697 60.5287 96.1218 60.4512C94.2148 57.15 93.1046 53.2329 92.4185 49.2567C92.1677 47.8108 91.9833 46.3575 91.8173 44.8969C91.7546 44.0596 91.6735 43.226 91.5591 42.3961C91.5407 42.2633 91.5222 42.1305 91.5001 41.9977C91.2972 40.2605 91.0354 38.5232 90.5116 36.8855C89.5342 33.8278 87.2178 30.8216 84.5326 31.3491C84.4662 31.3639 84.3998 31.3786 84.3334 31.397C84.326 31.397 84.3186 31.397 84.3076 31.397C81.6482 32.0204 80.2244 35.3327 79.7117 38.5601C79.1437 42.1379 79.2912 45.9481 80.0363 49.5149V49.5259Z" fill="white"/>
<path d="M79.8298 49.5554C80.4679 52.5726 81.2535 55.5492 82.456 58.3894C83.6215 61.141 85.1264 63.745 86.9596 66.0909C87.6235 66.9393 88.6157 67.9278 89.7518 67.3155C90.353 66.9909 90.8177 66.4229 91.2825 65.9323C91.8431 65.3348 92.4185 64.752 92.9866 64.1655C93.5435 63.5901 94.1042 63.011 94.6611 62.4356C95.1296 61.9524 95.6017 61.5135 96.0701 61.0192C96.2287 60.8496 96.4058 60.6947 96.3357 60.4402C96.2951 60.2852 96.1771 60.1377 96.0997 59.9975C95.9927 59.8057 95.8894 59.6139 95.7898 59.4184C95.4431 58.7471 95.1296 58.0574 94.8456 57.3603C93.6579 54.4574 92.9423 51.3665 92.4665 48.2682C91.987 45.1698 91.869 42.0162 91.2456 38.94C90.7661 36.5535 89.8772 34.1228 88.0883 32.4224C87.3838 31.7548 86.5059 31.2237 85.5322 31.113C84.492 30.995 83.4223 31.3712 82.6035 32.013C80.5675 33.6028 79.7892 36.4945 79.4388 38.9584C79.033 41.7838 79.0699 44.6756 79.4683 47.4973C79.5642 48.187 79.6859 48.8768 79.8298 49.5591C79.8851 49.8247 80.2982 49.7694 80.2429 49.5001C79.6859 46.8075 79.4572 44.0412 79.6232 41.2896C79.7781 38.7187 80.1839 35.9339 81.615 33.7429C82.2457 32.7765 83.1236 31.9393 84.2522 31.6405C85.1928 31.3897 86.126 31.5483 86.9559 32.0647C88.778 33.2044 89.8624 35.3843 90.4489 37.4056C91.2714 40.2383 91.3931 43.2297 91.7546 46.1436C92.1161 49.0759 92.6399 51.9935 93.503 54.8189C93.9308 56.2095 94.4398 57.5779 95.0669 58.891C95.207 59.1898 95.3546 59.4848 95.5095 59.7762C95.5943 59.9385 95.6828 60.0971 95.7714 60.2557C95.8636 60.4217 95.9853 60.4918 95.8488 60.643C95.3988 61.1483 94.912 61.5762 94.4435 62.0557C93.3923 63.1401 92.3411 64.2245 91.2936 65.3126C90.7993 65.8253 90.3309 66.4229 89.7407 66.8286C89.1911 67.2048 88.6378 67.1163 88.1288 66.7216C87.6752 66.3675 87.3248 65.8917 86.9854 65.4307C86.5612 64.8553 86.1371 64.2762 85.7424 63.6786C84.942 62.4651 84.2264 61.1963 83.592 59.8869C82.3158 57.257 81.3568 54.4648 80.7187 51.6025C80.5601 50.9017 80.3867 50.2009 80.2392 49.4964C80.1839 49.2309 79.7707 49.2862 79.8261 49.5554H79.8298Z" fill="#010101"/>
<path d="M122.247 87.6279C121.79 87.5135 121.34 87.3844 120.894 87.2443C117.058 86.2816 113.428 84.6992 110.289 82.6152C109.315 81.9697 108.386 81.2726 107.512 80.5349C106.737 79.8784 105.708 79.0964 105.605 78.1485C105.557 77.6837 105.782 77.2632 106.095 76.8944C106.49 76.4333 106.973 76.0165 107.416 75.585C108.364 74.6665 109.312 73.7481 110.26 72.826C110.558 72.5383 110.854 72.2469 111.152 71.9592C111.145 71.9297 111.152 71.9002 111.186 71.8707C111.503 71.5719 111.82 71.2694 112.137 70.9707C112.189 70.9227 112.285 70.8969 112.358 70.9449C115.442 72.9772 119.138 74.2202 122.904 75.0317C124.272 75.3268 125.655 75.5591 127.039 75.7694C127.835 75.8579 128.628 75.9649 129.414 76.105C129.539 76.1272 129.665 76.1493 129.79 76.1751C131.439 76.4296 133.088 76.7505 134.63 77.3296C137.51 78.4103 140.302 80.8521 139.709 83.5705C139.694 83.6369 139.675 83.707 139.657 83.7734C139.657 83.7808 139.657 83.7881 139.657 83.7992C138.975 86.4881 135.769 87.8418 132.678 88.2697C129.252 88.7455 125.622 88.4836 122.247 87.6242V87.6279Z" fill="white"/>
<path d="M122.284 87.4213C118.78 86.5213 115.372 85.3558 112.211 83.5558C110.618 82.6448 109.098 81.5972 107.689 80.4132C107.084 79.9042 106.365 79.3952 105.988 78.6759C105.509 77.7649 106.202 77.0493 106.818 76.4518C107.611 75.6809 108.415 74.9174 109.212 74.1465C109.629 73.7444 110.042 73.3387 110.459 72.9367C110.647 72.7522 110.839 72.5678 111.027 72.3871C111.178 72.2395 111.352 72.1363 111.363 71.9113C111.348 71.9629 111.329 72.0145 111.315 72.0662C111.433 71.8928 111.628 71.7527 111.779 71.6125C111.864 71.5314 111.953 71.4502 112.038 71.3654C112.159 71.2473 112.226 71.1588 112.395 71.2326C112.572 71.3064 112.746 71.4576 112.912 71.5572C113.1 71.6715 113.292 71.7859 113.483 71.8928C114.247 72.3244 115.033 72.7154 115.833 73.0621C117.423 73.7555 119.075 74.3014 120.75 74.744C122.579 75.2309 124.438 75.585 126.308 75.8801C128.171 76.1715 130.041 76.3817 131.889 76.7764C133.604 77.1415 135.297 77.6801 136.769 78.6686C137.986 79.4874 139.225 80.6788 139.517 82.1984C139.782 83.5632 139.148 84.9316 138.163 85.839C137.116 86.8053 135.743 87.366 134.39 87.7238C132.723 88.1627 130.971 88.2992 129.252 88.3029C127.363 88.3066 125.475 88.1111 123.623 87.7349C123.173 87.6426 122.723 87.5394 122.277 87.425C122.015 87.3586 121.941 87.7754 122.199 87.8418C125.899 88.7787 129.934 89.0922 133.693 88.3176C136.326 87.7754 139.675 86.3332 139.97 83.2017C140.118 81.6562 139.259 80.2731 138.182 79.2587C136.909 78.0636 135.319 77.2928 133.671 76.7948C132.715 76.5071 131.738 76.3006 130.757 76.1272C129.775 75.9575 128.794 75.7842 127.806 75.6588C125.785 75.4006 123.774 75.0539 121.794 74.5744C119.938 74.128 118.101 73.5637 116.338 72.8223C115.497 72.4682 114.675 72.0736 113.878 71.6346C113.476 71.4133 113.081 71.1773 112.694 70.9301C112.543 70.8342 112.399 70.7051 112.215 70.7236C112.019 70.742 111.886 70.9228 111.754 71.0482C111.565 71.2252 111.377 71.4023 111.189 71.5793C111.053 71.7084 110.942 71.7932 110.935 71.9887C110.949 71.9371 110.968 71.8854 110.983 71.8338C109.5 73.2723 108.013 74.7034 106.531 76.1383C105.959 76.6915 105.266 77.3739 105.402 78.2555C105.524 79.03 106.132 79.6313 106.686 80.1218C109.485 82.5968 112.709 84.5443 116.154 85.9312C118.116 86.7205 120.156 87.3144 122.203 87.8381C122.465 87.9045 122.539 87.4877 122.28 87.4213H122.284Z" fill="#010101"/>
<path d="M81.5597 100.755C85.0637 99.1729 88.4645 97.3471 91.6808 95.2188C94.8677 93.1127 97.8701 90.7152 100.589 88.0152C101.979 86.6358 103.296 85.1788 104.524 83.6481C105.767 82.1063 106.874 80.4649 108.043 78.8678C109.293 77.1637 110.562 75.4633 111.606 73.6191C112.122 72.7044 112.587 71.749 112.938 70.7531C110.861 67.072 107.936 63.9073 104.458 61.5615C102.676 60.359 100.751 59.3668 98.7369 58.6365C96.5755 57.8508 94.1226 57.2312 91.939 58.2713C90.8915 58.7693 90.0063 59.5475 89.1727 60.3443C88.2948 61.1889 87.4354 62.0557 86.5871 62.9299C84.883 64.693 83.2379 66.5114 81.6519 68.3851C78.4613 72.1511 75.5179 76.131 72.8438 80.2916C71.5012 82.3792 70.225 84.5149 69.0225 86.6911C68.425 87.7681 67.8459 88.8562 67.2889 89.9517C66.7172 91.0767 66.1492 92.2865 66.1824 93.5812C66.2377 95.7315 67.9528 97.2733 69.4504 98.5532C71.3278 100.158 73.2016 101.766 75.079 103.37C77.2699 102.581 79.4351 101.714 81.5597 100.755Z" fill="white"/>
<path d="M103.93 84.0427C98.5599 90.5455 91.6624 95.5545 84.1932 99.2725C83.2932 99.7188 82.3859 100.15 81.4674 100.563C79.3834 101.5 77.2663 102.352 75.1196 103.131C73.445 101.699 71.7741 100.268 70.1032 98.8372C68.8233 97.7417 67.359 96.6168 66.6951 94.9975C65.8578 92.9615 66.9975 90.9512 67.9233 89.1771C68.945 87.2222 70.0258 85.2968 71.1581 83.4083C75.5991 76.0055 80.881 69.1302 86.8637 62.952C87.6014 62.1885 88.3502 61.436 89.1137 60.6983C89.8255 60.0123 90.5559 59.3262 91.4005 58.8098C93.1304 57.7512 95.1001 57.7955 96.9996 58.3045C100.802 59.3225 104.369 61.4139 107.302 64.0548C108.688 65.3015 109.943 66.6995 111.049 68.2081C111.388 68.6728 111.75 69.156 112.071 69.654C112.174 69.5765 112.277 69.4953 112.384 69.4179C112.137 69.0269 111.879 68.6433 111.613 68.2671C110.429 66.5962 109.061 65.0655 107.545 63.7007C105.97 62.2844 104.236 61.0598 102.385 60.0491C100.53 59.0385 98.5267 58.1791 96.4611 57.7291C95.48 57.5152 94.462 57.4266 93.4661 57.5779C92.4849 57.7254 91.5886 58.1348 90.7698 58.7028C89.8882 59.3151 89.1174 60.0823 88.3538 60.8348C87.4981 61.6758 86.6608 62.5315 85.8346 63.402C82.6219 66.7806 79.6121 70.3584 76.8384 74.117C74.0204 77.9309 71.4385 81.9292 69.1147 86.0788C68.5467 87.0894 67.9971 88.1111 67.4623 89.1402C66.9274 90.1656 66.3594 91.2057 66.0975 92.3455C65.666 94.2524 66.459 95.9159 67.7463 97.2659C68.4028 97.9557 69.1332 98.5606 69.8524 99.1766C70.7745 99.9659 71.693 100.752 72.6151 101.541C73.0761 101.936 73.5372 102.33 73.9946 102.721C74.2233 102.917 74.4556 103.116 74.6843 103.311C74.8466 103.452 74.9462 103.592 75.1601 103.558C75.4294 103.518 75.7245 103.356 75.979 103.26C76.2741 103.149 76.5655 103.042 76.8605 102.928C77.4064 102.721 77.9486 102.507 78.4871 102.29C79.5457 101.862 80.597 101.412 81.6408 100.943C85.783 99.0696 89.785 96.8565 93.5066 94.2156C97.1841 91.6078 100.574 88.5832 103.532 85.1566C104.919 83.5522 106.154 81.8333 107.394 80.1108C107.279 80.0296 107.169 79.9374 107.062 79.8452C106.044 81.2653 105.033 82.6891 103.919 84.039L103.93 84.0427Z" fill="#221F1F"/>
<path d="M110.064 73.6781C111.079 74.0027 112.104 74.2719 113.14 74.4711C115.774 74.9801 118.492 74.9064 120.964 73.7629C126.316 71.288 128.986 65.5782 130.58 60.1488C130.738 59.6029 130.889 59.057 131.041 58.5111C132.697 57.707 134.334 56.8439 135.777 55.6783C137.068 54.6345 138.691 53.089 138.58 51.2484C138.473 49.4448 136.725 48.2571 135.371 47.3792C133.837 46.3833 132.191 45.5682 130.473 44.9485C129.248 44.5059 127.987 44.1666 126.707 43.9342C124.206 41.0092 121.115 38.6265 117.674 36.963C117.124 36.6974 116.563 36.454 115.999 36.2253C114.151 33.2487 111.754 30.6335 108.943 28.5717C107.582 27.5721 105.974 26.366 104.236 27.1295C102.724 27.7934 101.691 29.4016 101.053 30.8807C100.408 32.3819 100.127 34.0306 100.231 35.6609C98.1615 37.0146 96.2472 38.608 94.532 40.3969C92.5218 42.1527 90.8214 44.2145 89.7555 46.7854C88.7669 49.1681 88.553 51.7722 89.1321 54.2914C89.7149 56.8144 90.969 59.1307 92.4849 61.1926C93.2743 62.2659 94.1374 63.2913 95.0595 64.2577" fill="white"/>
<path d="M138.584 51.2447C138.477 49.4411 136.728 48.2534 135.375 47.3755C133.84 46.3796 132.195 45.5645 130.476 44.9448C129.252 44.5022 127.99 44.1629 126.71 43.9305C124.21 41.0055 121.119 38.6228 117.677 36.9593C117.26 36.7601 116.84 36.5683 116.416 36.3912C115.21 39.2646 114.276 42.2928 114.501 45.4428C114.741 48.7698 116.346 52.023 119.462 53.4025C120.982 54.0738 122.708 54.2214 124.272 53.6275C124.66 57.1426 126.961 60.2852 130.037 61.8713C130.233 61.2959 130.41 60.7205 130.58 60.1487C130.738 59.6028 130.889 59.057 131.041 58.5111C132.697 57.707 134.334 56.8439 135.777 55.6783C137.068 54.6345 138.691 53.089 138.58 51.2484L138.584 51.2447Z" fill="#434244"/>
<path d="M109.979 73.9031C113.587 75.0502 117.556 75.6219 121.111 73.9658C124.785 72.2506 127.304 68.9015 128.975 65.2499C129.953 63.1143 130.653 60.868 131.269 58.5996C131.225 58.6438 131.184 58.6881 131.14 58.736C132.892 57.884 134.622 56.9582 136.131 55.7041C137.175 54.8373 138.266 53.7824 138.672 52.4324C138.879 51.7464 138.882 51.0197 138.639 50.3411C138.37 49.5886 137.835 48.9653 137.248 48.4452C136.643 47.9067 135.965 47.464 135.286 47.0325C134.482 46.5235 133.645 46.0587 132.789 45.6493C130.867 44.7272 128.831 44.078 126.744 43.6907C126.795 43.7202 126.851 43.7497 126.902 43.7829C125.098 41.6842 123.003 39.8473 120.68 38.3646C119.518 37.6195 118.297 36.9593 117.039 36.3986C116.881 36.3285 116.726 36.2621 116.567 36.1957C116.423 36.133 116.242 36.0961 116.132 35.9781C116.01 35.8527 115.922 35.6462 115.822 35.4986C115.719 35.34 115.612 35.1814 115.505 35.0228C115.095 34.4253 114.664 33.8462 114.214 33.2855C112.51 31.172 110.499 29.3167 108.272 27.786C107.486 27.2475 106.608 26.7348 105.642 26.6573C104.532 26.5651 103.51 27.1221 102.728 27.8893C100.729 29.8515 99.8361 32.9277 100.002 35.6978C100.032 35.624 100.061 35.5503 100.091 35.4728C99.0431 36.1625 98.0287 36.9076 97.0623 37.7154C96.5791 38.1174 96.1107 38.5342 95.6497 38.9658C95.1923 39.3937 94.7718 39.8621 94.3107 40.2826C92.6251 41.8133 91.1313 43.51 90.0727 45.5571C89.1247 47.3903 88.5788 49.4226 88.5825 51.4992C88.5825 53.6865 89.1801 55.8148 90.1243 57.7697C91.3157 60.2409 93.0087 62.443 94.8788 64.4163C95.089 64.6376 95.4652 64.3425 95.255 64.1175C92.2009 60.8938 89.3497 56.8217 89.0805 52.2037C88.826 47.8661 91.0686 43.9489 94.1337 41.0977C95.1222 40.1793 96.0628 39.2092 97.0882 38.3314C98.1357 37.4388 99.2385 36.6162 100.386 35.8601C100.459 35.8121 100.478 35.7162 100.474 35.6351C100.382 34.1081 100.629 32.5736 101.205 31.161C101.773 29.7667 102.643 28.2987 103.975 27.5389C105.122 26.886 106.306 27.1516 107.394 27.7971C108.593 28.5089 109.71 29.4163 110.754 30.3421C112.012 31.4597 113.163 32.6991 114.195 34.0343C114.719 34.7093 115.21 35.4138 115.667 36.1367C115.781 36.3175 115.833 36.4134 116.025 36.4982C116.198 36.5757 116.379 36.642 116.552 36.7195C116.969 36.9002 117.382 37.0884 117.792 37.2912C120.706 38.726 123.369 40.6957 125.611 43.0674C125.877 43.3477 126.135 43.6317 126.386 43.9231C126.507 44.0633 126.567 44.1444 126.74 44.1924C126.965 44.2514 127.201 44.2809 127.43 44.3325C128.223 44.5059 129.005 44.7198 129.775 44.9706C131.314 45.476 132.8 46.1399 134.205 46.9513C135.419 47.6522 136.776 48.4415 137.654 49.5739C138.075 50.1161 138.362 50.7652 138.351 51.4697C138.344 52.0673 138.134 52.6464 137.831 53.1517C137.189 54.225 136.205 55.0771 135.22 55.8148C134.515 56.3459 133.766 56.8143 132.999 57.2385C132.664 57.4266 132.324 57.6037 131.981 57.7807C131.775 57.884 131.572 57.9873 131.365 58.0906C131.207 58.168 130.963 58.2307 130.853 58.3746C130.764 58.4852 130.742 58.7324 130.705 58.8688C130.65 59.068 130.594 59.2709 130.539 59.4701C130.425 59.8684 130.31 60.2668 130.189 60.6651C129.964 61.3991 129.72 62.1258 129.455 62.845C128.901 64.3389 128.256 65.8032 127.459 67.1753C125.91 69.8458 123.774 72.1879 120.978 73.5047C118.319 74.7588 115.354 74.7293 112.536 74.1059C111.735 73.9289 110.942 73.7113 110.16 73.4605C109.869 73.3682 109.692 73.8182 109.983 73.9105L109.979 73.9031Z" fill="#211E1F"/>
<path d="M134.006 52.2554C132.811 52.1152 131.609 52.2664 130.484 52.6943C130.303 52.7644 130.421 53.041 130.598 52.9746C131.679 52.5652 132.826 52.4213 133.969 52.5541C134.161 52.5763 134.194 52.2738 134.006 52.2517V52.2554Z" fill="#211E1F"/>
<path d="M106.151 31.3233C106.678 32.4224 106.936 33.6286 106.914 34.8531C106.914 35.0486 106.612 35.0302 106.616 34.8347C106.638 33.6618 106.387 32.511 105.882 31.4597C105.797 31.2827 106.066 31.1499 106.147 31.327L106.151 31.3233Z" fill="#211E1F"/>
<path d="M114.944 51.6173C114.631 51.112 114.136 50.7173 113.649 50.3927C113.255 50.1271 112.72 49.7693 112.222 49.9353C112.178 49.9501 112.141 49.9685 112.104 49.987C111.971 50.046 111.853 50.1382 111.757 50.2636C111.433 50.6952 111.429 51.337 111.543 51.8423C111.617 52.1669 111.754 52.4656 111.938 52.7275C111.676 53.0558 111.444 53.4099 111.237 53.7824C111.219 53.7824 111.2 53.7787 111.182 53.7824C110.245 53.8488 109.268 53.9373 108.486 54.5238C107.788 55.0512 107.445 55.9144 107.678 56.7812C107.899 57.6037 108.615 58.2639 109.422 58.4594C110.26 58.6623 110.949 58.2086 111.304 57.4451C111.772 56.4307 111.757 55.1619 111.547 54.0849C111.547 54.0812 111.554 54.0775 111.554 54.0738C111.742 53.716 111.964 53.3767 112.211 53.0595C112.635 53.4763 113.207 53.7197 113.838 53.6718C114.317 53.6349 114.815 53.4099 115.062 52.9709C115.306 52.532 115.195 52.023 114.944 51.6173ZM110.953 57.2053C110.783 57.6037 110.503 57.9725 110.068 58.0647C109.574 58.168 109.05 57.9172 108.681 57.5963C107.91 56.925 107.796 55.7484 108.559 55.0217C109.253 54.3652 110.241 54.2767 111.145 54.214C111.326 55.1803 111.344 56.2869 110.953 57.2053Z" fill="#211E1F"/>
<path d="M125.172 57.2238C124.258 56.1135 122.657 55.9734 121.528 56.8254C121.31 56.9914 121.58 57.3197 121.797 57.1574C122.745 56.4455 124.084 56.5746 124.848 57.5004C125.611 58.4262 125.508 59.791 124.652 60.6209C124.457 60.809 124.722 61.1409 124.921 60.9528C125.939 59.968 126.087 58.3414 125.172 57.2312V57.2238Z" fill="#211E1F"/>
<path d="M106.855 43.8235C105.616 43.1116 104.07 43.5542 103.303 44.753C103.156 44.9854 103.521 45.1993 103.668 44.9669C104.31 43.9637 105.609 43.6022 106.645 44.196C107.678 44.7899 108.054 46.1067 107.538 47.1874C107.42 47.4345 107.785 47.6485 107.903 47.4013C108.515 46.114 108.095 44.5391 106.852 43.8272L106.855 43.8235Z" fill="#211E1F"/>
<path d="M117.054 63.579C116.755 65.4675 118.562 67.1236 120.355 67.0831C120.355 67.0831 120.355 67.0831 120.359 67.0831C120.646 67.1458 120.949 67.1494 121.244 67.0831C122.155 66.8765 122.852 66.0761 123.103 65.1835C123.568 63.5163 122.734 61.0155 120.857 60.7462C119.145 60.4991 117.331 61.8528 117.054 63.5864V63.579Z" fill="#EFC3B9"/>
<path d="M98.5008 49.8431C98.2021 51.7316 100.009 53.3877 101.802 53.3472C101.802 53.3472 101.802 53.3472 101.806 53.3472C102.093 53.4099 102.396 53.4135 102.691 53.3472C103.602 53.1406 104.299 52.3402 104.55 51.4476C105.015 49.7804 104.181 47.2796 102.304 47.0103C100.592 46.7632 98.7775 48.1169 98.5008 49.8505V49.8431Z" fill="#EFC3B9"/>
<path d="M115.947 91.8365C114.151 90.114 111.381 88.362 108.821 89.273C107.796 89.6382 106.889 90.4386 106.468 91.4677C106.048 92.4968 106.243 93.6144 106.892 94.4959C107.575 95.4217 108.585 96.034 109.522 96.6574C110.61 97.384 111.617 98.2213 112.429 99.2614C113.373 100.475 113.996 101.972 114.081 103.492C113.83 104.945 113.266 106.332 112.359 107.49C110.595 109.748 107.386 110.91 104.72 109.663C101.95 108.368 100.629 105.281 99.6886 102.526C99.0837 100.759 98.5489 98.9479 97.6526 97.3029C96.9739 96.0635 95.8895 94.7873 94.3772 94.8058C94.1337 94.8058 94.1337 95.1967 94.3772 95.1931C94.6796 95.1894 94.9637 95.2447 95.2255 95.3406C95.1813 95.3701 95.1481 95.4217 95.1444 95.4881C94.9157 99.1619 95.3251 102.854 96.3505 106.38C96.262 106.424 96.1993 106.535 96.2509 106.653C97.3058 109.01 98.4308 111.492 100.404 113.215C102.477 115.026 105.288 115.616 107.958 115.369C113.207 114.882 117.777 111.242 119.47 106.163C121.144 101.132 119.743 95.4808 115.944 91.8365H115.947Z" fill="white"/>
<path d="M115.947 91.8365C114.151 90.114 111.381 88.362 108.821 89.273C107.796 89.6382 106.889 90.4386 106.468 91.4677C106.048 92.4968 106.243 93.6144 106.892 94.4959C107.575 95.4217 108.585 96.034 109.522 96.6574C110.61 97.384 111.617 98.2213 112.429 99.2614C113.373 100.475 113.996 101.972 114.081 103.492C113.83 104.945 113.266 106.332 112.359 107.49C111.82 108.18 111.145 108.767 110.393 109.217C111.152 109.704 112.056 109.951 112.971 109.851C114.715 109.663 116.198 108.239 116.552 106.506C117.663 106.613 118.747 106.251 119.643 105.598C121.038 100.711 119.599 95.3443 115.944 91.8365H115.947Z" fill="#5C452D"/>
<path d="M116.11 91.6705C114.693 90.3242 112.938 89.096 110.972 88.8378C109.098 88.5906 107.084 89.4722 106.298 91.298C105.918 92.1795 105.948 93.157 106.354 94.0238C106.785 94.9496 107.604 95.6209 108.416 96.1889C109.338 96.8344 110.286 97.4135 111.119 98.1807C111.945 98.9405 112.654 99.8184 113.148 100.836C113.399 101.353 113.59 101.895 113.716 102.456C113.852 103.072 113.863 103.584 113.709 104.197C113.436 105.266 112.978 106.284 112.329 107.17C111.189 108.726 109.363 109.803 107.453 109.929C105.527 110.058 103.798 109.132 102.558 107.671C101.341 106.236 100.607 104.436 99.9911 102.666C99.2718 100.597 98.7001 98.3467 97.4571 96.5246C96.9554 95.7869 96.3099 95.1192 95.48 94.7836C95.1554 94.6545 94.6059 94.4738 94.2592 94.5992C94.0083 94.6914 93.9051 95.0123 94.0489 95.2373C94.1227 95.3553 94.2296 95.4033 94.3587 95.4217C94.6428 95.4623 94.901 95.4697 95.1776 95.5656C95.1444 95.4365 95.1112 95.3074 95.078 95.1783C94.8382 95.4365 94.9046 95.8938 94.8936 96.2258C94.8751 96.7164 94.8677 97.2069 94.8714 97.6938C94.8788 98.6971 94.9341 99.7003 95.0337 100.7C95.2329 102.647 95.6054 104.569 96.144 106.447L96.203 106.222C95.9227 106.458 96.0407 106.716 96.1698 107.004C96.3579 107.428 96.5497 107.848 96.7489 108.265C97.1288 109.069 97.5308 109.862 97.9956 110.618C98.8698 112.042 99.9726 113.344 101.396 114.222C104.148 115.919 107.67 116 110.691 115.063C113.498 114.196 115.992 112.403 117.747 110.01C119.592 107.498 120.532 104.363 120.396 101.231C120.241 97.62 118.692 94.1603 116.121 91.6705C115.907 91.464 115.586 91.7922 115.8 91.9988C120.185 96.2442 121.248 103.215 118.157 108.553C115.261 113.554 108.888 116.553 103.333 114.628C101.57 114.015 100.12 112.846 99.0173 111.326C98.4972 110.611 98.0509 109.84 97.6452 109.054C97.4312 108.641 97.2284 108.221 97.0329 107.8C96.9702 107.667 96.4095 106.642 96.5239 106.546C96.5829 106.495 96.605 106.395 96.5829 106.321C96.0739 104.554 95.7087 102.747 95.5095 100.918C95.4136 100.043 95.3546 99.1618 95.3325 98.2803C95.3214 97.8155 95.3178 97.3508 95.3288 96.886C95.3325 96.6647 95.3399 96.4434 95.3473 96.2258C95.3546 96.0709 95.2956 95.6172 95.3989 95.5065C95.5206 95.3738 95.4616 95.1746 95.2993 95.1192C95.1112 95.0529 94.853 94.9533 94.6464 94.9717C94.2555 95.0123 94.8714 95.075 94.9968 95.1082C95.4542 95.2225 95.8673 95.4697 96.2214 95.7832C96.9481 96.425 97.4349 97.2955 97.848 98.1696C98.7517 100.084 99.2607 102.153 100.043 104.119C100.666 105.683 101.448 107.232 102.636 108.438C103.846 109.67 105.454 110.441 107.184 110.404C108.884 110.367 110.54 109.63 111.787 108.468C112.477 107.826 113.037 107.037 113.458 106.188C113.657 105.786 113.827 105.366 113.967 104.938C114.114 104.484 114.291 103.972 114.317 103.492C114.343 103.016 114.199 102.467 114.074 102.013C113.941 101.526 113.76 101.054 113.539 100.6C113.085 99.6708 112.454 98.8409 111.724 98.1217C110.997 97.4061 110.175 96.8086 109.33 96.2479C108.463 95.6725 107.527 95.075 106.955 94.1713C105.564 91.973 107.538 89.5533 109.777 89.2841C112.045 89.0148 114.214 90.5013 115.789 91.9988C116.003 92.2017 116.324 91.8771 116.11 91.6705Z" fill="#010101"/>
<path d="M63.2058 65.0175C57.6584 60.6873 52.3211 56.073 47.2273 51.2005C45.7888 49.8247 44.3688 48.4267 42.9708 47.0104C42.8602 46.896 42.6536 46.885 42.543 47.0104C37.6447 52.5542 31.957 57.3639 25.6903 61.2258C24.9637 61.6721 24.1301 62.1368 23.7649 62.963C23.5067 63.5458 23.5178 64.2835 23.9161 64.7888C23.9198 64.7999 23.9235 64.811 23.9309 64.822C27.1878 70.5392 31.0976 75.8727 35.5607 80.6751C36.8295 82.0399 38.1426 83.3604 39.4963 84.6329C39.5848 84.7177 39.7582 84.7657 39.8651 84.6808C46.0433 79.8489 52.1404 74.91 58.1489 69.8568C59.8641 68.4146 61.5755 66.9614 63.2759 65.5007C63.4419 65.3569 63.3534 65.1245 63.2132 65.0138L63.2058 65.0175Z" fill="white"/>
<path d="M45.2946 59.2709C46.2609 58.5996 47.1868 57.873 48.0646 57.0947C50.2925 55.1177 52.074 52.6685 52.7822 49.7104C54.3166 43.3071 51.2736 37.0662 47.7327 31.9688C47.3786 31.4561 47.0171 30.9507 46.6482 30.4491C47.0872 28.4426 47.4671 26.4065 47.456 24.3447C47.4449 22.4967 47.231 20.0107 45.5896 18.8562C43.9815 17.7238 41.7794 18.4578 40.1122 19.0554C38.2201 19.7341 36.4053 20.6304 34.7123 21.7222C33.5025 22.5041 32.3554 23.3857 31.2857 24.352C27.0956 24.5697 22.9645 25.6725 19.2059 27.5795C18.6047 27.8856 18.0182 28.2102 17.4392 28.5569C13.6474 28.1622 9.79293 28.4979 6.12289 29.5749C4.34504 30.095 2.22785 30.6925 1.69302 32.747C1.22828 34.5322 1.89589 36.5388 2.72211 38.1064C3.5594 39.6961 4.77291 41.0682 6.23354 42.0826C5.97904 44.8305 6.03437 47.6005 6.39215 50.33C6.51756 53.2992 7.11878 56.2021 8.58311 58.891C9.94047 61.3844 12.0097 63.343 14.5474 64.5454C17.0924 65.7479 19.9178 66.22 22.7026 66.2827C24.1559 66.3159 25.6128 66.2532 27.0624 66.0983" fill="white"/>
<path d="M26.7009 26.6942C26.7599 27.834 27.0292 28.959 27.4276 30.0249C27.8296 31.0909 28.3644 32.1089 29.0136 33.0421C29.6702 33.9827 30.4558 34.8163 31.3853 35.4765C32.2521 36.0888 33.2222 36.5314 34.2439 36.7896C35.2508 37.0441 36.2984 37.1179 37.3348 37.0662C38.4119 37.0109 39.4815 36.8154 40.5254 36.5388C41.5987 36.2511 42.6462 35.8786 43.6716 35.447C44.7081 35.0118 45.7224 34.5101 46.6851 33.92C47.2347 33.5806 47.7843 33.2081 48.2785 32.7765C48.0978 32.5073 47.9171 32.238 47.7327 31.9761C47.3786 31.4634 47.0171 30.9581 46.6482 30.4565C47.0872 28.45 47.4671 26.4139 47.456 24.3521C47.445 22.5041 47.231 20.0181 45.5896 18.8636C43.9815 17.7312 41.7794 18.4652 40.1123 19.0628C38.2201 19.7414 36.4053 20.6377 34.7123 21.7295C33.5025 22.5115 32.3554 23.393 31.2857 24.3594C29.7734 24.4369 28.2722 24.6324 26.7895 24.9385C26.6936 25.5176 26.664 26.1115 26.6936 26.6979L26.7009 26.6942Z" fill="#434244"/>
<path d="M6.24093 42.0863C6.04544 44.185 6.03437 46.3022 6.19666 48.401C6.2483 48.3936 6.29625 48.3899 6.34789 48.3825C6.94911 48.2977 7.55034 48.1612 8.12943 47.9768C9.56425 47.5231 10.8995 46.7707 12.1388 45.9149C13.1716 45.1994 14.1859 44.458 15.156 43.6539C16.0892 42.883 16.9781 42.0605 17.7969 41.1642C18.6047 40.2826 19.3387 39.3273 19.9584 38.2982C20.5781 37.2691 21.076 36.1663 21.4227 35.0155C21.7473 33.9311 21.9612 32.7839 21.9871 31.6516C22.0018 30.8844 21.9797 30.1172 21.9207 29.3537C21.8506 28.45 21.7399 27.5279 21.4707 26.6611C21.4596 26.6316 21.4522 26.5984 21.4412 26.5688C20.685 26.8787 19.9399 27.218 19.2133 27.5869C18.6121 27.893 18.0256 28.2176 17.4465 28.5643C13.6548 28.1696 9.80031 28.5053 6.13027 29.5823C4.35242 30.1024 2.23523 30.6999 1.70041 32.7544C1.23566 34.5397 1.90327 36.5462 2.72949 38.1138C3.56678 39.7035 4.78029 41.0756 6.24093 42.09V42.0863Z" fill="#C87629"/>
<path d="M48.747 44.9965C47.6441 42.9715 44.981 42.2781 43.0962 43.5949C42.5614 43.9674 42.1298 44.4617 41.8348 45.0297C41.2667 45.9518 41.1856 47.1469 41.5286 48.1686C42.2848 50.4075 44.7155 51.5214 46.8622 50.5919C48.9314 49.6956 49.8388 47.0104 48.747 45.0002V44.9965Z" fill="#F2C6BA"/>
<path d="M45.4273 59.5033C48.8576 57.1021 52.0445 53.989 53.0514 49.7288C54.0916 45.3211 52.9518 40.8211 50.9822 36.8634C49.8277 34.547 48.3929 32.4003 46.8769 30.3163C46.8843 30.3864 46.8954 30.4528 46.9027 30.5229C47.3675 28.3983 47.7585 26.2442 47.7179 24.057C47.6921 22.5484 47.5335 20.8664 46.663 19.5902C46.2204 18.9411 45.6007 18.4468 44.863 18.196C44.0405 17.9193 43.1442 17.971 42.3032 18.1333C41.4364 18.2993 40.5954 18.598 39.7655 18.9042C38.7844 19.2693 37.8217 19.6898 36.8885 20.1693C34.7971 21.239 32.857 22.5926 31.1087 24.1676C31.1714 24.1418 31.2341 24.116 31.2931 24.0902C28.2796 24.2525 25.2919 24.8537 22.4481 25.8902C21.0244 26.4102 19.6338 27.0373 18.2986 27.7639C18.1326 27.8561 17.9666 27.9483 17.8043 28.0405C17.6531 28.1254 17.4982 28.2582 17.3211 28.2766C17.1293 28.2987 16.8933 28.236 16.7015 28.2213C16.4949 28.2065 16.2883 28.1918 16.0818 28.1807C15.2961 28.1364 14.5105 28.1217 13.7248 28.1401C10.7667 28.2065 7.81959 28.7192 5.00159 29.6413C4.0057 29.9659 2.97661 30.3975 2.24998 31.1942C1.41638 32.1126 1.19507 33.3925 1.31679 34.6023C1.63032 37.7007 3.64054 40.5777 6.11182 42.3186C6.06756 42.2412 6.0233 42.1637 5.98272 42.0863C5.85731 43.4805 5.80199 44.8821 5.83518 46.2801C5.84994 46.9809 5.88313 47.678 5.93846 48.3751C5.99379 49.0686 6.10444 49.7583 6.14871 50.4517C6.30731 52.9784 6.73517 55.4496 7.75688 57.7771C8.67163 59.8611 10.0327 61.7201 11.8031 63.1327C13.6658 64.6192 15.8826 65.5376 18.1879 66.0393C21.1018 66.67 24.1301 66.6737 27.0808 66.3675C27.4128 66.3343 27.4165 65.7995 27.0808 65.8327C22.26 66.3343 16.8527 66.0762 12.7363 63.177C8.8708 60.4512 7.05976 55.8074 6.71673 51.1636C6.60608 49.6661 6.41796 48.1796 6.37001 46.6747C6.32206 45.144 6.37001 43.6096 6.51018 42.0863C6.51755 41.9904 6.45116 41.9055 6.38108 41.8539C5.02003 40.8949 3.88029 39.6334 3.06882 38.1654C2.26842 36.7158 1.60818 34.9491 1.87007 33.2597C2.09506 31.8028 3.12415 30.9397 4.41512 30.4196C5.83887 29.8479 7.36959 29.4754 8.86712 29.1877C10.6745 28.8372 12.5113 28.6676 14.3519 28.6639C15.2851 28.6639 16.2146 28.7045 17.1441 28.793C17.3728 28.8151 17.4908 28.8336 17.6937 28.7229C17.8781 28.6196 18.0588 28.509 18.2395 28.4057C18.6748 28.1586 19.1174 27.9262 19.5674 27.7012C22.769 26.1078 26.2583 25.0971 29.8066 24.732C30.2234 24.6877 30.6439 24.6545 31.0607 24.6287C31.2599 24.6176 31.3742 24.6213 31.5291 24.4959C31.732 24.3373 31.9201 24.1492 32.1156 23.9795C32.8017 23.3967 33.5172 22.8508 34.2549 22.3455C35.7303 21.3349 37.309 20.4718 38.9541 19.7857C40.3778 19.1919 41.9712 18.5316 43.5315 18.5243C44.2802 18.5243 45.0253 18.7124 45.6191 19.1992C46.1208 19.6124 46.4712 20.1914 46.6999 20.8037C47.1794 22.0984 47.231 23.548 47.1904 24.9164C47.1609 25.8975 47.0503 26.8787 46.8917 27.845C46.8216 28.2692 46.7441 28.6897 46.6593 29.1102C46.6077 29.361 46.556 29.6155 46.5044 29.8663C46.4638 30.0581 46.3495 30.3163 46.3974 30.5118C46.4343 30.663 46.6261 30.8548 46.7146 30.9803C46.8474 31.1647 46.9802 31.3491 47.113 31.5372C47.3749 31.9097 47.6367 32.2823 47.8913 32.6585C48.3634 33.3556 48.8171 34.0638 49.2486 34.7868C50.1449 36.288 50.949 37.8556 51.5797 39.4933C52.8006 42.6764 53.3391 46.1547 52.5609 49.5186C51.8195 52.7202 49.7761 55.3169 47.3306 57.375C46.6335 57.9615 45.9105 58.5111 45.1655 59.0312C44.8888 59.2266 45.1507 59.6877 45.431 59.4922L45.4273 59.5033Z" fill="#221F1F"/>
<path d="M79.97 72.0994C72.2168 68.2228 63.6632 66.5519 55.1612 65.4196C53.3945 65.1835 51.6203 64.9696 49.8498 64.763C49.9826 64.4421 49.4994 64.1729 49.3039 64.4975C49.2671 64.5602 49.2265 64.6229 49.1859 64.6856C48.7765 64.6376 48.3671 64.5897 47.954 64.5417C47.5667 64.4975 47.5704 65.1134 47.954 65.1577C48.2417 65.1909 48.5257 65.2241 48.8134 65.2573C46.0765 69.2519 41.4991 71.5093 37.0324 72.933C31.5291 74.685 25.694 75.526 20.5817 78.3883C16.2736 80.8006 12.5482 84.4558 10.3905 88.9853C8.12942 93.7397 7.69787 99.4606 9.579 104.422C11.39 109.206 15.3035 112.732 19.8404 114.783C25.1112 117.165 30.9648 117.516 36.6488 117.117C39.6807 116.907 42.7052 116.523 45.7077 116.051C48.6216 115.594 51.5244 114.993 54.335 114.063C59.2075 112.451 63.8439 109.763 67.0677 105.628C68.6242 103.629 69.7861 101.353 70.4131 98.8778C71.1434 95.9897 71.2246 92.991 71.457 90.0365C71.6783 87.1964 72.1135 84.4153 73.1758 81.7669C74.1495 79.3362 75.5586 77.0752 77.2995 75.1387C78.1368 74.2092 79.0479 73.3535 80.0253 72.5826C80.1765 72.4646 80.1249 72.1769 79.9626 72.0957L79.97 72.0994Z" fill="white"/>
<path d="M80.0843 71.9003C72.8143 68.2782 64.8361 66.5557 56.869 65.4233C54.5342 65.0913 52.192 64.8073 49.8498 64.5307C49.9236 64.6266 49.9974 64.7262 50.0675 64.8258C50.1449 64.5344 50.0121 64.254 49.7244 64.1508C49.363 64.0254 49.1601 64.2909 48.9904 64.5713L49.1859 64.4569C48.7765 64.409 48.2601 64.2614 47.8507 64.3168C47.6367 64.3463 47.4781 64.5122 47.4449 64.7262C47.3232 65.4971 48.3412 65.4381 48.8134 65.4897L48.6179 65.143C45.6487 69.4401 40.6803 71.6236 35.8816 73.0474C30.5406 74.6334 24.9378 75.5777 20.0506 78.4289C15.7461 80.9407 12.0355 84.7141 9.97735 89.3505C7.79008 94.2783 7.49869 100.139 9.62694 105.141C11.5228 109.6 15.3256 112.968 19.6264 114.937C24.8198 117.317 30.6255 117.737 36.2467 117.379C39.3377 117.184 42.4175 116.8 45.479 116.324C48.4703 115.86 51.4469 115.262 54.3313 114.314C59.1411 112.735 63.7517 110.102 67.0013 106.089C68.6758 104.016 69.9521 101.611 70.6234 99.0106C71.3758 96.0856 71.4533 93.0427 71.6893 90.0439C71.9291 86.9972 72.4455 83.9579 73.6885 81.1547C74.8319 78.5727 76.4659 76.2158 78.4761 74.2609C78.9741 73.7777 79.4905 73.3166 80.0327 72.8851C80.372 72.6121 80.4827 72.2027 80.088 71.9076C79.8519 71.7306 79.6233 72.1326 79.8593 72.306C79.9995 72.4093 79.3724 72.8335 79.2839 72.9109C79.0036 73.1507 78.727 73.3941 78.4577 73.6486C77.9561 74.1207 77.4729 74.615 77.0155 75.1351C76.1413 76.1273 75.3483 77.2006 74.6586 78.333C73.1979 80.7268 72.2279 83.3678 71.7262 86.1341C71.2025 89.0185 71.1693 91.9509 70.8705 94.8611C70.5754 97.7233 69.9373 100.497 68.5394 103.02C66.0238 107.561 61.7415 110.769 57.094 112.787C51.7457 115.107 45.8294 115.967 40.0864 116.59C34.4504 117.202 28.6374 117.394 23.1379 115.767C18.4719 114.384 14.0605 111.618 11.3568 107.428C8.46507 102.946 7.97082 97.2254 9.4499 92.1427C10.8884 87.1927 14.2228 83.0026 18.3576 80.0813C20.5448 78.5358 22.9424 77.3814 25.4579 76.4998C28.0435 75.5961 30.7066 74.947 33.3513 74.2461C38.091 72.9847 42.9819 71.4392 46.7036 68.0384C47.5704 67.2454 48.3486 66.3565 49.0199 65.3864C49.1306 65.2278 48.9757 65.0544 48.8244 65.036C48.6105 65.0102 48.3929 64.9917 48.1789 64.9622C48.0794 64.9475 47.7769 64.8922 47.965 64.7815C48.0535 64.7299 48.4076 64.8331 48.5109 64.8442C48.7396 64.87 48.9683 64.8958 49.1933 64.9217C49.2707 64.929 49.3519 64.87 49.3888 64.8073C49.4035 64.7852 49.7097 64.4163 49.6359 64.704C49.5953 64.8626 49.7097 64.9807 49.8535 64.9991C57.8538 65.9323 65.9169 67.0093 73.5668 69.6687C75.7135 70.4138 77.8196 71.288 79.8556 72.3023C80.1175 72.4314 80.3499 72.0331 80.0843 71.904V71.9003Z" fill="#221F1F"/>
<path d="M45.8294 107.623C43.6384 106.613 41.1229 106.369 38.7438 106.502C36.1397 106.646 33.5799 107.236 31.0681 107.918C30.7583 108.003 30.4447 108.088 30.1349 108.176C32.4107 105.325 34.0189 101.932 34.7566 98.3282C35.1475 96.4102 35.4684 94.234 34.5906 92.4045C33.8935 90.9513 32.4955 90.0402 31.0128 89.5828C29.3972 89.0849 27.6784 89.0738 26.0186 89.2988C24.2333 89.5422 22.4924 90.0623 20.8657 90.8517C17.6641 92.4082 14.9679 95.0713 13.7248 98.4905C12.515 101.818 12.6921 105.668 14.4478 108.733C14.2302 109.478 14.0752 110.238 14.0162 111.017C13.8466 113.248 14.6838 115.347 16.2883 116.863C17.9555 118.438 20.1428 119.227 22.367 119.541C24.8677 119.891 27.4423 119.78 29.9468 119.522C35.1365 118.987 40.2524 117.66 45.2687 116.243C46.2241 115.974 47.1904 115.638 47.9687 114.996C48.7544 114.347 49.1933 113.399 49.2228 112.374C49.2855 110.176 47.6921 108.483 45.8331 107.623H45.8294Z" fill="white"/>
<path d="M47.7068 108.582C47.1794 108.106 46.5818 107.723 45.9437 107.42C41.134 105.24 35.6307 106.424 30.7361 107.763C31.0533 107.339 31.3558 106.9 31.6472 106.454C31.5255 106.365 31.4148 106.262 31.2968 106.163C30.8874 106.797 30.4447 107.413 29.9763 108.003C29.8398 108.173 29.9615 108.457 30.1976 108.39C35.118 107.018 40.8167 105.595 45.715 107.815C46.9618 108.401 48.1199 109.346 48.6732 110.659C49.2744 112.086 49.0236 113.816 47.8064 114.823C47.1277 115.384 46.2831 115.694 45.4532 115.941C44.5753 116.203 43.6901 116.439 42.8048 116.678C41.0085 117.165 39.2086 117.626 37.3938 118.032C33.7533 118.844 30.0316 119.456 26.2989 119.519C22.9608 119.578 19.2539 119.198 16.6351 116.863C15.4658 115.823 14.6396 114.439 14.3408 112.883C14.1785 112.046 14.1896 111.186 14.315 110.345C14.3814 109.903 14.4773 109.467 14.5953 109.036C14.4957 109.003 14.3961 108.958 14.3039 108.899C14.2634 108.885 14.2228 108.866 14.1822 108.851C14.1601 109.021 14.0716 109.228 14.0421 109.364C13.9277 109.858 13.8466 110.356 13.7986 110.862C13.6511 112.474 14.0199 114.111 14.872 115.48C16.7273 118.471 20.235 119.607 23.5251 119.891C27.4644 120.23 31.496 119.677 35.3615 118.925C37.3311 118.541 39.286 118.08 41.2262 117.575C42.2184 117.317 43.2106 117.047 44.1991 116.774C45.0733 116.531 45.9622 116.313 46.7958 115.952C48.2859 115.303 49.3961 114.074 49.4478 112.367C49.4921 110.895 48.7728 109.538 47.7105 108.575L47.7068 108.582Z" fill="#221F1F"/>
<path d="M55.3494 112.142C57.0276 112.415 58.6911 112.739 60.3399 113.167C61.9776 113.591 63.5968 114.071 65.2234 114.532C68.473 115.45 71.7742 116.31 75.1565 116.498C75.9938 116.542 76.8311 116.549 77.6684 116.505C78.4651 116.465 79.2544 116.38 80.0511 116.346C81.5486 116.28 83.0499 116.262 84.5474 116.184C86.7273 116.074 88.9736 115.849 91.0539 115.129C91.4854 114.908 91.9096 114.665 92.3153 114.399C92.6325 114.192 92.9092 113.916 93.2006 113.676C93.4809 113.444 93.7723 113.226 94.0969 113.067C94.7018 112.772 95.3325 112.499 95.9669 112.278C96.1292 112.223 96.2989 112.167 96.4686 112.116C98.2317 109.49 99.0247 106.148 99.0136 102.983C99.0025 100.102 98.4493 97.2328 97.6821 94.4701C97.0476 92.1795 96.2214 89.9296 95.137 87.8198C92.9424 83.5411 89.5748 79.9006 85.0084 78.3072C79.686 76.4482 73.9098 77.4109 68.7422 79.3067C63.7443 81.1399 58.8608 83.6702 54.8403 87.248C51.067 90.6046 48.0646 95.0344 46.9212 100.047C46.0544 103.85 46.3679 107.963 47.9613 111.511C50.4326 111.467 52.9113 111.747 55.342 112.142H55.3494Z" fill="white"/>
<path d="M55.2867 112.363C57.828 112.78 60.3141 113.377 62.7927 114.078C65.2345 114.768 67.6652 115.498 70.1475 116.026C72.6188 116.549 75.1418 116.863 77.6684 116.734C78.963 116.667 80.254 116.56 81.5486 116.52C82.8507 116.479 84.1527 116.446 85.4511 116.358C86.6424 116.276 87.8338 116.147 89.0068 115.911C89.6043 115.793 90.1944 115.642 90.7772 115.458C91.3084 115.288 91.7879 115 92.26 114.701C92.7284 114.406 93.112 114.019 93.5473 113.683C94.0858 113.267 94.7239 113.001 95.3473 112.75C95.6128 112.643 95.8784 112.544 96.1477 112.451C96.4022 112.367 96.5792 112.348 96.7304 112.119C97.0403 111.655 97.3132 111.168 97.5566 110.666C99.6738 106.34 99.5005 101.393 98.4898 96.7864C97.5013 92.2828 95.8673 87.7681 93.0641 84.0944C90.5117 80.7526 87.0297 78.3514 82.9355 77.4846C78.277 76.4998 73.434 77.3776 69.0004 78.96C64.6775 80.5055 60.4727 82.5637 56.7842 85.3521C53.3207 87.971 50.322 91.2795 48.3892 95.2336C46.4011 99.3057 45.6634 103.957 46.6888 108.416C46.9433 109.519 47.3048 110.592 47.7658 111.622C47.799 111.692 47.8876 111.736 47.9613 111.736C50.4179 111.699 52.8596 111.968 55.283 112.359C55.5707 112.407 55.6924 111.961 55.4047 111.913C52.9408 111.515 50.4584 111.234 47.9613 111.271L48.1568 111.385C46.2868 107.173 46.2573 102.334 47.7363 97.9963C49.1084 93.9721 51.6646 90.4312 54.7703 87.6095C58.1157 84.5702 62.0845 82.287 66.2119 80.5424C70.4537 78.7498 74.9831 77.374 79.6196 77.5436C81.888 77.6248 84.1748 78.0895 86.2478 79.0485C88.0035 79.86 89.5895 81.0034 90.9617 82.3755C94.0305 85.4407 95.9558 89.4906 97.2026 93.6328C98.5673 98.1733 99.4341 103.142 98.1468 107.808C97.848 108.896 97.4349 109.954 96.8964 110.947C96.7747 111.172 96.6456 111.397 96.5091 111.614C96.4501 111.706 96.3948 111.839 96.3063 111.906C96.203 111.983 96.0259 112.005 95.9005 112.049C95.3583 112.237 94.8235 112.462 94.3034 112.706C93.2854 113.182 92.5403 114.023 91.5739 114.58C90.5264 115.181 89.2981 115.417 88.1215 115.605C85.7019 115.996 83.238 115.996 80.7962 116.081C79.5274 116.125 78.2659 116.265 77.0007 116.295C75.7799 116.321 74.559 116.251 73.3492 116.103C68.4103 115.505 63.7443 113.669 58.9087 112.584C57.7469 112.326 56.5776 112.108 55.4047 111.917C55.117 111.869 54.9953 112.315 55.283 112.363H55.2867Z" fill="#221F1F"/>
<path d="M98.7739 102.743C97.9476 99.9917 96.3985 97.3286 94.1891 95.5028C92.0534 93.7397 89.2133 92.8287 86.4875 93.441C83.9646 94.009 81.8363 96.0635 81.3237 98.6749C81.3163 98.7192 81.3089 98.7634 81.3015 98.8114C80.704 100.324 80.4679 101.983 80.5343 103.617C80.5933 104.997 80.8589 106.365 81.2462 107.686C81.4454 108.357 81.6741 109.021 81.9286 109.674C81.9544 109.737 81.9802 109.799 82.006 109.866C79.3724 108.866 76.5581 108.387 73.7438 108.472C71.4754 108.542 67.8791 108.962 67.6763 111.942C67.5877 113.222 68.2295 114.499 69.1701 115.325C70.3062 116.324 71.7963 116.76 73.2311 117.08C76.418 117.789 79.686 118.172 82.9466 118.154C86.0375 118.139 89.2539 117.822 92.2047 116.833C93.5473 116.383 94.8567 115.745 95.9448 114.812C97.0181 113.894 97.8628 112.721 98.4382 111.419C99.648 108.682 99.6259 105.583 98.7739 102.743Z" fill="white"/>
<path d="M98.7296 102.939C98.7296 102.939 98.7296 102.939 98.7259 102.943C98.6595 103.002 98.6337 103.09 98.6558 103.175C99.6849 107.04 99.1279 111.459 96.1513 114.31C94.6723 115.73 92.7469 116.494 90.8067 117.003C88.6932 117.56 86.517 117.811 84.3371 117.888C82.1683 117.966 79.9958 117.877 77.8417 117.626C75.7651 117.383 73.6073 117.069 71.6156 116.398C69.8008 115.786 67.9713 114.425 67.8976 112.296C67.8496 110.825 68.7828 109.799 70.0738 109.301C71.5418 108.733 73.1905 108.663 74.7434 108.693C77.2036 108.737 79.6343 109.22 81.9433 110.087C82.0945 110.146 82.2863 109.962 82.2236 109.803C81.2609 107.413 80.6007 104.816 80.7778 102.216C80.822 101.559 80.9216 100.906 81.0765 100.268C81.1392 100.014 81.2167 99.763 81.2978 99.5122C81.331 99.4089 81.2905 99.2983 81.1982 99.2466H81.1946C81.0728 99.1692 80.9142 99.2319 80.87 99.372C80.7114 99.8737 80.5712 100.375 80.4827 100.899C79.9774 103.798 80.5749 106.76 81.6113 109.475C79.5384 108.748 77.3696 108.324 75.175 108.243C73.6369 108.184 72.0176 108.239 70.5275 108.667C69.2734 109.028 68.0451 109.751 67.6099 111.076C67.0345 112.828 67.964 114.712 69.3471 115.76C71.066 117.066 73.4082 117.401 75.4663 117.752C77.7938 118.146 80.1507 118.371 82.5077 118.386C84.7761 118.401 87.0556 118.253 89.2871 117.826C91.3895 117.423 93.551 116.804 95.3399 115.568C97.221 114.266 98.5452 112.282 99.1722 110.065C99.8214 107.778 99.7144 105.336 99.1021 103.053C99.0579 102.891 98.8624 102.828 98.737 102.939H98.7296Z" fill="#221F1F"/>
<path d="M71.6266 80.6088C72.759 80.4354 73.884 80.2067 74.9831 79.9006C77.7753 79.1297 80.3794 77.7539 82.2495 75.4596C86.2994 70.4876 86.2478 63.6639 85.2777 57.6258C85.1818 57.0209 85.0748 56.416 84.9642 55.8148C86.1961 54.2398 87.3912 52.6132 88.2469 50.7911C89.0178 49.1571 89.8735 46.8776 88.9182 45.144C87.9777 43.4436 85.7277 43.1301 84.0126 42.9272C82.0613 42.6985 80.0843 42.6949 78.1331 42.9199C76.7389 43.0785 75.3557 43.3551 74.0057 43.7424C70.2213 42.1047 66.1197 41.2711 62.0071 41.3117C61.3505 41.3191 60.694 41.3486 60.0374 41.4002C56.8653 39.3974 53.3244 38.0105 49.6433 37.3576C47.8581 37.0404 45.7409 36.6421 44.4056 38.217C43.2438 39.5855 42.9856 41.6436 43.0557 43.3883C43.1257 45.1551 43.6163 46.8923 44.472 48.4231C43.0889 50.7321 41.9712 53.196 41.1376 55.7558C39.9979 58.4262 39.3045 61.2442 39.4594 64.2503C39.6069 67.0388 40.5991 69.6687 42.3327 71.8339C44.0663 74.0027 46.3568 75.6514 48.7839 76.924C50.049 77.5879 51.3584 78.167 52.701 78.6649" fill="white"/>
<path d="M86.1814 64.1434C86.1888 63.8078 86.1888 63.4721 86.1814 63.1365C86.1408 60.6246 85.7904 58.1349 85.3404 55.671C86.6166 54.0333 87.8338 52.3366 88.7043 50.437C89.3166 49.0944 89.8883 47.5452 89.6596 46.0403C89.5416 45.2731 89.2096 44.5686 88.66 44.0264C88.0514 43.4215 87.2437 43.0785 86.4322 42.8535C85.5986 42.6211 84.7318 42.5142 83.8724 42.4256C82.8544 42.3187 81.829 42.2707 80.8073 42.2818C78.5499 42.3113 76.3073 42.6469 74.1311 43.2518C71.4348 42.101 68.5836 41.3412 65.6771 41.0166C64.2017 40.8543 62.7153 40.7953 61.2325 40.858C61.0481 40.8654 60.8636 40.8765 60.6792 40.8875C60.5095 40.8986 60.3177 40.9466 60.1555 40.8875C59.9784 40.8248 59.794 40.6662 59.6354 40.5703C59.462 40.467 59.285 40.3638 59.1079 40.2642C58.4366 39.8806 57.7469 39.5265 57.0498 39.1982C54.4162 37.9626 51.6056 37.129 48.7322 36.7122C47.7179 36.5646 46.6298 36.4909 45.656 36.8782C44.5347 37.3208 43.8007 38.3535 43.3987 39.4748C42.388 42.2855 42.9044 45.6235 44.2876 48.2129C43.6126 49.3526 43.0003 50.5255 42.4507 51.7354C42.1704 52.3587 41.9049 52.9894 41.6577 53.6275C41.4143 54.262 41.2225 54.9185 40.968 55.5456C40.9237 55.6525 40.8831 55.7595 40.8426 55.8665C39.7987 55.6156 38.7328 55.457 37.6557 55.3906C37.4602 55.3796 37.4602 55.6894 37.6557 55.7005C38.6959 55.7632 39.7213 55.9144 40.7319 56.1542C40.293 57.3087 39.9278 58.4816 39.6733 59.684C38.5705 59.8058 37.486 60.1008 36.457 60.5693C36.2799 60.6504 36.4348 60.916 36.6119 60.8348C37.5672 60.3996 38.5815 60.1156 39.6106 59.9939C39.4373 60.8791 39.3303 61.7791 39.3008 62.6975C39.2307 64.9327 39.6438 67.1643 40.6065 69.1819C41.6208 71.3028 43.1884 73.0843 45.0069 74.5265C47.3048 76.3523 49.9716 77.6801 52.701 78.6982C53.0072 78.8125 53.2359 78.3441 52.926 78.226C48.4667 76.5625 43.8155 73.9769 41.4106 69.6245C39.7582 66.6368 39.511 63.225 40.1454 59.9496C40.979 59.898 41.82 59.9459 42.6499 60.1008C42.8417 60.1377 42.9229 59.839 42.7311 59.8021C41.8938 59.6435 41.0454 59.5918 40.2081 59.6398C40.4405 58.5406 40.7688 57.4599 41.1745 56.4197C41.193 56.3718 41.2114 56.3275 41.2299 56.2796C42.2848 56.5636 43.3175 56.9398 44.3097 57.4119C44.4868 57.4968 44.638 57.2312 44.4647 57.1464C43.454 56.6669 42.4102 56.2796 41.3405 55.9919C41.809 54.7636 42.2331 53.5206 42.7643 52.3145C43.3655 50.946 44.0552 49.6182 44.8188 48.3346C44.8667 48.2534 44.8446 48.1502 44.8003 48.0727C44.0036 46.6342 43.5315 45.026 43.4356 43.3773C43.3397 41.7506 43.5057 39.9101 44.4462 38.5306C45.2577 37.3429 46.5302 37.0331 47.8839 37.14C49.3777 37.2581 50.8826 37.6011 52.3248 37.9995C54.0621 38.4826 55.7551 39.1318 57.378 39.9322C58.2006 40.3379 59.001 40.7843 59.7829 41.2638C59.9747 41.3818 60.0706 41.4519 60.2956 41.4408C60.5022 41.4297 60.705 41.4113 60.9116 41.4002C61.3985 41.3744 61.889 41.3597 62.3759 41.3597C65.8689 41.356 69.3656 41.9867 72.6447 43.215C73.0319 43.3588 73.4119 43.5137 73.7918 43.6723C73.9725 43.7498 74.0721 43.8014 74.2602 43.7609C74.5073 43.7092 74.7508 43.6244 74.9942 43.5654C75.8426 43.3514 76.702 43.1818 77.5688 43.0601C79.295 42.8129 81.047 42.7428 82.788 42.8572C84.2929 42.9568 85.9748 43.0711 87.3506 43.7461C88.0109 44.0707 88.59 44.5649 88.9035 45.251C89.1727 45.8375 89.2391 46.4977 89.1801 47.1358C89.0547 48.4858 88.4904 49.7842 87.8818 50.9755C87.4428 51.8276 86.9338 52.6427 86.3842 53.4247C86.1445 53.7677 85.8974 54.1034 85.6465 54.439C85.4953 54.6382 85.3441 54.8374 85.1892 55.0366C85.0712 55.1878 84.8646 55.3648 84.8203 55.5566C84.7871 55.7078 84.8793 55.9587 84.9052 56.1062C84.9457 56.3275 84.9826 56.5488 85.0195 56.7701C85.0933 57.2128 85.167 57.6554 85.2334 58.098C85.3552 58.9168 85.4548 59.7394 85.5322 60.5656C85.6355 61.7201 85.6945 62.8783 85.6797 64.0364C84.8277 63.8889 83.9425 63.9332 83.1015 64.195C82.9171 64.2541 82.9945 64.5528 83.1826 64.4938C83.9978 64.2393 84.8535 64.1987 85.6761 64.35C85.665 64.811 85.6429 65.2684 85.606 65.7295C85.5322 66.6405 85.4068 67.5442 85.2187 68.4368C84.6765 68.0421 84.0716 67.7434 83.4187 67.5589C83.2306 67.5073 83.1494 67.8024 83.3376 67.8577C83.9978 68.0458 84.6101 68.352 85.1486 68.7614C84.6322 71.0187 83.7064 73.1654 82.2495 74.9839C80.2466 77.481 77.3548 78.8752 74.334 79.6203C73.4746 79.8342 72.6041 80.0002 71.7299 80.133C71.4053 80.1846 71.4385 80.7047 71.7705 80.6567C75.802 80.0371 79.922 78.6908 82.6036 75.3748C84.0937 73.5306 85.0416 71.3913 85.5875 69.1302C85.9453 69.4659 86.2588 69.8532 86.517 70.281C86.6203 70.4507 86.8822 70.2958 86.7789 70.1261C86.4728 69.6208 86.0965 69.1745 85.665 68.7909C85.9785 67.3782 86.1445 65.9249 86.1888 64.468C87.2732 64.7778 88.2654 65.4233 88.9772 66.3454C89.099 66.5003 89.3129 66.2827 89.1912 66.1278C88.435 65.1467 87.3617 64.4643 86.1961 64.1508L86.1814 64.1434Z" fill="#211E1F"/>
<path d="M85.049 48.1022C83.8244 48.5412 82.729 49.2641 81.8327 50.2194C81.6888 50.3706 81.9322 50.5883 82.0724 50.437C82.9281 49.5186 83.9794 48.8325 85.1523 48.4121C85.3478 48.342 85.2445 48.0321 85.049 48.1022Z" fill="#211E1F"/>
<path d="M50.1707 45.6235C50.049 44.3584 49.4847 43.1928 48.5699 42.326C48.4187 42.1822 48.2048 42.4293 48.356 42.5731C49.208 43.3809 49.7355 44.4727 49.8498 45.6493C49.8683 45.8596 50.1892 45.8338 50.1707 45.6235Z" fill="#211E1F"/>
<path d="M67.9308 57.3566C67.7795 57.1021 67.3849 57.3344 67.5361 57.589C68.307 58.891 67.3775 60.5139 65.9353 60.6541C64.637 60.7795 63.6116 59.8242 63.3312 58.618C63.7702 58.5221 64.2017 58.3893 64.6185 58.2086C65.0242 58.0316 65.5001 57.8139 65.6476 57.3492C65.9648 56.3607 64.5779 56.0545 63.914 55.9845C63.3755 55.9254 62.8222 55.9697 62.2985 56.1172C61.9185 56.2242 61.4686 56.3865 61.2989 56.7849C60.9042 57.7217 62.1288 58.098 62.6857 58.5332C62.4939 59.4074 61.937 60.2041 61.1292 60.5987C60.5427 60.8864 59.9452 60.7758 59.569 60.2225C59.1854 59.6582 59.2333 58.9316 59.3477 58.2898C59.3993 57.9984 58.9604 57.873 58.9087 58.168C58.7686 58.9537 58.7317 59.8205 59.2075 60.5028C59.5837 61.0451 60.185 61.3291 60.8341 61.1963C61.8706 60.9824 62.6452 60.0824 62.9993 59.0754C63.4566 60.3664 64.6628 61.3069 66.1087 61.093C67.8054 60.8422 68.8455 58.8947 67.9308 57.3529V57.3566Z" fill="#211E1F"/>
<path d="M82.0171 64.0918C81.7847 62.9151 81.0544 61.9303 80.1913 61.2775C79.1474 60.4881 77.8823 60.1967 76.6614 60.0455C75.5991 59.9164 74.3082 59.7467 73.4451 60.632C72.6742 61.4176 72.5414 62.8229 72.9877 63.8557C73.0283 63.9479 73.0725 64.0327 73.1168 64.1176C73.4709 64.8331 74.0832 65.3827 74.6918 65.8032C75.8204 66.5778 77.0598 67.2085 78.2991 67.7028C79.3651 68.127 80.479 68.1417 81.2978 67.1421C81.9618 66.3344 82.2273 65.1688 82.0134 64.0881L82.0171 64.0918Z" fill="#F2C6BA"/>
<path d="M50.8494 57.1021C50.2666 56.9804 49.6986 57.021 49.1453 57.1574C48.7249 57.2017 48.3117 57.2792 47.9392 57.3566C45.8368 57.7808 42.7016 58.9943 42.7864 61.6721C42.8233 62.7934 43.4688 63.8447 44.3798 64.4606C45.42 65.1614 46.7736 65.2537 47.9576 64.9438C49.1933 64.6229 50.2703 63.8557 51.1629 62.9484C52.0297 62.0668 52.9297 60.9455 52.9998 59.6472C53.0699 58.3267 52.0592 57.3566 50.8494 57.1021Z" fill="#F2C6BA"/>
<path d="M80.0991 58.1164C79.2765 55.966 77.0893 54.7599 74.8688 55.2579C74.4889 55.3427 74.6475 55.9402 75.0311 55.8517C76.9048 55.4349 78.8155 56.4566 79.5163 58.2787C79.6565 58.6439 80.2429 58.4853 80.1028 58.1127L80.0991 58.1164Z" fill="#211E1F"/>
<path d="M51.8969 52.5653C50.0158 51.787 47.7216 52.3624 46.4048 53.9337C46.154 54.2361 46.5818 54.6751 46.8327 54.3689C48.024 52.9452 50.0306 52.4546 51.7346 53.1591C52.0961 53.3103 52.2547 52.7128 51.8969 52.5653Z" fill="#211E1F"/>
<path d="M80.1802 73.4458C78.3175 74.1761 76.3405 75.0835 74.6696 76.3302C74.1127 76.7285 73.5926 77.1785 73.1315 77.6801C72.6852 78.1486 72.2795 78.6539 71.9328 79.2072C70.4684 81.5272 70.2176 84.5629 72.2426 86.4071C72.9323 87.0378 73.8434 87.462 74.8172 87.5063C75.1528 87.5763 75.4958 87.6095 75.8426 87.6058C77.2368 87.5837 78.4503 86.8423 79.4056 85.828C80.4605 84.7067 81.2241 83.3567 82.3085 82.2612C82.906 81.6563 83.5921 81.1879 84.3777 80.867C85.2371 80.5166 86.1408 80.3174 87.0113 80.0039C87.8523 79.7051 88.7154 79.2588 89.3387 78.617C89.3092 78.5801 89.276 78.5396 89.2465 78.5027C89.3129 78.4142 89.3756 78.3219 89.4309 78.226C89.9252 77.3445 89.8699 76.2343 89.5158 75.3121C89.0436 74.0765 88.0441 73.1765 86.8637 72.7929C86.8527 72.7265 86.8416 72.6601 86.8305 72.5937C84.7134 72.0663 82.2347 72.6454 80.1765 73.4495L80.1802 73.4458Z" fill="white"/>
<path d="M79.472 73.479C75.968 74.9138 71.9955 77.1121 70.8373 81.0625C70.4242 82.4789 70.4205 84.0428 71.1361 85.3633C71.5123 86.0604 72.0692 86.6505 72.7369 87.0673C73.5225 87.5616 74.3856 87.7239 75.293 87.8124C77.0745 87.9858 78.6237 87.0563 79.7856 85.7505C81.2351 84.1202 82.2531 82.0362 84.3371 81.1326C86.0006 80.4096 88.0662 80.2068 89.4014 78.8937C89.4641 78.8826 89.5268 78.8457 89.5637 78.7719C90.2387 77.5326 90.3162 75.9724 89.6928 74.6962C89.1174 73.5122 88.0441 72.6675 86.7937 72.3503C86.7937 72.3503 86.7937 72.3466 86.7937 72.3429C84.3998 71.7675 81.6851 72.579 79.472 73.4827V73.479ZM89.2133 78.4547C89.2133 78.4547 89.2022 78.44 89.1949 78.4326C88.033 79.6719 86.2109 79.9449 84.6802 80.4945C83.865 80.7858 83.1089 81.2063 82.4597 81.7891C81.7552 82.4235 81.1835 83.1871 80.6192 83.9432C79.5716 85.3485 78.4134 86.8718 76.6245 87.2739C76.2077 87.3661 75.7762 87.3919 75.352 87.3513C74.9057 87.3071 74.4373 87.2591 74.0057 87.1374C73.2053 86.9124 72.4787 86.4219 71.9512 85.769C71.0512 84.6551 70.8447 83.1797 71.1213 81.7928C71.8553 78.0859 75.3483 75.8211 78.502 74.3937C80.8552 73.3277 83.9462 72.1364 86.6019 72.7523C86.624 72.7671 86.6498 72.7818 86.683 72.7892C89.1506 73.3904 90.342 76.1974 89.2096 78.451L89.2133 78.4547Z" fill="#211E1F"/>
<path d="M62.055 109.759C63.1431 109.39 64.2091 108.962 65.2382 108.468C67.857 107.218 70.1844 105.399 71.6377 102.806C74.7766 97.1922 73.5594 90.4829 71.5713 84.7104C71.3721 84.1313 71.1656 83.5559 70.9516 82.9805C71.8959 81.21 72.7922 79.399 73.327 77.4515C73.8065 75.7068 74.2602 73.3093 73.0209 71.7712C71.8037 70.2626 69.5353 70.3511 67.8091 70.4581C65.8505 70.5761 63.903 70.9265 62.0181 71.4909C60.6718 71.8966 59.3587 72.4093 58.0936 73.029C54.0879 72.0847 49.9052 71.9925 45.8626 72.7597C45.2171 72.8814 44.5753 73.029 43.9409 73.195C40.4737 71.7823 36.752 71.0446 33.0119 71.0556C31.2009 71.0593 29.0468 71.0409 27.9993 72.8298C27.0919 74.3863 27.1878 76.4556 27.553 78.1597C27.9218 79.8859 28.7038 81.5125 29.8103 82.8698C28.8439 85.3854 28.1616 88.0116 27.778 90.682C27.1103 93.5111 26.9075 96.4103 27.5788 99.3463C28.1984 102.065 29.6296 104.481 31.7025 106.306C33.7791 108.136 36.3168 109.353 38.9282 110.176C40.2856 110.604 41.6762 110.943 43.0852 111.197" fill="white"/>
<path d="M27.8517 90.4533C27.7521 90.8849 27.6599 91.3165 27.5825 91.748C27.9624 92.375 28.4603 92.9209 29.0763 93.3377C30.0648 94.0017 31.2488 94.282 32.4181 94.3521C33.7459 94.4332 35.0848 94.2599 36.3832 93.9758C37.8033 93.666 39.1754 93.1644 40.4737 92.5041C41.7979 91.8328 43.0446 90.9992 44.177 90.0255C45.313 89.048 46.3384 87.9304 47.1941 86.6911C48.0425 85.4628 48.7285 84.1092 49.1822 82.678C49.4146 81.944 49.6101 81.1805 49.6839 80.4133C49.7687 79.5317 49.8203 78.6465 49.7908 77.765C49.7724 77.2965 49.7318 76.8281 49.6617 76.3633C49.6027 75.9761 49.5326 75.5814 49.4109 75.2089C49.2044 74.5707 48.8687 73.9806 48.5367 73.4052C48.3154 73.0142 48.0831 72.6269 47.8728 72.2286C47.2236 72.306 46.5745 72.4056 45.929 72.5273C45.2835 72.649 44.6417 72.7966 44.0073 72.9626C40.5401 71.5499 36.8184 70.8122 33.0783 70.8232C31.2673 70.8269 29.1132 70.8085 28.0657 72.5974C27.1583 74.1539 27.2542 76.2232 27.6194 77.9273C27.9882 79.6535 28.7702 81.2801 29.8767 82.6374C28.9103 85.153 28.228 87.7792 27.8444 90.4496L27.8517 90.4533Z" fill="#5C452D"/>
<path d="M75.8131 97.1074C75.1454 96.8824 74.4557 96.7459 73.7623 96.6979C73.9909 94.4701 73.825 92.1833 73.4045 89.9739C72.936 87.5063 72.1651 85.1198 71.302 82.7702C72.2795 80.9334 73.1905 79.0486 73.718 77.0199C74.0905 75.5888 74.3893 73.9622 73.9061 72.5236C73.659 71.7896 73.209 71.1552 72.5783 70.7163C71.8738 70.2294 71.018 70.0339 70.1844 69.9528C69.325 69.8716 68.4508 69.9196 67.5914 69.9823C66.5697 70.056 65.5517 70.1888 64.5484 70.3843C62.3317 70.8122 60.1776 71.5388 58.1415 72.5236C55.2903 71.8671 52.3506 71.6237 49.433 71.8191C47.954 71.9187 46.4786 72.1253 45.029 72.4499C44.8483 72.4904 44.6675 72.531 44.4905 72.5753C44.3245 72.6159 44.1438 72.697 43.9741 72.6675C43.7897 72.6343 43.5831 72.5126 43.4061 72.4462C43.2143 72.3761 43.0261 72.306 42.8343 72.2359C42.1077 71.9777 41.37 71.7491 40.6249 71.5499C37.8217 70.8011 34.9078 70.4765 32.0123 70.5761C30.9906 70.6093 29.9025 70.731 29.0099 71.2843C27.9808 71.9187 27.4349 73.0659 27.2284 74.2388C26.712 77.1859 27.7927 80.3801 29.5964 82.6854C29.1279 83.9247 28.7222 85.1899 28.3903 86.4772C28.2206 87.1411 28.0657 87.8087 27.9329 88.48C27.8001 89.1476 27.7226 89.83 27.5825 90.4939C27.0624 92.9173 26.8116 95.3627 27.1583 97.834C27.1952 98.0959 27.2394 98.3541 27.2874 98.6123C26.6345 98.6565 25.9817 98.7524 25.3362 98.8963C25.1444 98.9369 25.2255 99.2356 25.4173 99.1951C26.0554 99.0549 26.7046 98.9627 27.3501 98.9184C27.6083 100.121 28.014 101.283 28.571 102.371C27.8665 102.688 27.1915 103.068 26.546 103.503C26.3837 103.614 26.5349 103.879 26.7009 103.769C27.3427 103.334 28.0177 102.957 28.7148 102.64C28.9657 103.105 29.246 103.555 29.5521 103.986C30.9132 105.897 32.7611 107.372 34.7971 108.472C37.3754 109.862 40.2266 110.696 43.0888 111.216C43.4134 111.275 43.5573 110.773 43.229 110.71C38.5557 109.862 33.532 108.14 30.4189 104.278C29.9468 103.691 29.5411 103.075 29.1943 102.434C29.7697 102.201 30.3636 102.009 30.9685 101.862C31.1566 101.814 31.0792 101.519 30.8874 101.563C30.2603 101.718 29.6443 101.917 29.0505 102.157C28.5193 101.12 28.1394 100.021 27.8886 98.8852C29.1427 98.8557 30.4005 99.0069 31.6214 99.3463C31.8095 99.3979 31.8906 99.0992 31.7025 99.0475C30.4337 98.6971 29.1279 98.5422 27.8259 98.5791C27.3575 96.2111 27.446 93.7029 27.9292 91.3128C28.2206 89.8706 28.4382 88.421 28.7923 86.9899C29.1501 85.5329 29.6038 84.1055 30.1349 82.7038C30.1681 82.6153 30.1275 82.5194 30.0722 82.4494C29.0431 81.1731 28.3017 79.6719 27.9255 78.0674C27.553 76.4814 27.4017 74.6408 28.0915 73.1175C28.689 71.8044 29.8878 71.2732 31.2378 71.1405C32.7279 70.9929 34.2697 71.063 35.7598 71.1995C37.5561 71.3655 39.334 71.7085 41.0639 72.2101C41.9417 72.4646 42.8085 72.7597 43.6569 73.0954C43.8671 73.1802 43.9741 73.2318 44.1954 73.1802C44.3946 73.1359 44.5938 73.0806 44.7929 73.0327C45.2687 72.922 45.7482 72.8187 46.2314 72.7339C49.6691 72.1105 53.2248 72.1142 56.6588 72.7413C57.0645 72.815 57.4665 72.8962 57.8686 72.9884C58.0604 73.0327 58.1674 73.0659 58.3444 72.9921C58.5768 72.8962 58.8055 72.7708 59.0342 72.6675C59.8346 72.306 60.6497 71.9888 61.4833 71.7122C63.1394 71.1626 64.8546 70.7827 66.5882 70.5872C68.0857 70.4175 69.764 70.2331 71.2357 70.6536C71.9438 70.8565 72.593 71.24 73.0209 71.8597C73.386 72.3872 73.5631 73.029 73.6147 73.6671C73.7217 75.0171 73.3897 76.3966 72.9914 77.6765C72.7037 78.5949 72.3422 79.4838 71.9365 80.3543C71.7594 80.7342 71.575 81.1104 71.3832 81.483C71.2688 81.708 71.1545 81.9293 71.0365 82.1506C70.9479 82.3202 70.7709 82.5305 70.7635 82.7297C70.7562 82.8846 70.8889 83.117 70.9406 83.2571C71.018 83.4674 71.0918 83.6776 71.1693 83.8915C71.3205 84.312 71.4643 84.7362 71.6045 85.1604C71.8627 85.946 72.1024 86.739 72.3201 87.5358C72.7664 89.1956 73.1094 90.8923 73.2717 92.6074C73.3971 93.9574 73.4045 95.3185 73.2606 96.6611C71.9807 96.65 70.7008 96.9377 69.5279 97.5131C69.3508 97.5979 69.5058 97.8672 69.6828 97.7787C70.7967 97.2328 72.0102 96.9635 73.2274 96.9672C73.0762 98.1844 72.7959 99.3795 72.368 100.53C71.693 100.394 71.007 100.294 70.3172 100.235C70.1217 100.217 70.1254 100.527 70.3172 100.545C70.9701 100.604 71.6156 100.696 72.2574 100.822C72.0545 101.331 71.8184 101.832 71.5529 102.319C70.0074 105.13 67.3996 107.018 64.5484 108.287C63.737 108.649 62.9107 108.966 62.0698 109.254C61.7563 109.361 61.8817 109.87 62.1989 109.763C66.0644 108.438 69.893 106.38 71.966 102.644C72.2758 102.087 72.5414 101.515 72.7701 100.932C73.6221 101.128 74.4631 101.379 75.2819 101.692C75.4663 101.762 75.5438 101.463 75.3631 101.393C74.5516 101.084 73.7217 100.833 72.877 100.641C73.3086 99.4606 73.5889 98.236 73.7401 96.9893C74.4188 97.0373 75.0901 97.1701 75.743 97.3877C75.9274 97.4504 76.0085 97.1516 75.8241 97.0889L75.8131 97.1074Z" fill="#211E1F"/>
<path d="M69.7197 75.3712C68.5873 76.0204 67.632 76.924 66.9164 78.0269C66.8021 78.2039 67.0787 78.3736 67.1894 78.1965C67.8754 77.1416 68.7939 76.2785 69.8746 75.6552C70.0553 75.5519 69.9004 75.2642 69.7197 75.3675V75.3712Z" fill="#211E1F"/>
<path d="M34.9484 79.1076C34.6127 77.883 33.8566 76.8355 32.8091 76.1421C32.6357 76.0277 32.4697 76.308 32.6431 76.4224C33.6205 77.0679 34.325 78.049 34.6385 79.1887C34.6939 79.3916 35.0074 79.3105 34.9484 79.1076Z" fill="#211E1F"/>
<path d="M50.5838 94.8611C51.1592 94.6213 51.8969 94.2267 52.0592 93.6291C52.2953 92.755 51.2736 92.6996 50.7056 92.7623C50.3183 92.8029 49.9384 92.8914 49.5732 93.0316C49.3039 93.1312 48.9388 93.2492 48.806 93.5332C48.5257 94.1381 49.4552 94.5844 50.0121 94.7984C50.0232 94.8574 50.0638 94.909 50.1449 94.9201C50.156 94.9201 50.1634 94.9201 50.1707 94.9238C50.1855 94.9385 50.2002 94.9533 50.2187 94.9607C50.3441 95.5434 50.4695 96.1262 50.5949 96.709C50.6465 96.9524 51.0154 96.8566 50.9638 96.6131C50.8383 96.0303 50.7129 95.4475 50.5875 94.8648L50.5838 94.8611Z" fill="#211E1F"/>
<path d="M68.3992 98.3098C67.7464 98.0885 67.0382 98.1144 66.3484 98.2951C65.9611 98.3652 65.5775 98.4648 65.205 98.5939C64.5743 98.8115 63.8292 99.1029 63.4603 99.7078C63.1431 100.224 63.1948 100.862 63.4714 101.382C63.7997 102.009 64.4193 102.367 65.0796 102.544C66.4554 102.906 68.2738 102.707 69.2033 101.5C70.0332 100.42 69.7529 98.7709 68.4029 98.3135L68.3992 98.3098Z" fill="#F2C6BA"/>
<path d="M38.825 102.083C39.1864 100.995 38.6258 99.6192 37.4307 99.4164C36.6746 99.2873 35.8262 99.6598 35.1623 99.9881C35.0812 100.029 34.9963 100.073 34.9189 100.113C33.9082 100.438 32.8644 101.017 32.857 102.22C32.8459 103.699 34.5316 104.127 35.6861 104.086C36.9881 104.042 38.3787 103.418 38.825 102.079V102.083Z" fill="#F2C6BA"/>
<path d="M69.2586 107.125C68.2886 105.347 67.1304 103.485 65.6845 101.972C65.2197 101.467 64.7107 101.006 64.1575 100.608C63.6411 100.22 63.0915 99.8848 62.505 99.6119C60.0411 98.4611 57.0534 98.6307 55.5449 100.925C55.0285 101.711 54.7408 102.688 54.833 103.673C54.8108 104.02 54.8256 104.374 54.8809 104.72C55.0985 106.122 55.9875 107.243 57.1088 108.066C58.3481 108.973 59.7645 109.556 60.9854 110.493C61.6604 111.013 62.2099 111.636 62.6304 112.385C63.0915 113.204 63.4124 114.085 63.8366 114.919C64.246 115.727 64.7993 116.535 65.5074 117.073C65.5406 117.036 65.5738 116.999 65.607 116.966C65.7029 117.021 65.8025 117.069 65.9021 117.114C66.8279 117.49 67.9013 117.28 68.7496 116.793C69.8857 116.144 70.6234 115.015 70.8299 113.768C70.8926 113.75 70.9553 113.728 71.018 113.709C71.2357 111.504 70.3283 109.084 69.2623 107.122L69.2586 107.125Z" fill="white"/>
<path d="M69.1258 106.417C67.2447 103.086 64.5484 99.3869 60.5464 98.7709C59.1116 98.5496 57.5883 98.7672 56.4043 99.6709C55.7772 100.147 55.283 100.792 54.9694 101.522C54.6006 102.382 54.56 103.278 54.6006 104.2C54.6817 106.022 55.7994 107.454 57.2342 108.442C59.0231 109.678 61.1919 110.412 62.3612 112.385C63.2944 113.96 63.7812 116.015 65.2456 117.18C65.2677 117.243 65.3083 117.298 65.3857 117.328C66.6841 117.837 68.2111 117.696 69.3693 116.892C70.4426 116.147 71.1139 114.949 71.2504 113.643C71.2504 113.643 71.2541 113.643 71.2578 113.643C71.4828 111.149 70.3172 108.527 69.1295 106.421L69.1258 106.417ZM65.6402 116.926C65.6402 116.926 65.6513 116.911 65.6587 116.907C64.2902 115.908 63.7702 114.111 63.0214 112.643C62.623 111.865 62.1103 111.161 61.4538 110.585C60.7419 109.965 59.9157 109.493 59.1005 109.032C57.5883 108.173 55.9469 107.214 55.3051 105.469C55.1539 105.06 55.0727 104.632 55.0543 104.197C55.0358 103.743 55.0137 103.263 55.0727 102.813C55.1797 101.976 55.5559 101.172 56.1203 100.552C57.0793 99.4901 58.4846 99.077 59.8714 99.1619C63.5784 99.3832 66.271 102.592 68.0968 105.572C69.4615 107.797 71.0512 110.744 70.8225 113.51C70.8115 113.536 70.8004 113.565 70.7967 113.595C70.557 116.166 67.9935 117.756 65.6402 116.929V116.926Z" fill="#211E1F"/>
<path d="M64.2976 112.444C64.8878 110.651 64.1243 108.756 62.789 107.531C61.1108 105.993 58.7649 105.665 56.5887 105.702C52.1883 105.768 47.7917 106.974 43.9224 109.102C43.4208 109.379 42.9229 109.67 42.4397 109.98C42.1778 110.146 41.9048 110.308 41.6614 110.493C41.5508 110.578 41.4622 110.648 41.4585 110.803C41.4585 111.057 41.6909 111.168 41.8975 111.072C42.1335 110.965 42.3622 110.758 42.5835 110.618C42.8122 110.471 43.0446 110.327 43.2806 110.183C45.2392 109.006 47.338 108.081 49.5179 107.428C51.7383 106.764 54.0695 106.362 56.3858 106.299C58.5768 106.24 60.9706 106.576 62.6009 108.206C63.3239 108.929 63.8402 109.881 63.8993 110.924C63.9657 112.068 63.453 113.112 62.6562 113.89C60.9559 115.542 58.551 115.745 56.3194 115.782C54.1211 115.815 51.8047 115.745 49.7908 116.782C47.9613 117.722 46.6261 119.474 44.7044 120.245C42.5208 121.119 40.2229 119.969 38.8692 118.172C37.4897 116.339 37.1873 113.938 37.2168 111.692C37.2242 111.05 37.3016 110.412 37.3127 109.774C37.3164 109.538 37.1688 109.313 36.9033 109.423C36.575 109.563 36.6709 110.249 36.6525 110.53C36.6193 111.087 36.6008 111.647 36.6082 112.208C36.6303 114.399 37.0361 116.664 38.3418 118.46C39.5885 120.171 41.6393 121.418 43.7897 121.13C46.1798 120.81 47.6921 118.685 49.6765 117.542C53.66 115.244 58.787 117.674 62.5677 114.779C63.3571 114.178 63.9546 113.388 64.2939 112.444H64.2976Z" fill="#211E1F"/>
<path d="M63.903 110.924C63.8439 109.881 63.3275 108.929 62.6046 108.206C60.9743 106.576 58.5805 106.24 56.3895 106.299C54.0732 106.362 51.742 106.764 49.5216 107.428C47.3417 108.081 45.2429 109.006 43.2843 110.183C43.0483 110.323 42.8159 110.467 42.5872 110.618C42.3696 110.758 42.1372 110.969 41.9012 111.072C41.6946 111.164 41.4622 111.057 41.4622 110.803C41.4622 110.711 41.4954 110.648 41.5471 110.596C41.4512 110.556 41.3553 110.515 41.2557 110.482C40.5622 110.253 39.8614 110.069 39.1422 109.94C38.7696 109.873 38.3971 109.814 38.0209 109.781C37.8438 109.766 37.6594 109.748 37.4824 109.751C37.427 109.751 37.3717 109.759 37.3164 109.763C37.3164 109.766 37.3164 109.77 37.3164 109.777C37.3053 110.415 37.2279 111.054 37.2205 111.695C37.191 113.938 37.4934 116.339 38.8729 118.176C40.2266 119.976 42.5245 121.127 44.7081 120.249C46.6298 119.478 47.965 117.73 49.7945 116.785C51.8084 115.749 54.1285 115.819 56.3231 115.786C58.5547 115.753 60.9595 115.546 62.6599 113.894C63.4603 113.115 63.9693 112.072 63.903 110.928V110.924Z" fill="white"/>
<path d="M67.7168 93.8799C66.0939 93.3967 64.3308 93.6402 62.8923 94.5475C62.5198 94.7836 62.8628 95.3848 63.2353 95.1488C64.5226 94.3336 66.0755 94.116 67.5324 94.5512C67.9566 94.6766 68.1373 94.0053 67.7132 93.8799H67.7168Z" fill="#211E1F"/>
<path d="M37.6742 95.6799C36.1914 94.8426 34.3767 94.8353 32.8865 95.6541C32.4992 95.868 32.8459 96.4656 33.2295 96.2553C34.5058 95.5545 36.0623 95.5656 37.3274 96.2811C37.711 96.4988 38.0578 95.8975 37.6705 95.6799H37.6742Z" fill="#211E1F"/>
<path d="M48.7876 62.5204C48.1531 62.4135 47.5113 62.3803 46.8695 62.4061C46.1909 62.4208 45.5159 62.5094 44.8556 62.668C42.827 63.0958 40.8426 63.9848 39.061 64.9069C37.0988 65.9249 35.0185 67.415 33.9857 69.3699C34.0263 69.4216 34.0668 69.4732 34.1074 69.5249C33.9635 69.8494 33.8603 70.1925 33.7976 70.5429C33.9082 70.5539 34.0152 70.565 34.1258 70.5835C36.3168 70.6646 38.4967 70.9892 40.6139 71.5535C40.9606 71.6457 41.3073 71.7453 41.6503 71.8523C41.9491 71.915 42.2516 71.974 42.543 72.0625C42.779 72.1326 42.9893 72.2285 43.1848 72.3724C43.2548 72.3982 43.3249 72.424 43.395 72.4498C43.4171 72.4572 43.4393 72.4683 43.4651 72.4793C43.6643 72.4498 43.8634 72.4277 44.07 72.4166C45.597 72.3318 47.0909 72.6564 48.6179 72.6084C50.0011 72.5642 51.3511 72.14 52.3027 71.1035C52.5387 70.8453 52.7453 70.5613 52.9187 70.2626C53.5346 69.499 53.8334 68.5253 53.8371 67.581C53.8445 64.8184 51.4617 62.9778 48.7876 62.5315V62.5204Z" fill="white"/>
<path d="M53.815 66.0393C53.3281 64.6192 52.1846 63.5717 50.8752 62.9372C47.2163 61.1705 42.9524 62.7049 39.559 64.3942C37.416 65.4639 35.0074 66.9761 33.8271 69.1708C33.8271 69.1708 33.8271 69.1745 33.8308 69.1782C33.6095 69.6023 33.4582 70.056 33.3734 70.5208C33.5246 70.5208 33.6758 70.5318 33.8271 70.5429C33.8972 70.1519 34.0299 69.7646 34.2291 69.3921C34.2439 69.3626 34.2512 69.3331 34.2549 69.3072C35.5828 66.8839 38.5225 65.3458 40.8758 64.2762C44.0257 62.845 48.0204 61.7164 51.2146 63.6417C52.4096 64.361 53.3502 65.5044 53.5604 66.9319C53.6859 67.7692 53.5568 68.647 53.1842 69.4032C52.985 69.8126 52.7047 70.1962 52.4391 70.5613C52.1846 70.9117 51.8785 71.2216 51.5318 71.4724C50.0416 72.5568 48.1568 72.413 46.4269 72.2654C45.4937 72.1843 44.5569 72.1068 43.6237 72.2138C43.4429 72.2359 43.2659 72.2654 43.0925 72.3023C43.1479 72.3392 43.2032 72.3798 43.2548 72.4203C43.3618 72.5089 43.4651 72.6011 43.5647 72.6933C43.5684 72.6933 43.572 72.7007 43.5757 72.7043C45.1249 72.5052 46.722 72.8371 48.3007 72.8334C50.0343 72.8298 51.7457 72.2802 52.8117 70.8158C53.3539 70.0708 53.8113 69.3072 53.9772 68.3851C54.1174 67.6032 54.0584 66.7843 53.8039 66.0356L53.815 66.0393Z" fill="#211E1F"/>
<path d="M33.9635 76.9535C32.8017 74.0728 30.5443 71.8412 27.789 70.6831C27.7153 69.488 27.6378 68.2966 27.553 67.1015C27.5345 66.847 27.5198 66.5888 27.5087 66.3307C27.3501 66.3491 27.1767 66.3565 27.0735 66.3639C24.2481 66.6589 21.3526 66.6663 18.5568 66.113C18.3723 67.0204 18.1953 67.9278 18.0109 68.8351C17.76 70.0782 17.465 71.3175 17.2842 72.5753C17.1551 73.4752 17.1219 74.4158 17.3654 75.2863C17.3986 75.7105 17.4797 76.131 17.6273 76.5441C18.1805 78.0822 19.5084 78.7719 20.8436 79.4948C22.2895 80.2805 23.5842 81.3133 24.6612 82.571C25.7198 83.8104 26.5571 85.3079 28.003 86.1415C28.0952 86.1931 28.1874 86.2448 28.2833 86.289C29.305 87.1595 30.6439 87.4103 31.9459 86.8312C35.5311 85.2304 35.1918 80.0075 33.9599 76.9535H33.9635Z" fill="white"/>
<path d="M34.5943 78.1301C33.6648 74.7441 31.2267 71.9962 28.0952 70.5724C28.0767 70.5318 28.0472 70.4913 28.003 70.4691C27.9771 70.0302 27.9476 69.5913 27.9181 69.1523C27.9107 69.0159 27.7853 68.9163 27.6525 68.9421C27.6525 68.9421 27.6525 68.9421 27.6489 68.9421C27.5382 68.9642 27.4571 69.0675 27.4644 69.1819C27.4903 69.5618 27.5124 69.9454 27.5382 70.3253L26.8042 70.115C26.4907 70.0265 26.428 70.447 26.6272 70.5392L27.6267 70.8306C27.6267 70.8306 27.6489 70.8527 27.6636 70.8601C27.6821 70.8786 27.7042 70.8933 27.7337 70.9044C30.5701 72.1142 32.8828 74.5117 33.9193 77.4699C34.6902 79.6682 35.0111 82.4715 33.923 84.6181C33.3144 85.8169 32.1488 86.7796 30.7951 86.8976C30.3968 86.9308 29.9984 86.8866 29.6185 86.7685C29.1464 86.621 28.8181 86.3444 28.4087 86.0862C28.0952 85.887 27.7743 85.7321 27.4829 85.496C27.1435 85.2194 26.8374 84.9022 26.5534 84.5739C26.0296 83.9653 25.5686 83.305 25.0632 82.6817C24.521 82.0178 23.9198 81.4055 23.2633 80.8559C22.6178 80.3174 21.928 79.8342 21.1977 79.4211C20.5375 79.0449 19.8514 78.7129 19.2428 78.2592C18.4609 77.6764 17.915 76.8982 17.701 75.9281C17.4539 74.8105 17.3654 73.7039 17.5277 72.5642C17.6826 71.4761 17.9297 70.4027 18.1547 69.3294C18.376 68.2597 18.5826 67.1827 18.8039 66.113C18.8223 66.113 18.8445 66.1204 18.8629 66.1241C18.767 65.9766 18.5457 65.9397 18.3834 65.8991C17.9482 68.0015 17.4539 70.1077 17.1256 72.2285C16.9707 73.2355 16.9264 74.2093 17.1256 75.2125C17.3064 76.131 17.4428 76.9609 18.0293 77.717C19.0805 79.0744 20.8178 79.6239 22.1715 80.5903C22.946 81.1436 23.6616 81.7854 24.2997 82.4936C24.8825 83.1428 25.3804 83.8583 25.9263 84.537C26.4649 85.2046 27.0624 85.8354 27.7964 86.2853C28.5341 86.739 29.2017 87.2333 30.0833 87.3476C31.5218 87.5394 32.9677 86.7796 33.8381 85.6362C35.4131 83.5669 35.2656 80.5239 34.609 78.1301H34.5943Z" fill="#221F1F"/>
<path d="M18.6859 47.3239C16.9781 48.2866 15.0785 48.8251 13.1273 48.8989C12.8359 48.9099 12.8322 49.3747 13.1273 49.3636C14.149 49.3267 15.1523 49.1644 16.1297 48.8878C16.2625 49.4079 16.6387 50.1308 17.2879 49.8616C17.9002 49.6071 17.808 48.8767 17.6199 48.3604C18.0625 48.1722 18.4941 47.962 18.9145 47.7223C19.169 47.5784 18.9404 47.1764 18.6859 47.3239Z" fill="#211E1F"/>
<path d="M42.7716 39.449C41.2151 40.6515 39.4114 41.4593 37.4897 41.8133C37.202 41.865 37.2647 42.3261 37.5561 42.2707C38.5594 42.0863 39.5332 41.7802 40.459 41.3634C40.6618 41.8613 41.1376 42.5178 41.7426 42.1564C42.3143 41.8133 42.1188 41.1089 41.8606 40.622C42.27 40.3712 42.6721 40.0982 43.0557 39.8031C43.288 39.6224 43.0077 39.2609 42.7716 39.4417V39.449Z" fill="#211E1F"/>
<path d="M32.9898 46.542C33.1336 45.5719 32.2742 45.2473 31.4812 45.3948C30.3636 45.5977 26.3173 47.3608 28.1726 48.9579C28.5894 49.3194 29.1685 49.3858 29.6923 49.4374C30.1386 49.4817 30.5849 49.4817 30.998 49.3268C31.1714 49.8247 31.3669 50.319 31.5882 50.8022C31.7099 51.0714 32.1046 50.839 31.9828 50.5698C31.7652 50.0903 31.5734 49.6034 31.4037 49.1055C31.4332 49.0686 31.448 49.0243 31.4517 48.9801C32.1709 48.3899 32.8496 47.4936 32.9935 46.5493L32.9898 46.542Z" fill="#211E1F"/>
<path d="M18.3281 53.989C17.2252 51.964 14.5621 51.2706 12.6773 52.5874C12.1425 52.9599 11.7109 53.4542 11.4159 54.0222C10.8478 54.9443 10.7667 56.1394 11.1097 57.1611C11.8659 59.4 14.2966 60.5139 16.4433 59.5844C18.5125 58.6881 19.4199 56.0029 18.3281 53.9927V53.989Z" fill="#F2C6BA"/>
<path d="M43.0077 23.1606C41.7462 24.3631 40.8905 25.9418 40.5696 27.668C40.5254 27.9114 40.8905 28.0147 40.9348 27.7712C41.2483 26.1041 42.0598 24.5955 43.277 23.4336C43.454 23.2639 43.1884 22.991 43.0077 23.1606Z" fill="#211E1F"/>
<path d="M10.029 36.974C9.05523 35.9081 7.85647 35.1076 6.51386 34.6097C6.28518 34.5249 6.18559 34.8974 6.41428 34.9822C7.69418 35.4581 8.83392 36.2289 9.75973 37.247C9.92571 37.4277 10.195 37.1548 10.029 36.974Z" fill="#211E1F"/>
<path d="M33.2185 104.964C32.5103 104.126 31.4443 103.562 30.3488 103.54C29.2534 103.518 28.3054 104.115 27.7374 105.052C27.1399 106.037 26.9517 107.217 26.7231 108.335C26.4575 109.633 26.0591 110.895 25.4063 112.042C24.6427 113.381 23.503 114.517 22.1456 115.159C20.7256 115.454 19.2502 115.428 17.8596 114.993C15.7941 114.347 14.0052 112.676 13.3412 110.596C11.7884 109.032 10.5048 107.203 9.62694 105.141C9.44621 104.713 9.28391 104.281 9.13637 103.842C8.77859 104.451 8.47614 105.089 8.24376 105.764C7.34746 108.39 7.83803 111.267 9.04047 113.705C11.4085 118.501 16.4101 121.496 21.6735 121.237C26.889 120.983 31.5402 117.582 33.4804 112.651C34.3988 110.319 34.9853 107.051 33.2148 104.964H33.2185Z" fill="white"/>
<path d="M34.3988 106.841C33.9377 104.975 32.3959 103.392 30.4374 103.315C29.4931 103.278 28.6079 103.665 27.9661 104.363C27.28 105.108 26.9628 106.133 26.7415 107.107C26.4907 108.217 26.3063 109.327 25.9116 110.397C25.5206 111.456 24.9747 112.451 24.226 113.292C23.846 113.717 23.4182 114.1 22.9534 114.425C22.4407 114.779 21.976 114.978 21.36 115.055C20.283 115.188 19.1838 115.129 18.1363 114.838C16.2957 114.329 14.6433 112.994 13.8281 111.227C13.7876 111.138 13.7507 111.053 13.7138 110.965C13.474 110.736 13.238 110.497 13.0093 110.253C13.0794 110.556 13.1753 110.854 13.2933 111.146C13.9498 112.743 15.2297 114.041 16.7494 114.797C17.5904 115.218 18.5162 115.461 19.4457 115.546C19.8883 115.587 20.3309 115.594 20.7735 115.572C21.242 115.546 21.7768 115.524 22.2231 115.373C22.6657 115.225 23.1194 114.882 23.4883 114.602C23.8829 114.299 24.2518 113.953 24.5837 113.58C25.2698 112.809 25.7936 111.909 26.1845 110.95C26.5755 109.999 26.819 109.003 27.0181 107.996C27.2247 106.963 27.4312 105.86 28.0472 104.986C29.5447 102.865 32.4845 103.846 33.5467 105.871C34.6238 107.918 34.0594 110.519 33.2664 112.562C30.9906 118.272 25.0079 121.831 18.9994 120.857C13.3671 119.946 8.29171 115.011 8.01508 109.043C7.93393 107.299 8.38761 105.631 9.22859 104.127C9.1622 103.935 9.09949 103.747 9.03679 103.551C8.38393 104.628 7.88598 105.801 7.67574 107.059C7.13353 110.29 8.35073 113.654 10.3093 116.173C12.1314 118.515 14.6802 120.219 17.5129 121.005C20.4821 121.831 23.6948 121.573 26.5091 120.301C29.755 118.829 32.348 116.096 33.6832 112.746C34.3951 110.91 34.8746 108.8 34.3914 106.841H34.3988Z" fill="#010101"/>
<path d="M8.51302 55.1472C7.16304 55.5087 5.87207 56.0472 4.66225 56.7554C4.49258 56.855 4.64381 57.1206 4.81717 57.021C6.00486 56.3275 7.27001 55.8001 8.59417 55.446C8.78228 55.3943 8.70114 55.0993 8.51302 55.1472Z" fill="#211E1F"/>
<path d="M9.74867 57.9393C8.53884 58.5922 7.45812 59.4516 6.536 60.4807C6.40321 60.6283 6.61714 60.8459 6.74993 60.6983C7.65361 59.684 8.7122 58.8467 9.89989 58.2049C10.0733 58.1127 9.91834 57.8434 9.74498 57.9393H9.74867Z" fill="#211E1F"/>
</svg>
