<svg width="160" height="160" viewBox="0 0 160 160" fill="none" xmlns="http://www.w3.org/2000/svg">
<g clip-path="url(#clip0_1_499)">
<path d="M75.3268 83.8647C77.2665 87.2947 77.9779 91.195 77.3311 94.8471C76.8888 97.347 75.8154 99.5982 74.2567 101.384C73.1965 102.6 73.3353 104.459 74.5985 105.459C76.2231 106.744 77.6043 108.347 78.6558 110.206C80.7932 113.985 81.6659 118.479 80.158 122.554C77.634 129.373 69.0991 136.57 60.9058 141.247C52.7125 145.923 42.9698 149.5 34.9865 148.065C30.9768 147.344 27.7172 144.497 25.5699 141.075C24.3046 139.057 23.5163 136.812 23.2209 134.506C23.0161 132.909 21.5188 131.813 19.9311 132.1C17.582 132.523 15.0816 132.285 12.6957 131.367C9.23362 130.037 6.26042 127.415 4.32214 123.988C2.3828 120.559 1.67135 116.659 2.3178 113.006C3.01922 109.046 5.30443 105.712 8.58897 103.855L8.59897 103.851C8.61176 103.842 8.62448 103.835 8.63797 103.828C10.2096 102.95 10.5944 100.852 9.39693 99.5108C8.57525 98.5898 7.8418 97.5689 7.21649 96.4632C5.2768 93.0333 4.56536 89.1329 5.21215 85.4808C5.91246 81.5209 8.19921 78.1858 11.4845 76.3288L11.4953 76.3238C14.7782 74.4716 18.8141 74.2377 22.5659 75.679C22.6652 75.7171 22.7641 75.7563 22.8614 75.7963C23.5653 76.0841 24.3457 75.6432 24.4613 74.892C24.4775 74.7852 24.4952 74.6796 24.514 74.5725C25.2155 70.6131 27.5003 67.2779 30.7841 65.4216L30.7964 65.4159C34.0793 63.5637 38.1145 63.3282 41.8667 64.7703C45.3288 66.101 48.3035 68.7218 50.241 72.149C50.866 73.254 51.364 74.4087 51.7291 75.588C52.2608 77.3039 54.2562 78.0581 55.8182 77.1646C55.8352 77.155 55.8514 77.1457 55.8684 77.1361L55.8791 77.1311C59.1628 75.2786 63.1987 75.0446 66.9497 76.4863C70.4119 77.817 73.3859 80.4363 75.3238 83.8642L75.3268 83.8647Z" fill="#A4419A"/>
<path d="M60.0669 140.591C55.6684 143.07 51.4083 144.909 47.404 146.057C42.7944 147.378 38.6757 147.728 35.1623 147.096C30.6022 146.276 27.7188 142.644 26.4054 140.552C25.2415 138.696 24.4781 136.562 24.1991 134.38C24.0657 133.337 23.5246 132.421 22.678 131.801C21.8306 131.182 20.794 130.943 19.7577 131.13C17.5616 131.526 15.2427 131.29 13.0514 130.448C9.80278 129.199 7.00765 126.733 5.18132 123.502C3.35456 120.272 2.68266 116.604 3.28912 113.175C3.93875 109.507 6.04724 106.422 9.07472 104.711L9.1326 104.679C10.1499 104.105 10.8431 103.118 11.0353 101.972C11.2235 100.843 10.8955 99.706 10.1342 98.8538C9.3544 97.9796 8.6622 97.0122 8.07567 95.977C6.24857 92.7462 5.57666 89.0785 6.18348 85.6499C6.83234 81.982 8.94125 78.8964 11.9695 77.1849L11.9795 77.1803C15.0053 75.4736 18.7348 75.2611 22.2115 76.5972C22.304 76.6328 22.3959 76.6688 22.4876 76.7066C23.1034 76.9586 23.7882 76.9163 24.3655 76.5906C24.9429 76.265 25.335 75.6992 25.4371 75.0405C25.4527 74.9405 25.4686 74.8412 25.4865 74.7421C26.1361 71.0738 28.2443 67.9885 31.2702 66.2781L31.281 66.2731C34.3068 64.5665 38.0362 64.354 41.5126 65.6893C44.7623 66.938 47.5574 69.4043 49.3831 72.6338C49.9688 73.6694 50.441 74.7616 50.7882 75.8795C51.1261 76.9691 51.9296 77.8363 52.9932 78.2575C54.0716 78.6849 55.2727 78.6021 56.2873 78.0307L56.3633 77.9876C59.3903 76.2813 63.1197 76.0688 66.5957 77.4053C69.8454 78.654 72.6405 81.1202 74.4665 84.3487C76.2936 87.5794 76.9656 91.2472 76.3587 94.6758C75.9523 96.9716 74.968 99.0678 73.512 100.737C72.8208 101.529 72.4802 102.581 72.575 103.623C72.6704 104.661 73.1707 105.587 73.9832 106.23C75.5316 107.454 76.8143 108.955 77.7948 110.691C78.8355 112.531 79.5276 114.508 79.7952 116.407C80.085 118.464 79.8956 120.417 79.2313 122.212C78.1161 125.226 75.6095 128.605 71.9843 131.982C68.7599 134.986 64.6519 137.972 60.4159 140.39C60.2994 140.456 60.1828 140.523 60.0651 140.589L60.0669 140.591Z" fill="#FAD1F1"/>
<path d="M72.8579 112.433C75.8508 117.724 73.8421 124.48 68.3512 127.264C67.2219 127.836 66.0277 128.188 64.8248 128.334C61.6945 128.711 58.6536 129.627 55.9091 131.178L55.1696 131.595C52.3428 133.192 49.8702 135.341 47.8765 137.902C46.9341 139.112 45.712 140.143 44.2403 140.888C39.3331 143.374 33.2561 141.691 30.3369 137.04C28.4121 133.972 28.2359 130.345 29.4994 127.267C31.3163 122.847 31.5541 117.932 30.3656 113.307C28.9833 107.935 29.1784 101.34 36.1376 97.4079C43.0224 93.5165 48.7897 96.7716 52.7065 100.723C56.0988 104.148 60.5151 106.356 65.2754 107.141C68.363 107.65 71.1989 109.5 72.8575 112.434L72.8579 112.433Z" fill="#B707A5"/>
<path d="M44.1956 139.809C44.0663 139.882 43.9333 139.953 43.8004 140.021C39.3573 142.27 33.806 140.735 31.1623 136.523C29.4927 133.862 29.2086 130.539 30.4009 127.636C32.2468 123.145 32.5701 117.969 31.31 113.064C30.5366 110.06 30.4552 107.369 31.0662 105.065C31.8274 102.197 33.6952 99.9052 36.6177 98.2532L36.6323 98.2447C39.5165 96.6186 42.4209 96.2193 45.2662 97.058C47.5523 97.732 49.823 99.1949 52.0149 101.406C55.5248 104.95 60.055 107.265 65.1159 108.099C68.0406 108.581 70.5534 110.335 72.0099 112.911C73.2905 115.176 73.611 117.804 72.9107 120.311C72.2105 122.818 70.5751 124.904 68.3038 126.185C68.1753 126.258 68.043 126.328 67.9109 126.395C66.9068 126.904 65.8296 127.231 64.708 127.368C61.3141 127.777 58.1989 128.77 55.4499 130.32L54.6911 130.747C51.7536 132.407 49.2022 134.613 47.107 137.304C46.3136 138.324 45.3337 139.166 44.1952 139.808L44.1956 139.809Z" fill="#F34AE2"/>
<path d="M27.1163 86.4057C29.8149 91.1783 28.8106 96.8513 24.8734 99.0765C20.9366 101.302 15.5563 99.236 12.857 94.4638C10.1587 89.6921 11.1626 84.0183 15.1014 81.7924C19.0389 79.568 24.4185 81.6328 27.1174 86.4062L27.1163 86.4057Z" fill="#B707A5"/>
<path d="M24.3876 98.2328C20.9261 100.185 16.1335 98.2781 13.7038 93.9832C12.5099 91.8713 12.0631 89.5119 12.4482 87.3401C12.8206 85.2381 13.9322 83.5683 15.5787 82.638C19.0464 80.6835 23.8395 82.5888 26.2676 86.8844C27.4619 88.9971 27.9086 91.3564 27.524 93.5272C27.1524 95.6289 26.0407 97.2986 24.3942 98.2289L24.3873 98.2321L24.3876 98.2328Z" fill="#F34AE2"/>
<path d="M45.6204 75.9492C48.3189 80.7217 47.3147 86.3947 43.3771 88.621C39.4396 90.8454 34.06 88.7806 31.3611 84.0073C28.6625 79.2347 29.6667 73.5617 33.6035 71.3358C37.5411 69.1114 42.9214 71.1759 45.62 75.9484L45.6204 75.9492Z" fill="#B707A5"/>
<path d="M42.8932 87.7774C39.4301 89.7298 34.6375 87.8234 32.209 83.529C29.7787 79.2307 30.6192 74.1406 34.0828 72.1833C37.5512 70.2285 42.3443 72.1338 44.7724 76.4293C47.2027 80.7276 46.3622 85.8177 42.8978 87.7753L42.8924 87.7778L42.8932 87.7774Z" fill="#F34AE2"/>
<path d="M26.4472 86.8561C27.6571 88.9969 28.1085 91.3866 27.7194 93.5863C27.3431 95.7143 26.2163 97.4058 24.5493 98.3483L24.5432 98.3511C22.383 99.5695 19.7099 99.3039 17.4027 97.9032C18.2309 98.0096 19.0969 97.914 19.9094 97.7017C22.8323 96.9364 24.7255 95.4846 25.4792 92.5617C26.4702 88.7167 25.0699 85.3007 22.976 83.1328C24.3314 84.0026 25.5496 85.2696 26.4479 86.8576L26.4472 86.8561Z" fill="#B707A5"/>
<path d="M15.4414 89.412C15.6906 90.2915 16.1553 91.0872 16.7062 91.823C16.9939 92.2076 16.9235 92.7506 16.5428 93.0447C16.5381 93.0487 16.5331 93.0519 16.5284 93.0559C16.1189 93.3724 15.5237 93.2689 15.2503 92.8304C14.6015 91.7912 14.061 90.6838 13.8715 89.4817C13.644 88.0462 14.0137 86.4422 15.0678 85.4674C15.234 85.3143 15.4839 85.2955 15.673 85.4179C15.9009 85.5661 15.9644 85.8695 15.8183 86.0989C15.2088 87.0512 15.1303 88.312 15.4417 89.4128L15.4414 89.412Z" fill="#FF7BF2"/>
<path d="M44.9748 76.3859C46.1847 78.5267 46.6361 80.9164 46.2471 83.1161C45.8708 85.2441 44.744 86.9356 43.077 87.8781L43.0708 87.8809C40.9107 89.0993 38.2376 88.8337 35.9303 87.433C36.7586 87.5394 37.6245 87.4438 38.437 87.2315C41.3599 86.4662 43.2532 85.0144 44.0069 82.0915C44.9979 78.2464 43.5976 74.8305 41.5037 72.6626C42.8591 73.5324 44.0773 74.7994 44.9755 76.3874L44.9748 76.3859Z" fill="#B707A5"/>
<path d="M33.969 78.9418C34.2182 79.8213 34.6829 80.617 35.2338 81.3529C35.5215 81.7374 35.451 82.2804 35.0704 82.5745C35.0657 82.5785 35.0607 82.5817 35.056 82.5857C34.6465 82.9023 34.0512 82.7988 33.7779 82.3602C33.1291 81.321 32.5886 80.2137 32.3991 79.0115C32.1716 77.576 32.5413 75.9721 33.5954 74.9973C33.7615 74.8441 34.0115 74.8253 34.2006 74.9477C34.4284 75.096 34.492 75.3993 34.3459 75.6287C33.7364 76.581 33.6579 77.8418 33.9693 78.9426L33.969 78.9418Z" fill="#FF7BF2"/>
<path d="M69.6672 87.1794C72.3658 91.9519 71.3615 97.6249 67.4239 99.8512C63.4864 102.076 58.1068 100.011 55.4079 95.2375C52.7093 90.465 53.7135 84.7919 57.6504 82.566C61.5879 80.3416 66.9682 82.4061 69.6668 87.1786L69.6672 87.1794Z" fill="#B707A5"/>
<path d="M66.94 99.0077C63.4769 100.96 58.6843 99.0536 56.2557 94.7592C53.8255 90.4609 54.6659 85.3708 58.1295 83.4136C61.598 81.4587 66.391 83.364 68.8191 87.6596C71.2494 91.9579 70.4089 97.0479 66.9446 99.0055L66.9392 99.008L66.94 99.0077Z" fill="#F34AE2"/>
<path d="M69.0216 87.6161C70.2315 89.757 70.6829 92.1467 70.2938 94.3464C69.9175 96.4744 68.7907 98.1659 67.1237 99.1084L67.1176 99.1112C64.9574 100.33 62.2844 100.064 59.9771 98.6633C60.8053 98.7697 61.6713 98.6741 62.4838 98.4618C65.4067 97.6965 67.2999 96.2446 68.0536 93.3217C69.0446 89.4767 67.6443 86.0608 65.5504 83.8929C66.9058 84.7627 68.124 86.0297 69.0223 87.6177L69.0216 87.6161Z" fill="#B707A5"/>
<path d="M58.015 90.1724C58.2642 91.0519 58.729 91.8476 59.2798 92.5834C59.5675 92.968 59.4971 93.511 59.1164 93.8051C59.1117 93.8091 59.1067 93.8123 59.102 93.8163C58.6925 94.1329 58.0973 94.0293 57.8239 93.5908C57.1751 92.5516 56.6346 91.4443 56.4451 90.2421C56.2176 88.8066 56.5874 87.2026 57.6414 86.2279C57.8076 86.0747 58.0576 86.0559 58.2466 86.1783C58.4745 86.3265 58.538 86.6299 58.3919 86.8593C57.7824 87.8116 57.7039 89.0724 58.0153 90.1732L58.015 90.1724Z" fill="#FF7BF2"/>
<path d="M24.3156 112.746C27.0142 117.518 26.0099 123.191 22.0723 125.418C18.1348 127.642 12.7552 125.577 10.0563 120.804C7.35772 116.031 8.36196 110.358 12.2988 108.132C16.2363 105.908 21.6167 107.972 24.3153 112.745L24.3156 112.746Z" fill="#B707A5"/>
<path d="M21.5884 124.574C18.1253 126.526 13.3327 124.62 10.9042 120.325C8.47389 116.027 9.31436 110.937 12.778 108.98C16.2464 107.025 21.0394 108.93 23.4676 113.226C25.8978 117.524 25.0574 122.614 21.593 124.572L21.5876 124.574L21.5884 124.574Z" fill="#F34AE2"/>
<path d="M23.6693 113.183C24.8792 115.324 25.3306 117.713 24.9415 119.913C24.5652 122.041 23.4384 123.732 21.7714 124.675L21.7653 124.678C19.6051 125.896 16.9321 125.631 14.6248 124.23C15.453 124.336 16.319 124.241 17.1315 124.028C20.0544 123.263 21.9476 121.811 22.7013 118.888C23.6923 115.043 22.292 111.627 20.1981 109.459C21.5535 110.329 22.7717 111.596 23.67 113.184L23.6693 113.183Z" fill="#B707A5"/>
<path d="M12.6634 115.739C12.9126 116.618 13.3774 117.414 13.9282 118.15C14.2159 118.534 14.1455 119.077 13.7648 119.371C13.7601 119.375 13.7551 119.379 13.7504 119.383C13.341 119.699 12.7457 119.596 12.4724 119.157C11.8235 118.118 11.283 117.01 11.0936 115.808C10.8661 114.373 11.2358 112.769 12.2899 111.794C12.456 111.641 12.706 111.622 12.895 111.745C13.1229 111.893 13.1864 112.196 13.0403 112.426C12.4308 113.378 12.3523 114.639 12.6638 115.739L12.6634 115.739Z" fill="#FF7BF2"/>
<path d="M72.2349 112.71C73.5155 114.974 73.9264 117.979 73.227 120.486C72.5279 122.994 70.7567 125.12 68.4862 126.4C68.3585 126.473 68.2259 126.543 68.0933 126.611C67.0892 127.12 65.9214 127.55 64.8002 127.685C61.4055 128.094 58.1732 129.096 55.4241 130.645L54.6658 131.073C51.7282 132.733 49.5113 134.719 47.4162 137.411C46.6224 138.43 45.6418 139.272 44.5041 139.914C44.374 139.987 44.241 140.059 44.1081 140.126C39.665 142.376 33.7552 141.095 31.1119 136.882C30.7117 136.244 30.4411 135.208 30.2014 134.509C33.059 136.899 37.5958 137.206 40.6573 135.011C43.9422 132.655 45.3086 128.147 48.8442 126.186C51.303 124.824 54.4421 124.931 56.71 123.269C59.1372 121.49 59.8779 118.074 59.2913 115.127C58.7046 112.18 57.0367 109.579 55.4019 107.059C53.3647 103.918 50.8028 100.258 45.2658 97.0591C47.6515 97.2863 49.9418 98.8043 52.1349 101.016C55.6448 104.56 60.0333 106.9 65.0939 107.734C68.0181 108.217 70.7791 110.135 72.2356 112.711L72.2349 112.71Z" fill="#B707A5"/>
<path d="M157.836 58.114C156.386 61.7783 153.798 64.783 150.549 66.5757C148.326 67.8036 145.9 68.3837 143.529 68.2955C141.917 68.2355 140.557 69.5122 140.574 71.1218C140.594 73.1925 140.216 75.2741 139.429 77.2607C137.831 81.2981 134.883 84.8013 130.764 86.1909C123.872 88.5159 112.908 86.4048 104.12 82.9751C95.3323 79.5453 86.4254 74.2202 82.5253 67.1119C80.5667 63.5416 80.7338 59.2181 82.0464 55.3978C82.8214 53.1456 84.0743 51.1213 85.6821 49.4421C86.7961 48.2786 86.7081 46.4256 85.4883 45.3715C83.6823 43.8121 82.2963 41.7179 81.5111 39.2865C80.3702 35.7592 80.5417 31.7991 81.9913 28.138C83.4415 24.4745 86.0294 21.4698 89.2782 19.6763C92.7995 17.7323 96.831 17.4131 100.34 18.7995L100.351 18.8035C100.364 18.8091 100.379 18.8149 100.392 18.8204C102.064 19.4904 103.937 18.4703 104.229 16.6964C104.429 15.4781 104.762 14.267 105.23 13.0855C106.68 9.42113 109.268 6.41643 112.517 4.62376C116.039 2.67905 120.071 2.35989 123.58 3.74627L123.591 3.75048C127.095 5.13906 129.814 8.12906 131.05 11.9526C131.083 12.0533 131.114 12.1545 131.145 12.2564C131.363 12.9845 132.197 13.3139 132.854 12.9321C132.947 12.8776 133.04 12.8248 133.135 12.7723C136.657 10.8282 140.688 10.5082 144.197 11.8944L144.209 11.8988C147.713 13.2874 150.432 16.2766 151.668 20.0992C152.809 23.6266 152.638 27.5869 151.189 31.2481C150.722 32.4287 150.137 33.5416 149.448 34.5669C148.448 36.059 149.114 38.0845 150.792 38.7367C150.809 38.7432 150.827 38.7507 150.845 38.758L150.856 38.7622C154.361 40.152 157.079 43.141 158.315 46.9643C159.456 50.4916 159.285 54.4511 157.836 58.1123L157.836 58.114Z" fill="#A4419A"/>
<path d="M104.103 81.911C99.4096 80.051 95.3007 77.8951 91.8912 75.5035C87.9666 72.7511 85.1058 69.7685 83.3896 66.6403C81.1612 62.5794 82.1761 58.0548 82.979 55.7197C83.6915 53.6482 84.8725 51.7134 86.3945 50.1242C87.1218 49.3644 87.4951 48.3688 87.4452 47.3208C87.3952 46.2727 86.929 45.3166 86.1321 44.6287C84.4437 43.1715 83.17 41.2198 82.4482 38.9867C81.3779 35.6765 81.541 31.9532 82.9067 28.5028C84.2723 25.0523 86.7042 22.224 89.7538 20.5394C93.0164 18.7386 96.7421 18.4389 99.9759 19.7166L100.037 19.7406C101.123 20.1709 102.326 20.0901 103.34 19.5175C104.337 18.9542 105.015 17.9846 105.2 16.8572C105.389 15.7015 105.708 14.5553 106.145 13.4484C107.511 9.99705 109.942 7.16958 112.992 5.48582C116.254 3.68418 119.98 3.38371 123.215 4.66239L123.225 4.66642C126.454 5.94648 128.963 8.71275 130.109 12.2549C130.139 12.349 130.168 12.4437 130.197 12.5382C130.388 13.1756 130.851 13.6813 131.467 13.9253C132.085 14.1704 132.771 14.1184 133.348 13.7836C133.435 13.733 133.522 13.6831 133.611 13.6345C136.874 11.8337 140.6 11.5332 143.832 12.8107L143.844 12.8149C147.073 14.0952 149.582 16.8604 150.728 20.4028C151.798 23.7138 151.636 27.4372 150.271 30.8869C149.833 31.9928 149.28 33.0473 148.628 34.0199C147.992 34.9678 147.823 36.1375 148.163 37.2291C148.508 38.3366 149.327 39.2179 150.41 39.6475L150.492 39.6795C153.722 40.9598 156.231 43.726 157.376 47.268C158.447 50.5792 158.284 54.3016 156.919 57.7513C155.553 61.2026 153.121 64.0309 150.071 65.7146C148.029 66.8425 145.78 67.3944 143.565 67.3124C142.515 67.273 141.482 67.6692 140.731 68.3986C139.983 69.1253 139.577 70.0956 139.587 71.1322C139.607 73.1057 139.245 75.0457 138.512 76.899C137.734 78.8653 136.631 80.6452 135.321 82.048C133.903 83.5669 132.263 84.6467 130.449 85.2586C127.403 86.2859 123.199 86.4621 118.291 85.7663C113.927 85.1485 109.022 83.8314 104.479 82.0584C104.354 82.0099 104.229 81.9605 104.104 81.9112L104.103 81.911Z" fill="#FAD1F1"/>
<path d="M134.055 74.1531C131.818 79.8059 125.298 82.4921 119.681 79.9723C118.526 79.4541 117.502 78.747 116.632 77.9037C114.371 75.708 111.747 73.9195 108.816 72.7607L108.026 72.4481C105.007 71.2552 101.781 70.6833 98.5347 70.7433C97.0011 70.7716 95.4309 70.4691 93.9253 69.7935C88.9075 67.5407 86.3971 61.7594 88.1821 56.5668C89.3602 53.1421 92.0725 50.7246 95.2612 49.7722C99.8421 48.4057 103.817 45.5011 106.67 41.6696C109.981 37.2175 115.236 33.2235 122.67 36.1618C130.025 39.0679 131.116 45.5974 130.504 51.1261C129.97 55.9167 131.027 60.7373 133.408 64.9314C134.952 67.6514 135.295 71.019 134.054 74.1529L134.055 74.1531Z" fill="#B707A5"/>
<path d="M94.7382 69.0813C94.6005 69.0266 94.461 68.968 94.3255 68.9068C89.782 66.8673 87.4891 61.5857 89.1048 56.883C90.1267 53.9123 92.5328 51.6024 95.5422 50.7046C100.197 49.3164 104.427 46.3135 107.453 42.2505C109.304 39.7613 111.346 38.0055 113.523 37.0329C116.233 35.8213 119.19 35.8328 122.312 37.0667L122.328 37.0728C125.406 38.2925 127.542 40.2997 128.678 43.0389C129.591 45.2399 129.879 47.9243 129.535 51.0187C128.984 55.9754 130.03 60.952 132.561 65.4112C134.023 67.9876 134.238 71.0439 133.148 73.7955C132.191 76.2148 130.346 78.1158 127.955 79.1473C125.564 80.1797 122.913 80.2187 120.489 79.2582C120.352 79.2036 120.215 79.1454 120.079 79.085C119.052 78.6246 118.121 77.9926 117.309 77.2063C114.858 74.8249 112.128 73.0284 109.194 71.8647L108.384 71.5441C105.245 70.304 101.926 69.7078 98.5147 69.7711C97.2221 69.7949 95.9507 69.563 94.7363 69.0818L94.7382 69.0813Z" fill="#F34AE2"/>
<path d="M125.561 22.2331C123.543 27.3317 118.497 30.1173 114.291 28.4545C110.085 26.7933 108.312 21.3122 110.329 16.2134C112.347 11.1164 117.392 8.32914 121.599 9.99217C125.806 11.655 127.579 17.1345 125.561 22.2331Z" fill="#B707A5"/>
<path d="M114.642 27.5473C110.948 26.0828 109.42 21.1593 111.235 16.5708C112.128 14.3144 113.683 12.4852 115.615 11.4184C117.485 10.3862 119.483 10.2007 121.241 10.896C124.942 12.3628 126.471 17.2865 124.655 21.8746C123.762 24.131 122.205 25.9609 120.274 27.027C118.406 28.0585 116.408 28.2441 114.649 27.5496L114.641 27.5479L114.642 27.5473Z" fill="#F34AE2"/>
<path d="M145.327 30.0447C143.309 35.1433 138.264 37.9289 134.056 36.2666C129.85 34.6037 128.076 29.1242 130.094 24.0256C132.112 18.927 137.158 16.1414 141.364 17.8034C145.57 19.4663 147.344 24.9467 145.326 30.0445L145.327 30.0447Z" fill="#B707A5"/>
<path d="M134.408 35.3606C130.713 33.8957 129.184 28.9722 131.001 24.3841C132.818 19.7927 137.307 17.2468 141.007 18.7083C144.708 20.1753 146.237 25.0998 144.421 29.6871C142.604 34.2785 138.114 36.8241 134.413 35.3625L134.408 35.3614L134.408 35.3606Z" fill="#F34AE2"/>
<path d="M124.79 21.9963C123.884 24.2827 122.309 26.136 120.352 27.2156C118.46 28.2608 116.436 28.4485 114.654 27.7445L114.648 27.7431C112.343 26.8279 110.869 24.5838 110.509 21.9094C110.946 22.6204 111.565 23.2333 112.241 23.7309C114.674 25.522 116.994 26.0815 119.741 24.8289C123.356 23.1823 125.134 19.947 125.506 16.9557C125.68 18.5563 125.46 20.2996 124.79 21.9963Z" fill="#B707A5"/>
<path d="M115.884 15.0473C115.356 15.7942 115.029 16.6557 114.803 17.5465C114.684 18.0114 114.218 18.298 113.75 18.1872C113.744 18.1859 113.737 18.1844 113.732 18.1832C113.228 18.0637 112.935 17.536 113.104 17.0477C113.505 15.8895 114.028 14.7739 114.843 13.8703C115.817 12.7917 117.298 12.0703 118.719 12.2765C118.942 12.3087 119.115 12.4914 119.138 12.7161C119.166 12.986 118.97 13.2272 118.699 13.2571C117.575 13.3823 116.545 14.1128 115.884 15.0482L115.884 15.0473Z" fill="#FF7BF2"/>
<path d="M144.581 29.8178C143.676 32.1042 142.1 33.9576 140.144 35.0371C138.251 36.0823 136.228 36.27 134.446 35.5661L134.439 35.5646C132.134 34.6495 130.661 32.4054 130.301 29.7309C130.738 30.4419 131.357 31.0548 132.033 31.5525C134.466 33.3435 136.786 33.903 139.533 32.6505C143.148 31.0039 144.926 27.7685 145.298 24.7773C145.472 26.3778 145.252 28.1211 144.581 29.8178Z" fill="#B707A5"/>
<path d="M135.675 22.8687C135.147 23.6157 134.82 24.4771 134.594 25.3679C134.475 25.8328 134.009 26.1194 133.541 26.0086C133.535 26.0073 133.528 26.0059 133.523 26.0046C133.019 25.8851 132.726 25.3575 132.895 24.8691C133.296 23.7109 133.819 22.5953 134.634 21.6917C135.608 20.6131 137.089 19.8917 138.51 20.0979C138.733 20.1301 138.906 20.3128 138.929 20.5376C138.957 20.8075 138.761 21.0486 138.49 21.0785C137.367 21.2037 136.336 21.9342 135.675 22.8696L135.675 22.8687Z" fill="#FF7BF2"/>
<path d="M151.7 55.7973C149.682 60.8959 144.637 63.6816 140.429 62.0192C136.223 60.3563 134.449 54.8769 136.467 49.7783C138.485 44.6796 143.531 41.894 147.737 43.556C151.943 45.2189 153.717 50.6994 151.699 55.7971L151.7 55.7973Z" fill="#B707A5"/>
<path d="M140.782 61.1134C137.087 59.6486 135.558 54.725 137.374 50.1369C139.192 45.5455 143.681 42.9997 147.38 44.4612C151.082 45.9281 152.611 50.8527 150.794 55.44C148.977 60.0314 144.488 62.577 140.787 61.1154L140.782 61.1143L140.782 61.1134Z" fill="#F34AE2"/>
<path d="M150.954 55.5705C150.049 57.8569 148.473 59.7103 146.517 60.7898C144.624 61.835 142.601 62.0227 140.819 61.3187L140.812 61.3173C138.507 60.4021 137.034 58.1581 136.674 55.4836C137.111 56.1946 137.73 56.8075 138.406 57.3052C140.839 59.0962 143.159 59.6557 145.906 58.4031C149.521 56.7565 151.299 53.5212 151.67 50.5299C151.845 52.1305 151.625 53.8738 150.954 55.5705Z" fill="#B707A5"/>
<path d="M142.048 48.6214C141.52 49.3683 141.193 50.2298 140.967 51.1206C140.848 51.5855 140.382 51.8721 139.914 51.7613C139.908 51.76 139.901 51.7585 139.895 51.7573C139.392 51.6378 139.099 51.1101 139.268 50.6218C139.669 49.4636 140.192 48.348 141.007 47.4444C141.981 46.3657 143.462 45.6444 144.883 45.8505C145.106 45.8828 145.279 46.0655 145.302 46.2902C145.329 46.5601 145.134 46.8013 144.863 46.8312C143.739 46.9564 142.708 47.6869 142.048 48.6223L142.048 48.6214Z" fill="#FF7BF2"/>
<path d="M103.303 36.6141C101.285 41.7127 96.2396 44.4983 92.0316 42.8359C87.8255 41.1731 86.0521 35.6936 88.0701 30.595C90.0881 25.4964 95.1336 22.7108 99.3399 24.3728C103.546 26.0357 105.32 31.5161 103.302 36.6139L103.303 36.6141Z" fill="#B707A5"/>
<path d="M92.3852 41.9293C88.6896 40.4645 87.1611 35.5409 88.9775 30.9528C90.7946 26.3615 95.2836 23.8156 98.9834 25.2771C102.685 26.7441 104.214 31.6686 102.398 36.2559C100.58 40.8473 96.0906 43.3929 92.39 41.9313L92.385 41.9302L92.3852 41.9293Z" fill="#F34AE2"/>
<path d="M102.557 36.3864C101.652 38.6729 100.076 40.5262 98.12 41.6057C96.2274 42.651 94.2037 42.8386 92.4219 42.1347L92.4153 42.1332C90.1104 41.2181 88.6373 38.974 88.2767 36.2995C88.7141 37.0105 89.3327 37.6234 90.009 38.1211C92.4419 39.9121 94.7616 40.4716 97.5093 39.2191C101.124 37.5725 102.902 34.3371 103.273 31.3459C103.448 32.9464 103.228 34.6897 102.557 36.3864Z" fill="#B707A5"/>
<path d="M93.652 29.4375C93.1242 30.1844 92.7971 31.0459 92.5709 31.9367C92.4522 32.4016 91.9858 32.6882 91.5175 32.5774C91.5117 32.5761 91.5051 32.5746 91.4993 32.5734C90.9956 32.4539 90.7029 31.9262 90.8719 31.4379C91.2726 30.2797 91.7955 29.1641 92.611 28.2605C93.5849 27.1819 95.066 26.4605 96.4869 26.6666C96.7102 26.6989 96.8828 26.8816 96.9057 27.1063C96.9333 27.3762 96.7377 27.6174 96.4669 27.6473C95.3433 27.7725 94.3123 28.503 93.6518 29.4384L93.652 29.4375Z" fill="#FF7BF2"/>
<path d="M133.447 73.8428C132.489 76.2621 130.41 78.4698 128.02 79.5023C125.628 80.5347 122.861 80.4951 120.437 79.5347C120.301 79.4801 120.163 79.4219 120.027 79.3615C119 78.9012 117.932 78.2637 117.121 77.4768C114.669 75.096 111.858 73.2125 108.925 72.049L108.115 71.7284C104.978 70.4877 102.038 70.0129 98.6279 70.0773C97.3353 70.1011 96.064 69.8684 94.8497 69.3872C94.7111 69.3322 94.5716 69.2736 94.4362 69.2124C89.8926 67.1729 87.1764 61.7732 88.7931 57.0699C89.0386 56.3572 89.6749 55.496 90.0675 54.8704C90.0039 58.5942 92.6163 62.3138 96.2488 63.3133C100.147 64.3862 104.513 62.6141 108.261 64.1303C110.866 65.1846 112.756 67.6924 115.474 68.4111C118.383 69.1792 121.507 67.6072 123.432 65.2986C125.357 62.9901 126.332 60.0584 127.266 57.2032C128.431 53.6449 129.668 49.3529 128.677 43.0379C130 45.035 130.258 47.7705 129.915 50.8651C129.363 55.821 130.3 60.704 132.831 65.1625C134.294 67.7398 134.536 71.092 133.447 73.8428Z" fill="#B707A5"/>
</g>
<defs>
<clipPath id="clip0_1_499">
<rect width="160" height="160" fill="white"/>
</clipPath>
</defs>
</svg>
