<svg width="145" height="102" viewBox="0 0 145 102" fill="none" xmlns="http://www.w3.org/2000/svg">
<path d="M75.6435 21.6124C75.6435 21.6124 61.6935 7.14245 73.3235 6.10245C84.9435 5.06245 85.7335 17.2924 75.6435 21.6124Z" fill="#564134"/>
<path d="M84.0435 17.5125C84.0435 17.5125 70.0935 3.04247 81.7235 2.00247C93.3435 0.962471 94.1335 13.1925 84.0435 17.5125Z" fill="#493429"/>
<path d="M87.2635 23.7225C87.2635 23.7225 73.3135 9.25249 84.9435 8.21249C96.5635 7.17249 97.3535 19.4025 87.2635 23.7225Z" fill="#634C3F"/>
<path d="M59.1135 25.0825C59.1135 25.0825 45.1635 10.6125 56.7835 9.57248C68.4035 8.53248 69.1935 20.7625 59.1135 25.0825Z" fill="#564134"/>
<path d="M67.5235 20.9925C67.5235 20.9925 53.5735 6.52245 65.1935 5.48245C76.8135 4.44245 77.6035 16.6725 67.5235 20.9925Z" fill="#493429"/>
<path d="M81.6035 29.2825C81.6035 29.2825 67.6535 14.8125 79.2735 13.7725C90.8935 12.7325 91.6835 24.9625 81.6035 29.2825Z" fill="#493429"/>
<path d="M70.7335 27.2025C70.7335 27.2025 56.7835 12.7325 68.4035 11.6925C80.0235 10.6525 80.8135 22.8825 70.7335 27.2025Z" fill="#634C3F"/>
<path d="M53.3735 19.6724C53.3735 19.6724 39.4235 5.20244 51.0435 4.16244C62.6635 3.12244 63.4535 15.3524 53.3735 19.6724Z" fill="#564134"/>
<path d="M61.7735 15.5725C61.7735 15.5725 47.8335 1.10247 59.4535 0.0624686C71.0735 -0.977531 71.8635 11.2525 61.7735 15.5725Z" fill="#493429"/>
<path d="M64.9935 21.7825C64.9935 21.7825 51.0435 7.31249 62.6635 6.27249C74.2935 5.23249 75.0835 17.4625 64.9935 21.7825Z" fill="#634C3F"/>
<path d="M36.8435 23.1525C36.8435 23.1525 22.8935 8.68249 34.5235 7.64249C46.1435 6.60249 46.9335 18.8325 36.8435 23.1525Z" fill="#564134"/>
<path d="M45.2435 19.0524C45.2435 19.0524 31.2935 4.58245 42.9135 3.54245C54.5335 2.50245 55.3235 14.7324 45.2435 19.0524Z" fill="#564238"/>
<path d="M59.3335 27.3425C59.3335 27.3425 45.3835 12.8725 57.0035 11.8325C68.6235 10.7925 69.4135 23.0225 59.3335 27.3425Z" fill="#493429"/>
<path d="M48.4635 25.2625C48.4635 25.2625 34.5235 10.7925 46.1435 9.75247C57.7635 8.71247 58.5535 20.9425 48.4635 25.2625Z" fill="#634C3F"/>
<path d="M44.8135 24.9225C44.8135 24.9225 31.8935 10.4325 42.6335 9.41251C53.3735 8.39251 54.1235 20.6225 44.8135 24.9225Z" fill="#564134"/>
<path d="M52.5835 20.8425C52.5835 20.8425 39.6735 6.3525 50.4135 5.3325C61.1535 4.3125 61.9035 16.5425 52.5835 20.8425Z" fill="#5B4031"/>
<path d="M55.5635 27.0525C55.5635 27.0525 42.6535 12.5625 53.3935 11.5425C64.1335 10.5125 64.8835 22.7525 55.5635 27.0525Z" fill="#634C3F"/>
<path d="M31.0035 30.2825C31.0035 30.2825 18.0835 15.7925 28.8235 14.7725C39.5735 13.7525 40.3135 25.9825 31.0035 30.2825Z" fill="#564134"/>
<path d="M37.3035 24.2925C37.3035 24.2925 24.3935 9.80251 35.1335 8.78251C45.8735 7.76251 46.6235 19.9925 37.3035 24.2925Z" fill="#493429"/>
<path d="M50.3435 32.6025C50.3435 32.6025 37.4235 18.1125 48.1735 17.0925C58.9135 16.0625 59.6635 28.3025 50.3435 32.6025Z" fill="#493429"/>
<path d="M40.2935 30.5025C40.2935 30.5025 27.3835 16.0125 38.1235 14.9925C48.8635 13.9725 49.6135 26.2025 40.2935 30.5025Z" fill="#634C3F"/>
<path d="M99.2135 22.2324C99.2135 22.2324 85.2635 7.76244 96.8935 6.72244C108.514 5.68244 109.304 17.9124 99.2135 22.2324Z" fill="#564134"/>
<path d="M106.923 22.0725C106.923 22.0725 92.9735 7.60247 104.593 6.56247C116.213 5.52247 117.013 17.7525 106.923 22.0725Z" fill="#3F2A20"/>
<path d="M116.313 27.3325C116.313 27.3325 102.363 12.8625 113.993 11.8225C125.613 10.7825 126.403 23.0125 116.313 27.3325Z" fill="#634C3F"/>
<path d="M82.6835 25.7125C82.6835 25.7125 68.7335 11.2425 80.3535 10.2025C91.9735 9.16248 92.7635 21.3925 82.6835 25.7125Z" fill="#564134"/>
<path d="M91.0935 21.6225C91.0935 21.6225 77.1435 7.15246 88.7735 6.11246C100.393 5.07246 101.183 17.3025 91.0935 21.6225Z" fill="#493429"/>
<path d="M105.173 29.9124C105.173 29.9124 91.2235 15.4424 102.843 14.4024C114.463 13.3624 115.253 25.5924 105.173 29.9124Z" fill="#493429"/>
<path d="M94.3035 27.8225C94.3035 27.8225 80.3635 13.3525 91.9835 12.3125C103.603 11.2725 104.393 23.5025 94.3035 27.8225Z" fill="#634C3F"/>
<path d="M75.8235 30.8824C75.8235 30.8824 61.8835 16.4124 73.5035 15.3724C85.1235 14.3224 85.9135 26.5624 75.8235 30.8824Z" fill="#564134"/>
<path d="M84.2435 26.7924C84.2435 26.7924 70.2935 12.3224 81.9235 11.2824C93.5435 10.2424 94.3335 22.4724 84.2435 26.7924Z" fill="#493429"/>
<path d="M87.4535 32.9925C87.4535 32.9925 73.5035 18.5225 85.1235 17.4825C96.7435 16.4425 97.5335 28.6725 87.4535 32.9925Z" fill="#634C3F"/>
<path d="M59.3035 34.3624C59.3035 34.3624 45.3535 19.8924 56.9735 18.8524C68.5935 17.8124 69.3835 30.0424 59.3035 34.3624Z" fill="#564134"/>
<path d="M67.7135 30.2624C67.7135 30.2624 53.7635 15.7924 65.3935 14.7524C77.0135 13.7124 77.8035 25.9424 67.7135 30.2624Z" fill="#493429"/>
<path d="M81.7935 38.5625C81.7935 38.5625 67.8435 24.0925 79.4635 23.0525C91.0835 22.0125 91.8735 34.2425 81.7935 38.5625Z" fill="#493429"/>
<path d="M70.9235 36.4724C70.9235 36.4724 56.9735 22.0024 68.5935 20.9624C80.2235 19.9224 81.0035 32.1524 70.9235 36.4724Z" fill="#634C3F"/>
<path d="M105.383 31.5224C105.383 31.5224 91.4335 17.0524 103.063 16.0124C114.683 14.9724 115.473 27.2024 105.383 31.5224Z" fill="#564134"/>
<path d="M113.784 27.4224C113.784 27.4224 99.8335 12.9524 111.464 11.9124C123.084 10.8724 123.874 23.1024 113.784 27.4224Z" fill="#493429"/>
<path d="M117.003 33.6325C117.003 33.6325 103.053 19.1625 114.673 18.1225C126.293 17.0825 127.083 29.3125 117.003 33.6325Z" fill="#634C3F"/>
<path d="M88.8535 35.0025C88.8535 35.0025 74.9035 20.5325 86.5235 19.4925C98.1435 18.4525 98.9335 30.6825 88.8535 35.0025Z" fill="#564134"/>
<path d="M97.2635 30.9024C97.2635 30.9024 83.3135 16.4324 94.9435 15.3924C106.563 14.3524 107.353 26.5824 97.2635 30.9024Z" fill="#493429"/>
<path d="M111.343 39.1925C111.343 39.1925 97.3935 24.7225 109.013 23.6825C120.633 22.6425 121.423 34.8725 111.343 39.1925Z" fill="#493429"/>
<path d="M100.474 37.1124C100.474 37.1124 86.5235 22.6424 98.1535 21.6024C109.774 20.5624 110.564 32.7924 100.474 37.1124Z" fill="#634C3F"/>
<path d="M42.0335 31.5725C42.0335 31.5725 28.0935 17.1025 39.7135 16.0625C51.3335 15.0225 52.1235 27.2525 42.0335 31.5725Z" fill="#564134"/>
<path d="M50.4435 27.4824C50.4435 27.4824 36.4935 13.0124 48.1235 11.9724C59.7435 10.9324 60.5335 23.1624 50.4435 27.4824Z" fill="#493429"/>
<path d="M53.6635 33.6925C53.6635 33.6925 39.7135 19.2225 51.3335 18.1825C62.9535 17.1425 63.7435 29.3725 53.6635 33.6925Z" fill="#634C3F"/>
<path d="M25.5035 35.0524C25.5035 35.0524 11.5535 20.5824 23.1835 19.5424C34.8035 18.5024 35.5935 30.7324 25.5035 35.0524Z" fill="#564134"/>
<path d="M33.9135 30.9624C33.9135 30.9624 19.9635 16.4924 31.5935 15.4524C43.2135 14.4124 44.0035 26.6424 33.9135 30.9624Z" fill="#493429"/>
<path d="M47.9935 39.2525C47.9935 39.2525 34.0535 24.7825 45.6635 23.7425C57.2835 22.7025 58.0835 34.9325 47.9935 39.2525Z" fill="#493429"/>
<path d="M37.1335 37.1624C37.1335 37.1624 23.1835 22.6924 34.8035 21.6524C46.4235 20.6124 47.2135 32.8424 37.1335 37.1624Z" fill="#634C3F"/>
<path d="M127.47 28.0739L127.539 28.0654L139.791 86.2477L65.4732 94.6981L4.83617 85.4341L13.5686 30.4363C13.8908 30.4882 14.3637 30.5639 14.9693 30.6595C16.1844 30.8513 17.9337 31.1231 20.0716 31.4435C24.347 32.0842 30.1775 32.9192 36.3965 33.6961C42.6146 34.4729 49.2258 35.1922 55.0614 35.6009C60.8827 36.0086 65.9771 36.111 69.1376 35.6369C75.3358 34.7079 90.0468 32.8012 103.215 31.126C109.798 30.2885 115.993 29.5092 120.542 28.9392C122.817 28.6542 124.68 28.4216 125.975 28.2602L127.47 28.0739Z" fill="#1EAABD" stroke="#A4419A"/>
<path d="M14.0819 35.3892L14.0823 35.3894C15.5493 35.7806 39.7352 42.0487 72.4535 41.452V41.4427L72.9431 41.4326C89.3398 41.0933 107.855 39.0175 126.695 33.6219C129.76 32.7381 131.527 29.5447 130.653 26.4797C129.779 23.4171 126.587 21.6485 123.511 22.5233C70.3174 37.7625 18.288 24.5416 17.0642 24.2306C17.0587 24.2292 17.0542 24.228 17.0507 24.2272L17.0447 24.2257L17.0447 24.2256C13.9725 23.407 10.8059 25.2471 9.98666 28.3211L14.0819 35.3892ZM14.0819 35.3892C10.9996 34.5704 9.16758 31.4049 9.98663 28.3212L14.0819 35.3892Z" fill="#B707A5" stroke="#A4419A"/>
<path d="M77.2935 50.4825C64.7235 51.6525 54.9335 58.1625 49.9735 62.1825C48.7335 57.5225 45.2735 48.6225 36.8435 48.0825C36.8435 48.0825 38.4635 51.4725 38.6835 54.5525C38.8435 56.8125 37.8135 63.2125 42.6735 65.1125C38.7835 66.8125 38.5835 72.3625 38.0535 74.3525C37.2635 77.3325 35.0435 80.3625 35.0435 80.3625C43.1135 81.3725 48.0935 73.9025 50.3235 69.4625C55.4935 74.0825 65.5835 80.9625 79.6335 80.5625C100.673 79.9825 109.493 62.6325 109.493 62.6325C109.493 62.6325 95.7335 48.7725 77.2835 50.4825H77.2935Z" fill="white"/>
<path d="M76.1535 100.862V100.871C94.6313 100.449 115.995 98.0117 139.427 91.9086L139.428 91.9085C142.51 91.1081 144.36 87.9516 143.56 84.8681C142.759 81.7848 139.602 79.9267 136.521 80.7361L136.519 80.7364C62.3892 100.015 8.91909 80.6345 8.29755 80.4005M76.1535 100.862L8.47349 79.9325M76.1535 100.862L75.6432 100.873C32.9674 101.751 5.82535 91.8054 4.23958 91.2145M76.1535 100.862L4.06349 91.6825M8.29755 80.4005C8.29735 80.4004 8.29715 80.4003 8.29696 80.4003L8.47349 79.9325M8.29755 80.4005C8.29773 80.4006 8.29791 80.4006 8.29809 80.4007L8.47349 79.9325M8.29755 80.4005C5.32619 79.2877 1.99424 80.7967 0.871419 83.7787C-0.25071 86.7587 1.25663 90.0812 4.23958 91.2145M8.47349 79.9325C5.24349 78.7225 1.62349 80.3625 0.403493 83.6025C-0.816507 86.8425 0.823493 90.4525 4.06349 91.6825M4.23958 91.2145C4.23908 91.2143 4.23859 91.2141 4.2381 91.2139L4.06349 91.6825M4.23958 91.2145C4.24004 91.2147 4.24049 91.2148 4.24095 91.215L4.06349 91.6825" fill="#B707A5" stroke="#A4419A"/>
</svg>
